<?xml version="1.0" encoding="UTF-8" standalone="no"?>
<!DOCTYPE svg PUBLIC "-//W3C//DTD SVG 1.1//EN"
 "http://www.w3.org/Graphics/SVG/1.1/DTD/svg11.dtd">
<!-- Generated by graphviz version 2.43.0 (0)
 -->
<!-- Title: flow::net_flow::Node::listen_worker Pages: 1 -->
<svg width="595pt" height="310pt"
 viewBox="0.00 0.00 595.00 309.50" xmlns="http://www.w3.org/2000/svg" xmlns:xlink="http://www.w3.org/1999/xlink">
<g id="graph0" class="graph" transform="scale(1 1) rotate(0) translate(4 305.5)">
<title>flow::net_flow::Node::listen_worker</title>
<polygon fill="white" stroke="transparent" points="-4,4 -4,-305.5 591,-305.5 591,4 -4,4"/>
<!-- Node1 -->
<g id="node1" class="node">
<title>Node1</title>
<g id="a_node1"><a xlink:title="Thread W implementation of listen().">
<polygon fill="#bfbfbf" stroke="black" points="0,-157.5 0,-183.5 101,-183.5 101,-157.5 0,-157.5"/>
<text text-anchor="start" x="8" y="-173.1" font-family="Helvetica,sans-Serif" font-size="8.00">flow::net_flow::Node</text>
<text text-anchor="middle" x="50.5" y="-164.1" font-family="Helvetica,sans-Serif" font-size="8.00">::listen_worker</text>
</a>
</g>
</g>
<!-- Node2 -->
<g id="node2" class="node">
<title>Node2</title>
<g id="a_node2"><a xlink:href="namespaceflow_1_1util.html#a03984e29450abf9cf287c501d6c8f866" target="_top" xlink:title="Returns true if and only if the given key is present at least once in the given associative container...">
<polygon fill="white" stroke="black" points="147.5,-284 147.5,-301 246.5,-301 246.5,-284 147.5,-284"/>
<text text-anchor="middle" x="197" y="-290.6" font-family="Helvetica,sans-Serif" font-size="8.00">flow::util::key_exists</text>
</a>
</g>
</g>
<!-- Node1&#45;&gt;Node2 -->
<g id="edge1" class="edge">
<title>Node1&#45;&gt;Node2</title>
<path fill="none" stroke="midnightblue" d="M58.87,-183.8C71.79,-205.91 100.67,-250.2 137,-274.5 140.12,-276.59 143.49,-278.44 146.99,-280.08"/>
<polygon fill="midnightblue" stroke="midnightblue" points="145.87,-283.41 156.45,-283.97 148.53,-276.93 145.87,-283.41"/>
</g>
<!-- Node3 -->
<g id="node3" class="node">
<title>Node3</title>
<g id="a_node3"><a xlink:href="classflow_1_1net__flow_1_1Node.html#a43c42121d48a55a43a48e3a84bd10595" target="_top" xlink:title="Obtain a copy of the value of a given option in a thread&#45;safe manner.">
<polygon fill="white" stroke="black" points="137,-248 137,-265 257,-265 257,-248 137,-248"/>
<text text-anchor="middle" x="197" y="-254.6" font-family="Helvetica,sans-Serif" font-size="8.00">flow::net_flow::Node::opt</text>
</a>
</g>
</g>
<!-- Node1&#45;&gt;Node3 -->
<g id="edge2" class="edge">
<title>Node1&#45;&gt;Node3</title>
<path fill="none" stroke="midnightblue" d="M64.58,-183.56C80.46,-198.73 108.63,-223.59 137,-238.5 141.28,-240.75 145.88,-242.76 150.56,-244.56"/>
<polygon fill="midnightblue" stroke="midnightblue" points="149.6,-247.93 160.2,-247.93 151.92,-241.32 149.6,-247.93"/>
</g>
<!-- Node4 -->
<g id="node4" class="node">
<title>Node4</title>
<g id="a_node4"><a xlink:href="classflow_1_1net__flow_1_1Port__space.html#a1168841ecd09d3187f9803eac2b8b703" target="_top" xlink:title="Reserve the specified service port, or reserve_ephemeral_port() if the specified port is S_PORT_ANY.">
<polygon fill="white" stroke="black" points="146,-202.5 146,-228.5 248,-228.5 248,-202.5 146,-202.5"/>
<text text-anchor="start" x="154" y="-218.1" font-family="Helvetica,sans-Serif" font-size="8.00">flow::net_flow::Port</text>
<text text-anchor="middle" x="197" y="-209.1" font-family="Helvetica,sans-Serif" font-size="8.00">_space::reserve_port</text>
</a>
</g>
</g>
<!-- Node1&#45;&gt;Node4 -->
<g id="edge3" class="edge">
<title>Node1&#45;&gt;Node4</title>
<path fill="none" stroke="midnightblue" d="M93.3,-183.52C109.25,-188.48 127.63,-194.21 144.4,-199.43"/>
<polygon fill="midnightblue" stroke="midnightblue" points="143.46,-202.8 154.05,-202.44 145.54,-196.12 143.46,-202.8"/>
</g>
<!-- Node9 -->
<g id="node9" class="node">
<title>Node9</title>
<g id="a_node9"><a xlink:href="classflow_1_1net__flow_1_1Port__space.html#a9fe1be917ff7584ff587b5da5967127a" target="_top" xlink:title="Return a previously reserved port (of any type).">
<polygon fill="white" stroke="black" points="149,-157.5 149,-183.5 245,-183.5 245,-157.5 149,-157.5"/>
<text text-anchor="start" x="157" y="-173.1" font-family="Helvetica,sans-Serif" font-size="8.00">flow::net_flow::Port</text>
<text text-anchor="middle" x="197" y="-164.1" font-family="Helvetica,sans-Serif" font-size="8.00">_space::return_port</text>
</a>
</g>
</g>
<!-- Node1&#45;&gt;Node9 -->
<g id="edge8" class="edge">
<title>Node1&#45;&gt;Node9</title>
<path fill="none" stroke="midnightblue" d="M101.23,-170.5C113.22,-170.5 126.13,-170.5 138.44,-170.5"/>
<polygon fill="midnightblue" stroke="midnightblue" points="138.62,-174 148.62,-170.5 138.62,-167 138.62,-174"/>
</g>
<!-- Node10 -->
<g id="node10" class="node">
<title>Node10</title>
<g id="a_node10"><a xlink:href="classflow_1_1net__flow_1_1Node.html#a0a91542fce634cf6a749c71f225b105a" target="_top" xlink:title="Internal factory used for ALL Server_socket objects created by this Node (including subclasses).">
<polygon fill="white" stroke="black" points="146.5,-112.5 146.5,-138.5 247.5,-138.5 247.5,-112.5 146.5,-112.5"/>
<text text-anchor="start" x="154.5" y="-128.1" font-family="Helvetica,sans-Serif" font-size="8.00">flow::net_flow::Node</text>
<text text-anchor="middle" x="197" y="-119.1" font-family="Helvetica,sans-Serif" font-size="8.00">::serv_create</text>
</a>
</g>
</g>
<!-- Node1&#45;&gt;Node10 -->
<g id="edge11" class="edge">
<title>Node1&#45;&gt;Node10</title>
<path fill="none" stroke="midnightblue" d="M93.3,-157.48C109.25,-152.52 127.63,-146.79 144.4,-141.57"/>
<polygon fill="midnightblue" stroke="midnightblue" points="145.54,-144.88 154.05,-138.56 143.46,-138.2 145.54,-144.88"/>
</g>
<!-- Node11 -->
<g id="node11" class="node">
<title>Node11</title>
<g id="a_node11"><a xlink:href="classflow_1_1net__flow_1_1Node.html#a0bac29a091e1026e5b4f0b5d84a710c7" target="_top" xlink:title="Sets Server_socket::m_state.">
<polygon fill="white" stroke="black" points="146.5,-67.5 146.5,-93.5 247.5,-93.5 247.5,-67.5 146.5,-67.5"/>
<text text-anchor="start" x="154.5" y="-83.1" font-family="Helvetica,sans-Serif" font-size="8.00">flow::net_flow::Node</text>
<text text-anchor="middle" x="197" y="-74.1" font-family="Helvetica,sans-Serif" font-size="8.00">::serv_set_state</text>
</a>
</g>
</g>
<!-- Node1&#45;&gt;Node11 -->
<g id="edge12" class="edge">
<title>Node1&#45;&gt;Node11</title>
<path fill="none" stroke="midnightblue" d="M65.03,-157.48C81.11,-142.56 109.26,-118.18 137,-102.5 140.04,-100.78 143.25,-99.15 146.52,-97.61"/>
<polygon fill="midnightblue" stroke="midnightblue" points="148.12,-100.73 155.87,-93.51 145.31,-94.32 148.12,-100.73"/>
</g>
<!-- Node12 -->
<g id="node12" class="node">
<title>Node12</title>
<g id="a_node12"><a xlink:href="classflow_1_1net__flow_1_1Node.html#a446ee7115c70cbcd48e3897d32fc0276" target="_top" xlink:title="Analogous to validate_options() but checks per&#45;socket options instead of per&#45;Node options.">
<polygon fill="white" stroke="black" points="140.5,-22.5 140.5,-48.5 253.5,-48.5 253.5,-22.5 140.5,-22.5"/>
<text text-anchor="start" x="148.5" y="-38.1" font-family="Helvetica,sans-Serif" font-size="8.00">flow::net_flow::Node</text>
<text text-anchor="middle" x="197" y="-29.1" font-family="Helvetica,sans-Serif" font-size="8.00">::sock_validate_options</text>
</a>
</g>
</g>
<!-- Node1&#45;&gt;Node12 -->
<g id="edge13" class="edge">
<title>Node1&#45;&gt;Node12</title>
<path fill="none" stroke="midnightblue" d="M58.14,-157.41C70.57,-134.14 99.51,-85.41 137,-57.5 139.03,-55.99 141.18,-54.57 143.41,-53.24"/>
<polygon fill="midnightblue" stroke="midnightblue" points="145.1,-56.3 152.31,-48.53 141.83,-50.11 145.1,-56.3"/>
</g>
<!-- Node5 -->
<g id="node5" class="node">
<title>Node5</title>
<g id="a_node5"><a xlink:href="classflow_1_1net__flow_1_1Port__space.html#ac43e4303aac2bde697b99bf03901ec85" target="_top" xlink:title="Returns true if and only if the given port is a service port (as opposed to ephemeral or S_PORT_ANY).">
<polygon fill="white" stroke="black" points="312.5,-178.5 312.5,-204.5 423.5,-204.5 423.5,-178.5 312.5,-178.5"/>
<text text-anchor="start" x="320.5" y="-194.1" font-family="Helvetica,sans-Serif" font-size="8.00">flow::net_flow::Port</text>
<text text-anchor="middle" x="368" y="-185.1" font-family="Helvetica,sans-Serif" font-size="8.00">_space::is_service_port</text>
</a>
</g>
</g>
<!-- Node4&#45;&gt;Node5 -->
<g id="edge4" class="edge">
<title>Node4&#45;&gt;Node5</title>
<path fill="none" stroke="midnightblue" d="M248.25,-208.36C265.08,-205.97 284.1,-203.27 301.91,-200.74"/>
<polygon fill="midnightblue" stroke="midnightblue" points="302.82,-204.15 312.23,-199.28 301.83,-197.22 302.82,-204.15"/>
</g>
<!-- Node7 -->
<g id="node7" class="node">
<title>Node7</title>
<g id="a_node7"><a xlink:href="classflow_1_1net__flow_1_1Port__space.html#a65dbe99c7c4433e6c090f26c92ab3f78" target="_top" xlink:title="Reserve a randomly chosen available ephemeral port.">
<polygon fill="white" stroke="black" points="293,-223.5 293,-249.5 443,-249.5 443,-223.5 293,-223.5"/>
<text text-anchor="start" x="301" y="-239.1" font-family="Helvetica,sans-Serif" font-size="8.00">flow::net_flow::Port</text>
<text text-anchor="middle" x="368" y="-230.1" font-family="Helvetica,sans-Serif" font-size="8.00">_space::reserve_ephemeral_port</text>
</a>
</g>
</g>
<!-- Node4&#45;&gt;Node7 -->
<g id="edge6" class="edge">
<title>Node4&#45;&gt;Node7</title>
<path fill="none" stroke="midnightblue" d="M248.25,-221.74C259.19,-223.1 271.06,-224.58 282.92,-226.05"/>
<polygon fill="midnightblue" stroke="midnightblue" points="282.5,-229.53 292.86,-227.29 283.37,-222.58 282.5,-229.53"/>
</g>
<!-- Node6 -->
<g id="node6" class="node">
<title>Node6</title>
<g id="a_node6"><a xlink:href="namespaceflow_1_1util.html#a024ddda9acb2b66f2a1b35cdb0c016aa" target="_top" xlink:title="Returns true if and only if the given value is within the given range, given as a [low,...">
<polygon fill="white" stroke="black" points="485,-155.5 485,-181.5 581,-181.5 581,-155.5 485,-155.5"/>
<text text-anchor="start" x="493" y="-171.1" font-family="Helvetica,sans-Serif" font-size="8.00">flow::util::in_closed</text>
<text text-anchor="middle" x="533" y="-162.1" font-family="Helvetica,sans-Serif" font-size="8.00">_open_range</text>
</a>
</g>
</g>
<!-- Node5&#45;&gt;Node6 -->
<g id="edge5" class="edge">
<title>Node5&#45;&gt;Node6</title>
<path fill="none" stroke="midnightblue" d="M423.73,-183.78C440.12,-181.46 458.14,-178.92 474.69,-176.59"/>
<polygon fill="midnightblue" stroke="midnightblue" points="475.36,-180.03 484.78,-175.16 474.39,-173.1 475.36,-180.03"/>
</g>
<!-- Node8 -->
<g id="node8" class="node">
<title>Node8</title>
<g id="a_node8"><a xlink:href="classflow_1_1net__flow_1_1Port__space.html#ad5a6a34a24c95364bb8348e5030d955b" target="_top" xlink:title="Helper method that, given a reference to a bit set representing available ports (1 available,...">
<polygon fill="white" stroke="black" points="479,-219 479,-254 587,-254 587,-219 479,-219"/>
<text text-anchor="start" x="487" y="-243.6" font-family="Helvetica,sans-Serif" font-size="8.00">flow::net_flow::Port</text>
<text text-anchor="start" x="487" y="-234.6" font-family="Helvetica,sans-Serif" font-size="8.00">_space::find_available</text>
<text text-anchor="middle" x="533" y="-225.6" font-family="Helvetica,sans-Serif" font-size="8.00">_port_bit_idx</text>
</a>
</g>
</g>
<!-- Node7&#45;&gt;Node8 -->
<g id="edge7" class="edge">
<title>Node7&#45;&gt;Node8</title>
<path fill="none" stroke="midnightblue" d="M443.35,-236.5C451.73,-236.5 460.21,-236.5 468.44,-236.5"/>
<polygon fill="midnightblue" stroke="midnightblue" points="468.7,-240 478.7,-236.5 468.7,-233 468.7,-240"/>
</g>
<!-- Node9&#45;&gt;Node5 -->
<g id="edge10" class="edge">
<title>Node9&#45;&gt;Node5</title>
<path fill="none" stroke="midnightblue" d="M245.08,-176.35C262.79,-178.55 283.26,-181.09 302.3,-183.46"/>
<polygon fill="midnightblue" stroke="midnightblue" points="302.06,-186.96 312.41,-184.72 302.92,-180.01 302.06,-186.96"/>
</g>
<!-- Node9&#45;&gt;Node6 -->
<g id="edge9" class="edge">
<title>Node9&#45;&gt;Node6</title>
<path fill="none" stroke="midnightblue" d="M245.35,-169.31C260.57,-168.98 277.49,-168.66 293,-168.5 355.04,-167.85 426.14,-167.96 474.56,-168.16"/>
<polygon fill="midnightblue" stroke="midnightblue" points="474.82,-171.66 484.84,-168.21 474.85,-164.66 474.82,-171.66"/>
</g>
<!-- Node13 -->
<g id="node13" class="node">
<title>Node13</title>
<g id="a_node13"><a xlink:href="namespaceflow_1_1util.html#ab10bc9e8bef148f875aa743fe0852743" target="_top" xlink:title="Returns true if and only if the given value is within the given range, inclusive.">
<polygon fill="white" stroke="black" points="320,-0.5 320,-26.5 416,-26.5 416,-0.5 320,-0.5"/>
<text text-anchor="start" x="328" y="-16.1" font-family="Helvetica,sans-Serif" font-size="8.00">flow::util::in_closed</text>
<text text-anchor="middle" x="368" y="-7.1" font-family="Helvetica,sans-Serif" font-size="8.00">_range</text>
</a>
</g>
</g>
<!-- Node12&#45;&gt;Node13 -->
<g id="edge14" class="edge">
<title>Node12&#45;&gt;Node13</title>
<path fill="none" stroke="midnightblue" d="M253.81,-28.24C271.73,-25.9 291.61,-23.31 309.65,-20.97"/>
<polygon fill="midnightblue" stroke="midnightblue" points="310.27,-24.41 319.74,-19.65 309.37,-17.47 310.27,-24.41"/>
</g>
<!-- Node14 -->
<g id="node14" class="node">
<title>Node14</title>
<g id="a_node14"><a xlink:href="namespaceflow_1_1util.html#a8ae762ea4f743a98a73953d7f9ec2164" target="_top" xlink:title="Returns true if and only if the given value is within the given range, given as a (low,...">
<polygon fill="white" stroke="black" points="323,-45.5 323,-71.5 413,-71.5 413,-45.5 323,-45.5"/>
<text text-anchor="start" x="331" y="-61.1" font-family="Helvetica,sans-Serif" font-size="8.00">flow::util::in_open</text>
<text text-anchor="middle" x="368" y="-52.1" font-family="Helvetica,sans-Serif" font-size="8.00">_closed_range</text>
</a>
</g>
</g>
<!-- Node12&#45;&gt;Node14 -->
<g id="edge15" class="edge">
<title>Node12&#45;&gt;Node14</title>
<path fill="none" stroke="midnightblue" d="M253.81,-43.09C272.79,-45.68 293.98,-48.56 312.84,-51.13"/>
<polygon fill="midnightblue" stroke="midnightblue" points="312.37,-54.6 322.75,-52.48 313.31,-47.66 312.37,-54.6"/>
</g>
</g>
</svg>
