<?xml version="1.0" encoding="UTF-8" standalone="no"?>
<!DOCTYPE svg PUBLIC "-//W3C//DTD SVG 1.1//EN"
 "http://www.w3.org/Graphics/SVG/1.1/DTD/svg11.dtd">
<!-- Generated by graphviz version 2.43.0 (0)
 -->
<!-- Title: flow::util::Rnd_gen_uniform_range_base Pages: 1 -->
<svg width="455pt" height="90pt"
 viewBox="0.00 0.00 455.00 89.50" xmlns="http://www.w3.org/2000/svg" xmlns:xlink="http://www.w3.org/1999/xlink">
<g id="graph0" class="graph" transform="scale(1 1) rotate(0) translate(4 85.5)">
<title>flow::util::Rnd_gen_uniform_range_base</title>
<polygon fill="white" stroke="transparent" points="-4,4 -4,-85.5 451,-85.5 451,4 -4,4"/>
<!-- Node1 -->
<g id="node1" class="node">
<title>Node1</title>
<g id="a_node1"><a xlink:title="Base class for Rnd_gen_uniform_range and Rnd_gen_uniform_range_mt for various aliases and similar,...">
<polygon fill="#bfbfbf" stroke="black" points="0,-25.5 0,-51.5 104,-51.5 104,-25.5 0,-25.5"/>
<text text-anchor="start" x="8" y="-41.1" font-family="Helvetica,sans-Serif" font-size="8.00">flow::util::Rnd_gen</text>
<text text-anchor="middle" x="52" y="-32.1" font-family="Helvetica,sans-Serif" font-size="8.00">_uniform_range_base</text>
</a>
</g>
</g>
<!-- Node2 -->
<g id="node2" class="node">
<title>Node2</title>
<g id="a_node2"><a xlink:href="classflow_1_1util_1_1Rnd__gen__uniform__range.html" target="_top" xlink:title=" ">
<polygon fill="white" stroke="black" points="153.5,-46 153.5,-81 254.5,-81 254.5,-46 153.5,-46"/>
<text text-anchor="start" x="161.5" y="-70.6" font-family="Helvetica,sans-Serif" font-size="8.00">flow::util::Rnd_gen</text>
<text text-anchor="start" x="161.5" y="-61.6" font-family="Helvetica,sans-Serif" font-size="8.00">_uniform_range&lt; std</text>
<text text-anchor="middle" x="204" y="-52.6" font-family="Helvetica,sans-Serif" font-size="8.00">::size_t &gt;</text>
</a>
</g>
</g>
<!-- Node1&#45;&gt;Node2 -->
<g id="edge1" class="edge">
<title>Node1&#45;&gt;Node2</title>
<path fill="none" stroke="midnightblue" d="M114.43,-48.74C127.36,-50.89 140.86,-53.14 153.3,-55.22"/>
<polygon fill="midnightblue" stroke="midnightblue" points="114.64,-45.23 104.2,-47.03 113.49,-52.13 114.64,-45.23"/>
</g>
<!-- Node4 -->
<g id="node4" class="node">
<title>Node4</title>
<g id="a_node4"><a xlink:href="classflow_1_1util_1_1Rnd__gen__uniform__range.html" target="_top" xlink:title="Simple, non&#45;thread&#45;safe uniform&#45;range random number generator.">
<polygon fill="white" stroke="black" points="140,-0.5 140,-26.5 268,-26.5 268,-0.5 140,-0.5"/>
<text text-anchor="start" x="148" y="-16.1" font-family="Helvetica,sans-Serif" font-size="8.00">flow::util::Rnd_gen</text>
<text text-anchor="middle" x="204" y="-7.1" font-family="Helvetica,sans-Serif" font-size="8.00">_uniform_range&lt; range_t &gt;</text>
</a>
</g>
</g>
<!-- Node1&#45;&gt;Node4 -->
<g id="edge3" class="edge">
<title>Node1&#45;&gt;Node4</title>
<path fill="none" stroke="midnightblue" d="M114.32,-28.28C122.73,-26.88 131.38,-25.44 139.82,-24.03"/>
<polygon fill="midnightblue" stroke="midnightblue" points="113.49,-24.87 104.2,-29.97 114.64,-31.77 113.49,-24.87"/>
</g>
<!-- Node3 -->
<g id="node3" class="node">
<title>Node3</title>
<g id="a_node3"><a xlink:href="classflow_1_1util_1_1Rnd__gen__uniform__range__mt.html" target="_top" xlink:title=" ">
<polygon fill="white" stroke="black" points="317.5,-46 317.5,-81 433.5,-81 433.5,-46 317.5,-46"/>
<text text-anchor="start" x="325.5" y="-70.6" font-family="Helvetica,sans-Serif" font-size="8.00">flow::util::Rnd_gen</text>
<text text-anchor="start" x="325.5" y="-61.6" font-family="Helvetica,sans-Serif" font-size="8.00">_uniform_range_mt&lt; std</text>
<text text-anchor="middle" x="375.5" y="-52.6" font-family="Helvetica,sans-Serif" font-size="8.00">::size_t &gt;</text>
</a>
</g>
</g>
<!-- Node2&#45;&gt;Node3 -->
<g id="edge2" class="edge">
<title>Node2&#45;&gt;Node3</title>
<path fill="none" stroke="#8b1a1a" d="M265.3,-63.5C282.28,-63.5 300.69,-63.5 317.48,-63.5"/>
<polygon fill="#8b1a1a" stroke="#8b1a1a" points="264.94,-60 254.94,-63.5 264.94,-67 264.94,-60"/>
</g>
<!-- Node5 -->
<g id="node5" class="node">
<title>Node5</title>
<g id="a_node5"><a xlink:href="classflow_1_1util_1_1Rnd__gen__uniform__range__mt.html" target="_top" xlink:title="Identical to Rnd_gen_uniform_range but safe for concurrent RNG given a single object.">
<polygon fill="white" stroke="black" points="304,-0.5 304,-26.5 447,-26.5 447,-0.5 304,-0.5"/>
<text text-anchor="start" x="312" y="-16.1" font-family="Helvetica,sans-Serif" font-size="8.00">flow::util::Rnd_gen</text>
<text text-anchor="middle" x="375.5" y="-7.1" font-family="Helvetica,sans-Serif" font-size="8.00">_uniform_range_mt&lt; range_t &gt;</text>
</a>
</g>
</g>
<!-- Node4&#45;&gt;Node5 -->
<g id="edge4" class="edge">
<title>Node4&#45;&gt;Node5</title>
<path fill="none" stroke="#8b1a1a" d="M278.36,-13.5C286.84,-13.5 295.48,-13.5 303.92,-13.5"/>
<polygon fill="#8b1a1a" stroke="#8b1a1a" points="278.12,-10 268.12,-13.5 278.12,-17 278.12,-10"/>
</g>
</g>
</svg>
