<?xml version="1.0" encoding="UTF-8" standalone="no"?>
<!DOCTYPE svg PUBLIC "-//W3C//DTD SVG 1.1//EN"
 "http://www.w3.org/Graphics/SVG/1.1/DTD/svg11.dtd">
<!-- Generated by graphviz version 2.43.0 (0)
 -->
<!-- Title: flow::net_flow::Sequence_number::Generator Pages: 1 -->
<svg width="1007pt" height="262pt"
 viewBox="0.00 0.00 1007.00 262.00" xmlns="http://www.w3.org/2000/svg" xmlns:xlink="http://www.w3.org/1999/xlink">
<g id="graph0" class="graph" transform="scale(1 1) rotate(0) translate(4 258)">
<title>flow::net_flow::Sequence_number::Generator</title>
<polygon fill="white" stroke="transparent" points="-4,4 -4,-258 1003,-258 1003,4 -4,4"/>
<!-- Node1 -->
<g id="node1" class="node">
<title>Node1</title>
<g id="a_node1"><a xlink:title="An object of this type generates a series of initial sequence numbers (ISN) that are meant to be suff...">
<polygon fill="#bfbfbf" stroke="black" points="879,-127 879,-153 999,-153 999,-127 879,-127"/>
<text text-anchor="start" x="887" y="-142.6" font-family="Helvetica,sans-Serif" font-size="8.00">flow::net_flow::Sequence</text>
<text text-anchor="middle" x="939" y="-133.6" font-family="Helvetica,sans-Serif" font-size="8.00">_number::Generator</text>
</a>
</g>
</g>
<!-- Node2 -->
<g id="node2" class="node">
<title>Node2</title>
<g id="a_node2"><a xlink:href="classflow_1_1log_1_1Log__context.html" target="_top" xlink:title="Convenience class that simply stores a Logger and/or Component passed into a constructor; and returns...">
<polygon fill="white" stroke="black" points="735,-131.5 735,-148.5 842,-148.5 842,-131.5 735,-131.5"/>
<text text-anchor="middle" x="788.5" y="-138.1" font-family="Helvetica,sans-Serif" font-size="8.00">flow::log::Log_context</text>
</a>
</g>
</g>
<!-- Node2&#45;&gt;Node1 -->
<g id="edge1" class="edge">
<title>Node2&#45;&gt;Node1</title>
<path fill="none" stroke="midnightblue" d="M852.42,-140C861.17,-140 870.14,-140 878.83,-140"/>
<polygon fill="midnightblue" stroke="midnightblue" points="852.27,-136.5 842.27,-140 852.27,-143.5 852.27,-136.5"/>
</g>
<!-- Node3 -->
<g id="node3" class="node">
<title>Node3</title>
<g id="a_node3"><a xlink:href="classflow_1_1log_1_1Logger.html" target="_top" xlink:title="Interface that the user should implement, passing the implementing Logger into logging classes (Flow&#39;...">
<polygon fill="white" stroke="black" points="542.5,-86.5 542.5,-103.5 628.5,-103.5 628.5,-86.5 542.5,-86.5"/>
<text text-anchor="middle" x="585.5" y="-93.1" font-family="Helvetica,sans-Serif" font-size="8.00">flow::log::Logger</text>
</a>
</g>
</g>
<!-- Node3&#45;&gt;Node2 -->
<g id="edge2" class="edge">
<title>Node3&#45;&gt;Node2</title>
<path fill="none" stroke="#9a32cd" stroke-dasharray="5,2" d="M634.81,-105.82C669.95,-113.68 716.85,-124.18 749.36,-131.46"/>
<polygon fill="#9a32cd" stroke="#9a32cd" points="635.3,-102.34 624.78,-103.57 633.77,-109.17 635.3,-102.34"/>
<text text-anchor="middle" x="686.5" y="-126.6" font-family="Helvetica,sans-Serif" font-size="8.00"> m_logger</text>
</g>
<!-- Node4 -->
<g id="node4" class="node">
<title>Node4</title>
<g id="a_node4"><a xlink:href="classflow_1_1util_1_1Null__interface.html" target="_top" xlink:title="An empty interface, consisting of nothing but a default virtual destructor, intended as a boiler&#45;plat...">
<polygon fill="white" stroke="black" points="268,-0.5 268,-17.5 382,-17.5 382,-0.5 268,-0.5"/>
<text text-anchor="middle" x="325" y="-7.1" font-family="Helvetica,sans-Serif" font-size="8.00">flow::util::Null_interface</text>
</a>
</g>
</g>
<!-- Node4&#45;&gt;Node3 -->
<g id="edge3" class="edge">
<title>Node4&#45;&gt;Node3</title>
<path fill="none" stroke="midnightblue" d="M385.53,-19.54C423.4,-27.28 473.02,-39.35 515,-56 535.84,-64.26 558.13,-77.69 571.7,-86.43"/>
<polygon fill="midnightblue" stroke="midnightblue" points="386.17,-16.1 375.68,-17.57 384.8,-22.97 386.17,-16.1"/>
</g>
<!-- Node5 -->
<g id="node5" class="node">
<title>Node5</title>
<g id="a_node5"><a xlink:href="classflow_1_1util_1_1Unique__id__holder.html" target="_top" xlink:title="Each object of this class stores (at construction) and returns (on demand) a numeric ID unique from a...">
<polygon fill="white" stroke="black" points="281.5,-73 281.5,-99 368.5,-99 368.5,-73 281.5,-73"/>
<text text-anchor="start" x="289.5" y="-88.6" font-family="Helvetica,sans-Serif" font-size="8.00">flow::util::Unique</text>
<text text-anchor="middle" x="325" y="-79.6" font-family="Helvetica,sans-Serif" font-size="8.00">_id_holder</text>
</a>
</g>
</g>
<!-- Node5&#45;&gt;Node3 -->
<g id="edge4" class="edge">
<title>Node5&#45;&gt;Node3</title>
<path fill="none" stroke="midnightblue" d="M378.93,-87.84C427.19,-89.52 497.57,-91.97 542.18,-93.53"/>
<polygon fill="midnightblue" stroke="midnightblue" points="378.8,-84.34 368.69,-87.49 378.56,-91.33 378.8,-84.34"/>
</g>
<!-- Node6 -->
<g id="node6" class="node">
<title>Node6</title>
<g id="a_node6"><a xlink:title=" ">
<polygon fill="white" stroke="#bfbfbf" points="0,-113.5 0,-130.5 50,-130.5 50,-113.5 0,-113.5"/>
<text text-anchor="middle" x="25" y="-120.1" font-family="Helvetica,sans-Serif" font-size="8.00">uint64_t</text>
</a>
</g>
</g>
<!-- Node6&#45;&gt;Node1 -->
<g id="edge14" class="edge">
<title>Node6&#45;&gt;Node1</title>
<path fill="none" stroke="#9a32cd" stroke-dasharray="5,2" d="M33.59,-140.18C49.23,-174.41 88.52,-245 146.5,-245 146.5,-245 146.5,-245 789.5,-245 852.33,-245 907.21,-181.55 928.54,-153.3"/>
<polygon fill="#9a32cd" stroke="#9a32cd" points="36.72,-138.6 29.5,-130.85 30.31,-141.41 36.72,-138.6"/>
<text text-anchor="middle" x="457.5" y="-247.6" font-family="Helvetica,sans-Serif" font-size="8.00"> S_MAX_INIT_SEQ_NUM</text>
</g>
<!-- Node6&#45;&gt;Node5 -->
<g id="edge5" class="edge">
<title>Node6&#45;&gt;Node5</title>
<path fill="none" stroke="#9a32cd" stroke-dasharray="5,2" d="M53.71,-109.57C67.36,-104.06 84.24,-98.11 100,-95 162.24,-82.71 236.03,-82.42 281.43,-83.83"/>
<polygon fill="#9a32cd" stroke="#9a32cd" points="52.27,-106.38 44.4,-113.47 54.97,-112.84 52.27,-106.38"/>
<text text-anchor="middle" x="147.5" y="-97.6" font-family="Helvetica,sans-Serif" font-size="8.00"> m_id</text>
</g>
<!-- Node7 -->
<g id="node7" class="node">
<title>Node7</title>
<g id="a_node7"><a xlink:title=" ">
<polygon fill="white" stroke="black" points="100,-113.5 100,-130.5 195,-130.5 195,-113.5 100,-113.5"/>
<text text-anchor="middle" x="147.5" y="-120.1" font-family="Helvetica,sans-Serif" font-size="8.00">std::atomic&lt; id_t &gt;</text>
</a>
</g>
</g>
<!-- Node6&#45;&gt;Node7 -->
<g id="edge7" class="edge">
<title>Node6&#45;&gt;Node7</title>
<path fill="none" stroke="#9a32cd" stroke-dasharray="5,2" d="M60.3,-122C72.49,-122 86.44,-122 99.52,-122"/>
<polygon fill="#9a32cd" stroke="#9a32cd" points="60.1,-118.5 50.1,-122 60.1,-125.5 60.1,-118.5"/>
<text text-anchor="middle" x="75" y="-124.6" font-family="Helvetica,sans-Serif" font-size="8.00"> ptr</text>
</g>
<!-- Node7&#45;&gt;Node5 -->
<g id="edge6" class="edge">
<title>Node7&#45;&gt;Node5</title>
<path fill="none" stroke="#9a32cd" stroke-dasharray="5,2" d="M200.11,-111.41C226,-106.1 256.98,-99.75 281.49,-94.72"/>
<polygon fill="#9a32cd" stroke="#9a32cd" points="199.18,-108.03 190.09,-113.47 200.59,-114.89 199.18,-108.03"/>
<text text-anchor="middle" x="231.5" y="-111.6" font-family="Helvetica,sans-Serif" font-size="8.00"> s_last_id</text>
</g>
<!-- Node8 -->
<g id="node8" class="node">
<title>Node8</title>
<g id="a_node8"><a xlink:title=" ">
<polygon fill="white" stroke="#bfbfbf" points="275.5,-36.5 275.5,-53.5 374.5,-53.5 374.5,-36.5 275.5,-36.5"/>
<text text-anchor="middle" x="325" y="-43.1" font-family="Helvetica,sans-Serif" font-size="8.00">boost::noncopyable</text>
</a>
</g>
</g>
<!-- Node8&#45;&gt;Node1 -->
<g id="edge13" class="edge">
<title>Node8&#45;&gt;Node1</title>
<path fill="none" stroke="#8b1a1a" d="M384.84,-48.27C422.19,-50.62 471.5,-54.21 515,-59 649.34,-73.79 804.85,-108.07 884.66,-126.95"/>
<polygon fill="#8b1a1a" stroke="#8b1a1a" points="384.84,-44.77 374.64,-47.65 384.41,-51.75 384.84,-44.77"/>
</g>
<!-- Node8&#45;&gt;Node3 -->
<g id="edge8" class="edge">
<title>Node8&#45;&gt;Node3</title>
<path fill="none" stroke="#8b1a1a" d="M380.1,-55.46C428.34,-64.8 498,-78.27 542.25,-86.83"/>
<polygon fill="#8b1a1a" stroke="#8b1a1a" points="380.63,-52 370.14,-53.54 379.3,-58.87 380.63,-52"/>
</g>
<!-- Node9 -->
<g id="node9" class="node">
<title>Node9</title>
<g id="a_node9"><a xlink:title=" ">
<polygon fill="white" stroke="#bfbfbf" points="278,-118 278,-144 372,-144 372,-118 278,-118"/>
<text text-anchor="start" x="286" y="-133.6" font-family="Helvetica,sans-Serif" font-size="8.00">thread_specific_ptr</text>
<text text-anchor="middle" x="325" y="-124.6" font-family="Helvetica,sans-Serif" font-size="8.00">&lt; std::string &gt;</text>
</a>
</g>
</g>
<!-- Node9&#45;&gt;Node3 -->
<g id="edge9" class="edge">
<title>Node9&#45;&gt;Node3</title>
<path fill="none" stroke="#9a32cd" stroke-dasharray="5,2" d="M382.47,-123.33C420.04,-118.2 470.48,-111.27 515,-105 523.81,-103.76 533.25,-102.41 542.24,-101.12"/>
<polygon fill="#9a32cd" stroke="#9a32cd" points="381.66,-119.9 372.23,-124.72 382.61,-126.84 381.66,-119.9"/>
<text text-anchor="middle" x="457.5" y="-123.6" font-family="Helvetica,sans-Serif" font-size="8.00"> s_this_thread_nickname_ptr</text>
</g>
<!-- Node10 -->
<g id="node10" class="node">
<title>Node10</title>
<g id="a_node10"><a xlink:href="classflow_1_1log_1_1Component.html" target="_top" xlink:title="A light&#45;weight class, each object storing a component payload encoding an enum value from enum type o...">
<polygon fill="white" stroke="black" points="533,-158.5 533,-175.5 638,-175.5 638,-158.5 533,-158.5"/>
<text text-anchor="middle" x="585.5" y="-165.1" font-family="Helvetica,sans-Serif" font-size="8.00">flow::log::Component</text>
</a>
</g>
</g>
<!-- Node10&#45;&gt;Node2 -->
<g id="edge10" class="edge">
<title>Node10&#45;&gt;Node2</title>
<path fill="none" stroke="#9a32cd" stroke-dasharray="5,2" d="M647.98,-158.74C675.71,-155.02 708.13,-150.66 734.73,-147.09"/>
<polygon fill="#9a32cd" stroke="#9a32cd" points="647.45,-155.28 638,-160.08 648.38,-162.22 647.45,-155.28"/>
<text text-anchor="middle" x="686.5" y="-159.6" font-family="Helvetica,sans-Serif" font-size="8.00"> m_component</text>
</g>
<!-- Node11 -->
<g id="node11" class="node">
<title>Node11</title>
<g id="a_node11"><a xlink:title=" ">
<polygon fill="white" stroke="#bfbfbf" points="282.5,-199.5 282.5,-216.5 367.5,-216.5 367.5,-199.5 282.5,-199.5"/>
<text text-anchor="middle" x="325" y="-206.1" font-family="Helvetica,sans-Serif" font-size="8.00">type_info const *</text>
</a>
</g>
</g>
<!-- Node11&#45;&gt;Node10 -->
<g id="edge11" class="edge">
<title>Node11&#45;&gt;Node10</title>
<path fill="none" stroke="#9a32cd" stroke-dasharray="5,2" d="M377.92,-204.08C416.07,-200.69 469.05,-194.9 515,-186 529,-183.29 544.31,-179.22 556.99,-175.55"/>
<polygon fill="#9a32cd" stroke="#9a32cd" points="377.23,-200.63 367.57,-204.98 377.83,-207.6 377.23,-200.63"/>
<text text-anchor="middle" x="457.5" y="-203.6" font-family="Helvetica,sans-Serif" font-size="8.00"> m_payload_type_or_null</text>
</g>
<!-- Node12 -->
<g id="node12" class="node">
<title>Node12</title>
<g id="a_node12"><a xlink:title=" ">
<polygon fill="white" stroke="#bfbfbf" points="291,-163.5 291,-180.5 359,-180.5 359,-163.5 291,-163.5"/>
<text text-anchor="middle" x="325" y="-170.1" font-family="Helvetica,sans-Serif" font-size="8.00">unsigned int</text>
</a>
</g>
</g>
<!-- Node12&#45;&gt;Node10 -->
<g id="edge12" class="edge">
<title>Node12&#45;&gt;Node10</title>
<path fill="none" stroke="#9a32cd" stroke-dasharray="5,2" d="M369.35,-169.3C379.41,-168.78 390.07,-168.3 400,-168 444.82,-166.67 495.8,-166.49 532.8,-166.61"/>
<polygon fill="#9a32cd" stroke="#9a32cd" points="368.93,-165.82 359.14,-169.86 369.32,-172.81 368.93,-165.82"/>
<text text-anchor="start" x="411" y="-179.6" font-family="Helvetica,sans-Serif" font-size="8.00"> m_payload_enum_raw</text>
<text text-anchor="middle" x="457.5" y="-170.6" font-family="Helvetica,sans-Serif" font-size="8.00">_value</text>
</g>
</g>
</svg>
