<?xml version="1.0" encoding="UTF-8" standalone="no"?>
<!DOCTYPE svg PUBLIC "-//W3C//DTD SVG 1.1//EN"
 "http://www.w3.org/Graphics/SVG/1.1/DTD/svg11.dtd">
<!-- Generated by graphviz version 2.43.0 (0)
 -->
<!-- Title: flow::net_flow::Node::opt Pages: 1 -->
<svg width="1318pt" height="774pt"
 viewBox="0.00 0.00 1318.00 774.40" xmlns="http://www.w3.org/2000/svg" xmlns:xlink="http://www.w3.org/1999/xlink">
<g id="graph0" class="graph" transform="scale(1 1) rotate(0) translate(4 770.4)">
<title>flow::net_flow::Node::opt</title>
<polygon fill="white" stroke="transparent" points="-4,4 -4,-770.4 1314,-770.4 1314,4 -4,4"/>
<!-- Node1 -->
<g id="node1" class="node">
<title>Node1</title>
<g id="a_node1"><a xlink:title="Obtain a copy of the value of a given option in a thread&#45;safe manner.">
<polygon fill="#bfbfbf" stroke="black" points="1190,-218 1190,-235 1310,-235 1310,-218 1190,-218"/>
<text text-anchor="middle" x="1250" y="-224.6" font-family="Helvetica,sans-Serif" font-size="8.00">flow::net_flow::Node::opt</text>
</a>
</g>
</g>
<!-- Node2 -->
<g id="node2" class="node">
<title>Node2</title>
<g id="a_node2"><a xlink:href="classflow_1_1net__flow_1_1Node.html#a9f302fe63e36f72931e1a759b0aaaed4" target="_top" xlink:title="Takes given low&#45;level packet structure, serializes it, and initiates asynchronous send of these data ...">
<polygon fill="white" stroke="black" points="1038.5,-483 1038.5,-518 1147.5,-518 1147.5,-483 1038.5,-483"/>
<text text-anchor="start" x="1046.5" y="-507.6" font-family="Helvetica,sans-Serif" font-size="8.00">flow::net_flow::Node</text>
<text text-anchor="start" x="1046.5" y="-498.6" font-family="Helvetica,sans-Serif" font-size="8.00">::async_low_lvl_packet</text>
<text text-anchor="middle" x="1093" y="-489.6" font-family="Helvetica,sans-Serif" font-size="8.00">_send_impl</text>
</a>
</g>
</g>
<!-- Node1&#45;&gt;Node2 -->
<g id="edge1" class="edge">
<title>Node1&#45;&gt;Node2</title>
<path fill="none" stroke="midnightblue" d="M1241.91,-244.83C1227.65,-280.79 1193.44,-362.6 1154,-425.5 1140.89,-446.41 1122.88,-468.21 1110.03,-482.88"/>
<polygon fill="midnightblue" stroke="midnightblue" points="1245.29,-245.79 1245.68,-235.21 1238.77,-243.24 1245.29,-245.79"/>
</g>
<!-- Node5 -->
<g id="node5" class="node">
<title>Node5</title>
<g id="a_node5"><a xlink:href="classflow_1_1net__flow_1_1Node.html#a1699dfdaf3e5ebe1b1d715a9c306d116" target="_top" xlink:title="Handles a just&#45;received, not&#45;yet&#45;deserialized low&#45;level packet.">
<polygon fill="white" stroke="red" points="13.5,-590.5 13.5,-616.5 114.5,-616.5 114.5,-590.5 13.5,-590.5"/>
<text text-anchor="start" x="21.5" y="-606.1" font-family="Helvetica,sans-Serif" font-size="8.00">flow::net_flow::Node</text>
<text text-anchor="middle" x="64" y="-597.1" font-family="Helvetica,sans-Serif" font-size="8.00">::handle_incoming</text>
</a>
</g>
</g>
<!-- Node1&#45;&gt;Node5 -->
<g id="edge25" class="edge">
<title>Node1&#45;&gt;Node5</title>
<path fill="none" stroke="midnightblue" d="M1247.15,-245.61C1236.77,-341.37 1176.93,-764.5 930.5,-764.5 930.5,-764.5 930.5,-764.5 385,-764.5 285.41,-764.5 249.85,-777.97 164,-727.5 117.69,-700.28 84.49,-642.58 71.3,-616.63"/>
<polygon fill="midnightblue" stroke="midnightblue" points="1250.66,-245.69 1248.21,-235.39 1243.7,-244.98 1250.66,-245.69"/>
</g>
<!-- Node46 -->
<g id="node19" class="node">
<title>Node46</title>
<g id="a_node19"><a xlink:href="classflow_1_1net__flow_1_1Node.html#aba411df8746d5fd4db2d28df3a016f5e" target="_top" xlink:title="Thread W implementation of listen().">
<polygon fill="white" stroke="black" points="1042.5,-90.5 1042.5,-116.5 1143.5,-116.5 1143.5,-90.5 1042.5,-90.5"/>
<text text-anchor="start" x="1050.5" y="-106.1" font-family="Helvetica,sans-Serif" font-size="8.00">flow::net_flow::Node</text>
<text text-anchor="middle" x="1093" y="-97.1" font-family="Helvetica,sans-Serif" font-size="8.00">::listen_worker</text>
</a>
</g>
</g>
<!-- Node1&#45;&gt;Node46 -->
<g id="edge26" class="edge">
<title>Node1&#45;&gt;Node46</title>
<path fill="none" stroke="midnightblue" d="M1235.75,-210.1C1218.59,-189.64 1186.93,-154.57 1154,-131.5 1145.9,-125.83 1136.47,-120.81 1127.52,-116.64"/>
<polygon fill="midnightblue" stroke="midnightblue" points="1233.12,-212.4 1242.19,-217.89 1238.52,-207.95 1233.12,-212.4"/>
</g>
<!-- Node8 -->
<g id="node21" class="node">
<title>Node8</title>
<g id="a_node21"><a xlink:href="classflow_1_1net__flow_1_1Node.html#a9909cd2b2a77c57da9e35fcef0f8a4e5" target="_top" xlink:title="Handles the pre&#45;condition that m_low_lvl_sock has a UDP packet available for reading,...">
<polygon fill="white" stroke="red" points="1032,-45.5 1032,-71.5 1154,-71.5 1154,-45.5 1032,-45.5"/>
<text text-anchor="start" x="1040" y="-61.1" font-family="Helvetica,sans-Serif" font-size="8.00">flow::net_flow::Node</text>
<text text-anchor="middle" x="1093" y="-52.1" font-family="Helvetica,sans-Serif" font-size="8.00">::low_lvl_recv_and_handle</text>
</a>
</g>
</g>
<!-- Node1&#45;&gt;Node8 -->
<g id="edge29" class="edge">
<title>Node1&#45;&gt;Node8</title>
<path fill="none" stroke="midnightblue" d="M1241.75,-208.69C1228.59,-178.47 1198.02,-116.98 1154,-81.5 1149.14,-77.58 1143.53,-74.27 1137.74,-71.5"/>
<polygon fill="midnightblue" stroke="midnightblue" points="1238.55,-210.13 1245.67,-217.98 1245,-207.41 1238.55,-210.13"/>
</g>
<!-- Node48 -->
<g id="node22" class="node">
<title>Node48</title>
<g id="a_node22"><a xlink:href="classflow_1_1net__flow_1_1Node.html#a4bd7b471dd6cd3e3570930b48d30e577" target="_top" xlink:title="The maximum number of bytes of user data per received or sent block on connections generated from thi...">
<polygon fill="white" stroke="black" points="335.5,-355.5 335.5,-381.5 436.5,-381.5 436.5,-355.5 335.5,-355.5"/>
<text text-anchor="start" x="343.5" y="-371.1" font-family="Helvetica,sans-Serif" font-size="8.00">flow::net_flow::Node</text>
<text text-anchor="middle" x="386" y="-362.1" font-family="Helvetica,sans-Serif" font-size="8.00">::max_block_size</text>
</a>
</g>
</g>
<!-- Node1&#45;&gt;Node48 -->
<g id="edge30" class="edge">
<title>Node1&#45;&gt;Node48</title>
<path fill="none" stroke="midnightblue" d="M1230.81,-241.58C1184.11,-278.7 1054.93,-371.5 930.5,-371.5 930.5,-371.5 930.5,-371.5 746,-371.5 635.52,-371.5 505.93,-370.06 436.65,-369.18"/>
<polygon fill="midnightblue" stroke="midnightblue" points="1233.21,-244.14 1238.79,-235.14 1228.81,-238.7 1233.21,-244.14"/>
</g>
<!-- Node49 -->
<g id="node23" class="node">
<title>Node49</title>
<g id="a_node23"><a xlink:href="classflow_1_1net__flow_1_1Node.html#a159b9c2b9a8a969f5e3715341c433aec" target="_top" xlink:title="Copies this Node&#39;s option set and returns that copy.">
<polygon fill="white" stroke="black" points="1042.5,-0.5 1042.5,-26.5 1143.5,-26.5 1143.5,-0.5 1042.5,-0.5"/>
<text text-anchor="start" x="1050.5" y="-16.1" font-family="Helvetica,sans-Serif" font-size="8.00">flow::net_flow::Node</text>
<text text-anchor="middle" x="1093" y="-7.1" font-family="Helvetica,sans-Serif" font-size="8.00">::options</text>
</a>
</g>
</g>
<!-- Node1&#45;&gt;Node49 -->
<g id="edge33" class="edge">
<title>Node1&#45;&gt;Node49</title>
<path fill="none" stroke="midnightblue" d="M1244.66,-207.78C1234.97,-169.94 1208.01,-83.86 1154,-35.5 1150.12,-32.02 1145.63,-29.08 1140.91,-26.59"/>
<polygon fill="midnightblue" stroke="midnightblue" points="1241.36,-208.99 1247.13,-217.88 1248.16,-207.33 1241.36,-208.99"/>
</g>
<!-- Node51 -->
<g id="node25" class="node">
<title>Node51</title>
<g id="a_node25"><a xlink:href="classflow_1_1net__flow_1_1Node.html#a2336fae98b318ab73e7268e9a242bf09" target="_top" xlink:title="Given a Peer_socket, copies all stats info (as available via Peer_socket::info()) from various struct...">
<polygon fill="white" stroke="black" points="1038,-235.5 1038,-261.5 1148,-261.5 1148,-235.5 1038,-235.5"/>
<text text-anchor="start" x="1046" y="-251.1" font-family="Helvetica,sans-Serif" font-size="8.00">flow::net_flow::Node</text>
<text text-anchor="middle" x="1093" y="-242.1" font-family="Helvetica,sans-Serif" font-size="8.00">::sock_load_info_struct</text>
</a>
</g>
</g>
<!-- Node1&#45;&gt;Node51 -->
<g id="edge35" class="edge">
<title>Node1&#45;&gt;Node51</title>
<path fill="none" stroke="midnightblue" d="M1179.83,-236.32C1169.18,-237.83 1158.3,-239.37 1148.04,-240.83"/>
<polygon fill="midnightblue" stroke="midnightblue" points="1180.55,-239.75 1189.96,-234.88 1179.57,-232.82 1180.55,-239.75"/>
</g>
<!-- Node10 -->
<g id="node29" class="node">
<title>Node10</title>
<g id="a_node29"><a xlink:href="classflow_1_1net__flow_1_1Node.html#a5b056ed753b832458f44f537acfe86d7" target="_top" xlink:title="Worker thread W (main event loop) body.">
<polygon fill="white" stroke="black" points="504.5,-176.5 504.5,-202.5 605.5,-202.5 605.5,-176.5 504.5,-176.5"/>
<text text-anchor="start" x="512.5" y="-192.1" font-family="Helvetica,sans-Serif" font-size="8.00">flow::net_flow::Node</text>
<text text-anchor="middle" x="555" y="-183.1" font-family="Helvetica,sans-Serif" font-size="8.00">::worker_run</text>
</a>
</g>
</g>
<!-- Node1&#45;&gt;Node10 -->
<g id="edge54" class="edge">
<title>Node1&#45;&gt;Node10</title>
<path fill="none" stroke="midnightblue" d="M1179.57,-219.08C1128.78,-213.92 1058.19,-207.31 996,-203.5 854.49,-194.82 687.03,-191.37 605.53,-190.13"/>
<polygon fill="midnightblue" stroke="midnightblue" points="1179.47,-222.59 1189.78,-220.12 1180.18,-215.62 1179.47,-222.59"/>
</g>
<!-- Node58 -->
<g id="node34" class="node">
<title>Node58</title>
<g id="a_node34"><a xlink:href="classflow_1_1net__flow_1_1Node.html#afb88dafa8ec5c1b412de86dfdccd9c8f" target="_top" xlink:title="async_sock_low_lvl_packet_send_paced() pacing helper: Resets the socket&#39;s Send_pacing_data structure ...">
<polygon fill="white" stroke="black" points="678,-400.5 678,-426.5 816,-426.5 816,-400.5 678,-400.5"/>
<text text-anchor="start" x="686" y="-416.1" font-family="Helvetica,sans-Serif" font-size="8.00">flow::net_flow::Node</text>
<text text-anchor="middle" x="747" y="-407.1" font-family="Helvetica,sans-Serif" font-size="8.00">::sock_pacing_new_time_slice</text>
</a>
</g>
</g>
<!-- Node1&#45;&gt;Node58 -->
<g id="edge49" class="edge">
<title>Node1&#45;&gt;Node58</title>
<path fill="none" stroke="midnightblue" d="M1244.2,-244.7C1234.06,-279.07 1206.92,-353.02 1154,-385.5 1049.23,-449.81 899.32,-439.64 814.03,-426.52"/>
<polygon fill="midnightblue" stroke="midnightblue" points="1247.58,-245.6 1246.9,-235.03 1240.84,-243.71 1247.58,-245.6"/>
</g>
<!-- Node59 -->
<g id="node35" class="node">
<title>Node59</title>
<g id="a_node35"><a xlink:href="classflow_1_1net__flow_1_1Node.html#a287eae1113865dba06c103cf023404ae" target="_top" xlink:title="Sends an RST to the other side of the given socket, synchronously.">
<polygon fill="white" stroke="black" points="863,-128.5 863,-154.5 996,-154.5 996,-128.5 863,-128.5"/>
<text text-anchor="start" x="871" y="-144.1" font-family="Helvetica,sans-Serif" font-size="8.00">flow::net_flow::Node</text>
<text text-anchor="middle" x="929.5" y="-135.1" font-family="Helvetica,sans-Serif" font-size="8.00">::sync_sock_low_lvl_rst_send</text>
</a>
</g>
</g>
<!-- Node1&#45;&gt;Node59 -->
<g id="edge52" class="edge">
<title>Node1&#45;&gt;Node59</title>
<path fill="none" stroke="midnightblue" d="M1229.96,-211.79C1211.59,-198.42 1182.44,-179.32 1154,-169.5 1102.81,-151.82 1041.59,-145.07 996.18,-142.61"/>
<polygon fill="midnightblue" stroke="midnightblue" points="1227.96,-214.66 1238.07,-217.83 1232.14,-209.05 1227.96,-214.66"/>
</g>
<!-- Node3 -->
<g id="node3" class="node">
<title>Node3</title>
<g id="a_node3"><a xlink:href="classflow_1_1net__flow_1_1Node.html#a08a5752bf3848f31abbe753be47c1fcf" target="_top" xlink:title="async_low_lvl_packet_send_impl() wrapper to call when packet is to be sent to the remote side of the ...">
<polygon fill="white" stroke="black" points="690,-613 690,-648 804,-648 804,-613 690,-613"/>
<text text-anchor="start" x="698" y="-637.6" font-family="Helvetica,sans-Serif" font-size="8.00">flow::net_flow::Node</text>
<text text-anchor="start" x="698" y="-628.6" font-family="Helvetica,sans-Serif" font-size="8.00">::async_no_sock_low_lvl</text>
<text text-anchor="middle" x="747" y="-619.6" font-family="Helvetica,sans-Serif" font-size="8.00">_packet_send</text>
</a>
</g>
</g>
<!-- Node2&#45;&gt;Node3 -->
<g id="edge2" class="edge">
<title>Node2&#45;&gt;Node3</title>
<path fill="none" stroke="midnightblue" d="M1036.02,-521.66C968.77,-547.07 857.19,-589.24 794.48,-612.93"/>
<polygon fill="midnightblue" stroke="midnightblue" points="1037.49,-524.84 1045.61,-518.03 1035.02,-518.29 1037.49,-524.84"/>
</g>
<!-- Node12 -->
<g id="node7" class="node">
<title>Node12</title>
<g id="a_node7"><a xlink:href="classflow_1_1net__flow_1_1Node.html#a0db2bb587e0407077b11368df075f0ff" target="_top" xlink:title="async_low_lvl_packet_send_impl() wrapper to call when packet is to be sent to the remote side of the ...">
<polygon fill="white" stroke="black" points="879,-483 879,-518 980,-518 980,-483 879,-483"/>
<text text-anchor="start" x="887" y="-507.6" font-family="Helvetica,sans-Serif" font-size="8.00">flow::net_flow::Node</text>
<text text-anchor="start" x="887" y="-498.6" font-family="Helvetica,sans-Serif" font-size="8.00">::async_sock_low_lvl</text>
<text text-anchor="middle" x="929.5" y="-489.6" font-family="Helvetica,sans-Serif" font-size="8.00">_packet_send</text>
</a>
</g>
</g>
<!-- Node2&#45;&gt;Node12 -->
<g id="edge7" class="edge">
<title>Node2&#45;&gt;Node12</title>
<path fill="none" stroke="midnightblue" d="M1027.95,-500.5C1012.07,-500.5 995.3,-500.5 980.22,-500.5"/>
<polygon fill="midnightblue" stroke="midnightblue" points="1028.22,-504 1038.22,-500.5 1028.22,-497 1028.22,-504"/>
</g>
<!-- Node4 -->
<g id="node4" class="node">
<title>Node4</title>
<g id="a_node4"><a xlink:href="classflow_1_1net__flow_1_1Node.html#a74a6a82a1390a76e985593969fb47184" target="_top" xlink:title="Sends an RST to the given UDP endpoint in response to the given incoming low&#45;level packet that came f...">
<polygon fill="white" stroke="black" points="329,-663 329,-698 443,-698 443,-663 329,-663"/>
<text text-anchor="start" x="337" y="-687.6" font-family="Helvetica,sans-Serif" font-size="8.00">flow::net_flow::Node</text>
<text text-anchor="start" x="337" y="-678.6" font-family="Helvetica,sans-Serif" font-size="8.00">::async_no_sock_low_lvl</text>
<text text-anchor="middle" x="386" y="-669.6" font-family="Helvetica,sans-Serif" font-size="8.00">_rst_send</text>
</a>
</g>
</g>
<!-- Node3&#45;&gt;Node4 -->
<g id="edge3" class="edge">
<title>Node3&#45;&gt;Node4</title>
<path fill="none" stroke="midnightblue" d="M679.75,-639.73C611.83,-649.19 507.34,-663.74 443.29,-672.66"/>
<polygon fill="midnightblue" stroke="midnightblue" points="680.48,-643.16 689.91,-638.31 679.52,-636.23 680.48,-643.16"/>
</g>
<!-- Node4&#45;&gt;Node5 -->
<g id="edge4" class="edge">
<title>Node4&#45;&gt;Node5</title>
<path fill="none" stroke="midnightblue" d="M332.96,-701.38C286.78,-716.59 218.39,-730.82 164,-707.5 120.24,-688.74 86.67,-640.08 72.44,-616.58"/>
<polygon fill="midnightblue" stroke="midnightblue" points="334.13,-704.68 342.46,-698.13 331.87,-698.05 334.13,-704.68"/>
</g>
<!-- Node11 -->
<g id="node6" class="node">
<title>Node11</title>
<g id="a_node6"><a xlink:href="classflow_1_1net__flow_1_1Node.html#aaaf5c3b5e6b9f9f1658b60907b36a498" target="_top" xlink:title="Handles a just&#45;deserialized, just&#45;demultiplexed low&#45;level SYN packet delivered to the given server so...">
<polygon fill="white" stroke="black" points="168.5,-663 168.5,-698 288.5,-698 288.5,-663 168.5,-663"/>
<text text-anchor="start" x="176.5" y="-687.6" font-family="Helvetica,sans-Serif" font-size="8.00">flow::net_flow::Node</text>
<text text-anchor="start" x="176.5" y="-678.6" font-family="Helvetica,sans-Serif" font-size="8.00">::handle_syn_to_listening</text>
<text text-anchor="middle" x="228.5" y="-669.6" font-family="Helvetica,sans-Serif" font-size="8.00">_server</text>
</a>
</g>
</g>
<!-- Node4&#45;&gt;Node11 -->
<g id="edge5" class="edge">
<title>Node4&#45;&gt;Node11</title>
<path fill="none" stroke="midnightblue" d="M318.62,-680.5C308.68,-680.5 298.48,-680.5 288.7,-680.5"/>
<polygon fill="midnightblue" stroke="midnightblue" points="318.86,-684 328.86,-680.5 318.86,-677 318.86,-684"/>
</g>
<!-- Node11&#45;&gt;Node5 -->
<g id="edge6" class="edge">
<title>Node11&#45;&gt;Node5</title>
<path fill="none" stroke="midnightblue" d="M175.7,-658.81C171.72,-657.04 167.79,-655.26 164,-653.5 138.5,-641.66 109.89,-627.06 90.01,-616.7"/>
<polygon fill="midnightblue" stroke="midnightblue" points="174.41,-662.06 184.97,-662.87 177.22,-655.65 174.41,-662.06"/>
</g>
<!-- Node13 -->
<g id="node8" class="node">
<title>Node13</title>
<g id="a_node8"><a xlink:href="classflow_1_1net__flow_1_1Node.html#af1c4623729d0a061200a386f7a651926" target="_top" xlink:title="Begins the process of asynchronously sending the given low&#45;level packet to the remote Node specified ...">
<polygon fill="white" stroke="black" points="335.5,-509 335.5,-544 436.5,-544 436.5,-509 335.5,-509"/>
<text text-anchor="start" x="343.5" y="-533.6" font-family="Helvetica,sans-Serif" font-size="8.00">flow::net_flow::Node</text>
<text text-anchor="start" x="343.5" y="-524.6" font-family="Helvetica,sans-Serif" font-size="8.00">::async_sock_low_lvl</text>
<text text-anchor="middle" x="386" y="-515.6" font-family="Helvetica,sans-Serif" font-size="8.00">_packet_send_paced</text>
</a>
</g>
</g>
<!-- Node12&#45;&gt;Node13 -->
<g id="edge8" class="edge">
<title>Node12&#45;&gt;Node13</title>
<path fill="none" stroke="midnightblue" d="M868.52,-508.42C854.89,-509.99 840.46,-511.47 827,-512.5 685.64,-523.36 518.12,-525.83 436.57,-526.37"/>
<polygon fill="midnightblue" stroke="midnightblue" points="869.24,-511.86 878.76,-507.21 868.42,-504.9 869.24,-511.86"/>
</g>
<!-- Node43 -->
<g id="node16" class="node">
<title>Node43</title>
<g id="a_node16"><a xlink:href="classflow_1_1net__flow_1_1Node.html#a0556af278dc07a43f109fbd74ac64d5e" target="_top" xlink:title="async_sock_low_lvl_packet_send_paced() pacing helper: Handles a DATA or ACK packet that was just pass...">
<polygon fill="white" stroke="black" points="479,-483.5 479,-509.5 631,-509.5 631,-483.5 479,-483.5"/>
<text text-anchor="start" x="487" y="-499.1" font-family="Helvetica,sans-Serif" font-size="8.00">flow::net_flow::Node</text>
<text text-anchor="middle" x="555" y="-490.1" font-family="Helvetica,sans-Serif" font-size="8.00">::sock_pacing_new_packet_ready</text>
</a>
</g>
</g>
<!-- Node12&#45;&gt;Node43 -->
<g id="edge19" class="edge">
<title>Node12&#45;&gt;Node43</title>
<path fill="none" stroke="midnightblue" d="M868.63,-499.86C804.11,-499.16 701.29,-498.06 631.32,-497.31"/>
<polygon fill="midnightblue" stroke="midnightblue" points="868.61,-503.36 878.65,-499.96 868.69,-496.36 868.61,-503.36"/>
</g>
<!-- Node44 -->
<g id="node17" class="node">
<title>Node44</title>
<g id="a_node17"><a xlink:href="classflow_1_1net__flow_1_1Node.html#a73cfaa8e5ed7fe845f759a30423a9cbf" target="_top" xlink:title="async_sock_low_lvl_packet_send_paced() pacing helper: Given that we are currently in the pacing time ...">
<polygon fill="white" stroke="black" points="688,-445.5 688,-471.5 806,-471.5 806,-445.5 688,-445.5"/>
<text text-anchor="start" x="696" y="-461.1" font-family="Helvetica,sans-Serif" font-size="8.00">flow::net_flow::Node</text>
<text text-anchor="middle" x="747" y="-452.1" font-family="Helvetica,sans-Serif" font-size="8.00">::sock_pacing_process_q</text>
</a>
</g>
</g>
<!-- Node12&#45;&gt;Node44 -->
<g id="edge21" class="edge">
<title>Node12&#45;&gt;Node44</title>
<path fill="none" stroke="midnightblue" d="M868.68,-486.58C847.83,-481.73 824.53,-476.31 804,-471.53"/>
<polygon fill="midnightblue" stroke="midnightblue" points="868.17,-490.05 878.7,-488.91 869.75,-483.24 868.17,-490.05"/>
</g>
<!-- Node13&#45;&gt;Node11 -->
<g id="edge17" class="edge">
<title>Node13&#45;&gt;Node11</title>
<path fill="none" stroke="midnightblue" d="M371.54,-552.92C355.99,-581.15 328,-625.6 293,-653.5 288.6,-657.01 283.67,-660.14 278.56,-662.91"/>
<polygon fill="midnightblue" stroke="midnightblue" points="374.68,-554.48 376.33,-544.02 368.51,-551.17 374.68,-554.48"/>
</g>
<!-- Node14 -->
<g id="node9" class="node">
<title>Node14</title>
<g id="a_node9"><a xlink:href="classflow_1_1net__flow_1_1Node.html#a11b11abade3b70f242dbb61cddb34ad1" target="_top" xlink:title="Sends a low&#45;level ACK packet, with all accumulated in Peer_socket::m_rcv_pending_acks of sock individ...">
<polygon fill="white" stroke="black" points="169,-346.5 169,-372.5 288,-372.5 288,-346.5 169,-346.5"/>
<text text-anchor="start" x="177" y="-362.1" font-family="Helvetica,sans-Serif" font-size="8.00">flow::net_flow::Node</text>
<text text-anchor="middle" x="228.5" y="-353.1" font-family="Helvetica,sans-Serif" font-size="8.00">::async_low_lvl_ack_send</text>
</a>
</g>
</g>
<!-- Node13&#45;&gt;Node14 -->
<g id="edge9" class="edge">
<title>Node13&#45;&gt;Node14</title>
<path fill="none" stroke="midnightblue" d="M374.25,-499.55C360.15,-467.41 332.46,-414.08 293,-382.5 288.15,-378.62 282.58,-375.36 276.81,-372.63"/>
<polygon fill="midnightblue" stroke="midnightblue" points="371.05,-500.97 378.19,-508.79 377.49,-498.22 371.05,-500.97"/>
</g>
<!-- Node15 -->
<g id="node10" class="node">
<title>Node15</title>
<g id="a_node10"><a xlink:href="classflow_1_1net__flow_1_1Node.html#ae330d0f98ad34cb442d2bb251bdae460" target="_top" xlink:title="Helper to create, fully fill out, and asynchronously send via async_sock_low_lvl_packet_send_paced() ...">
<polygon fill="white" stroke="black" points="172,-455 172,-490 285,-490 285,-455 172,-455"/>
<text text-anchor="start" x="180" y="-479.6" font-family="Helvetica,sans-Serif" font-size="8.00">flow::net_flow::Node</text>
<text text-anchor="start" x="180" y="-470.6" font-family="Helvetica,sans-Serif" font-size="8.00">::async_low_lvl_syn_ack</text>
<text text-anchor="middle" x="228.5" y="-461.6" font-family="Helvetica,sans-Serif" font-size="8.00">_ack_send</text>
</a>
</g>
</g>
<!-- Node13&#45;&gt;Node15 -->
<g id="edge10" class="edge">
<title>Node13&#45;&gt;Node15</title>
<path fill="none" stroke="midnightblue" d="M325.64,-505.89C310.59,-500.66 294.56,-495.09 279.99,-490.03"/>
<polygon fill="midnightblue" stroke="midnightblue" points="324.78,-509.29 335.37,-509.27 327.07,-502.68 324.78,-509.29"/>
</g>
<!-- Node16 -->
<g id="node11" class="node">
<title>Node16</title>
<g id="a_node11"><a xlink:href="classflow_1_1net__flow_1_1Node.html#a192d4b95b9f8a5c3d08b1e5486eb6f78" target="_top" xlink:title="receive_wnd_updated() helper that continues rcv_wnd recovery: that is, sends unsolicited ACK with a r...">
<polygon fill="white" stroke="red" points="167.5,-391.5 167.5,-417.5 289.5,-417.5 289.5,-391.5 167.5,-391.5"/>
<text text-anchor="start" x="175.5" y="-407.1" font-family="Helvetica,sans-Serif" font-size="8.00">flow::net_flow::Node</text>
<text text-anchor="middle" x="228.5" y="-398.1" font-family="Helvetica,sans-Serif" font-size="8.00">::async_rcv_wnd_recovery</text>
</a>
</g>
</g>
<!-- Node13&#45;&gt;Node16 -->
<g id="edge11" class="edge">
<title>Node13&#45;&gt;Node16</title>
<path fill="none" stroke="midnightblue" d="M358.92,-501.67C340.97,-485.05 316.25,-463.09 293,-445.5 279.71,-435.45 263.98,-425.28 251.5,-417.58"/>
<polygon fill="midnightblue" stroke="midnightblue" points="356.97,-504.63 366.66,-508.9 361.74,-499.51 356.97,-504.63"/>
</g>
<!-- Node26 -->
<g id="node12" class="node">
<title>Node26</title>
<g id="a_node12"><a xlink:href="classflow_1_1net__flow_1_1Node.html#ad03aa88df3d1d3981454ee3356e868c1" target="_top" xlink:title="Sends an RST to the other side of the given socket asynchronously when possible.">
<polygon fill="white" stroke="black" points="178,-509 178,-544 279,-544 279,-509 178,-509"/>
<text text-anchor="start" x="186" y="-533.6" font-family="Helvetica,sans-Serif" font-size="8.00">flow::net_flow::Node</text>
<text text-anchor="start" x="186" y="-524.6" font-family="Helvetica,sans-Serif" font-size="8.00">::async_sock_low_lvl</text>
<text text-anchor="middle" x="228.5" y="-515.6" font-family="Helvetica,sans-Serif" font-size="8.00">_rst_send</text>
</a>
</g>
</g>
<!-- Node13&#45;&gt;Node26 -->
<g id="edge13" class="edge">
<title>Node13&#45;&gt;Node26</title>
<path fill="none" stroke="midnightblue" d="M325.06,-526.5C309.9,-526.5 293.78,-526.5 279.19,-526.5"/>
<polygon fill="midnightblue" stroke="midnightblue" points="325.37,-530 335.37,-526.5 325.37,-523 325.37,-530"/>
</g>
<!-- Node32 -->
<g id="node14" class="node">
<title>Node32</title>
<g id="a_node14"><a xlink:href="classflow_1_1net__flow_1_1Node.html#addd654cb6b1ccff34ddccbe5226be8f0" target="_top" xlink:title="Handles the triggering of the retransmit timer wait set up by setup_connection_timers(); it will re&#45;s...">
<polygon fill="white" stroke="black" points="164,-609 164,-644 293,-644 293,-609 164,-609"/>
<text text-anchor="start" x="172" y="-633.6" font-family="Helvetica,sans-Serif" font-size="8.00">flow::net_flow::Node</text>
<text text-anchor="start" x="172" y="-624.6" font-family="Helvetica,sans-Serif" font-size="8.00">::handle_connection_rexmit</text>
<text text-anchor="middle" x="228.5" y="-615.6" font-family="Helvetica,sans-Serif" font-size="8.00">_timer_event</text>
</a>
</g>
</g>
<!-- Node13&#45;&gt;Node32 -->
<g id="edge16" class="edge">
<title>Node13&#45;&gt;Node32</title>
<path fill="none" stroke="midnightblue" d="M358.4,-550.78C340.74,-566.07 316.56,-585.49 293,-599.5 287.34,-602.87 281.18,-606.03 274.99,-608.93"/>
<polygon fill="midnightblue" stroke="midnightblue" points="360.82,-553.31 366.02,-544.08 356.2,-548.05 360.82,-553.31"/>
</g>
<!-- Node33 -->
<g id="node15" class="node">
<title>Node33</title>
<g id="a_node15"><a xlink:href="classflow_1_1net__flow_1_1Node.html#a10a92f11a2c9f218cdd9a55f282e79b1" target="_top" xlink:title="Thread W implemention of send(): synchronously or asynchronously send the contents of sock&#45;&gt;m_snd_buf...">
<polygon fill="white" stroke="red" points="178,-563.5 178,-589.5 279,-589.5 279,-563.5 178,-563.5"/>
<text text-anchor="start" x="186" y="-579.1" font-family="Helvetica,sans-Serif" font-size="8.00">flow::net_flow::Node</text>
<text text-anchor="middle" x="228.5" y="-570.1" font-family="Helvetica,sans-Serif" font-size="8.00">::send_worker</text>
</a>
</g>
</g>
<!-- Node13&#45;&gt;Node33 -->
<g id="edge18" class="edge">
<title>Node13&#45;&gt;Node33</title>
<path fill="none" stroke="midnightblue" d="M325.8,-545.53C307.2,-551.52 287.09,-557.98 270.09,-563.45"/>
<polygon fill="midnightblue" stroke="midnightblue" points="326.92,-548.85 335.37,-542.46 324.78,-542.19 326.92,-548.85"/>
</g>
<!-- Node16&#45;&gt;Node16 -->
<g id="edge12" class="edge">
<title>Node16&#45;&gt;Node16</title>
<path fill="none" stroke="midnightblue" d="M256.58,-427.94C253.46,-432.64 244.1,-436 228.5,-436 202.91,-436 194.11,-426.96 202.11,-417.77"/>
<polygon fill="midnightblue" stroke="midnightblue" points="259.98,-427.06 254.89,-417.77 253.07,-428.21 259.98,-427.06"/>
</g>
<!-- Node26&#45;&gt;Node5 -->
<g id="edge14" class="edge">
<title>Node26&#45;&gt;Node5</title>
<path fill="none" stroke="midnightblue" d="M177.62,-548.24C173,-550.33 168.41,-552.44 164,-554.5 138.81,-566.28 110.4,-580.44 90.49,-590.5"/>
<polygon fill="midnightblue" stroke="midnightblue" points="179.38,-551.29 187.07,-544.01 176.51,-544.91 179.38,-551.29"/>
</g>
<!-- Node27 -->
<g id="node13" class="node">
<title>Node27</title>
<g id="a_node13"><a xlink:href="classflow_1_1net__flow_1_1Node.html#afe70a0c32695e417e7a09e0ba773f151" target="_top" xlink:title="Asynchronously send RST to the other side of the given socket and close_connection_immediately().">
<polygon fill="white" stroke="red" points="0,-419 0,-454 128,-454 128,-419 0,-419"/>
<text text-anchor="start" x="8" y="-443.6" font-family="Helvetica,sans-Serif" font-size="8.00">flow::net_flow::Node</text>
<text text-anchor="start" x="8" y="-434.6" font-family="Helvetica,sans-Serif" font-size="8.00">::rst_and_close_connection</text>
<text text-anchor="middle" x="64" y="-425.6" font-family="Helvetica,sans-Serif" font-size="8.00">_immediately</text>
</a>
</g>
</g>
<!-- Node26&#45;&gt;Node27 -->
<g id="edge15" class="edge">
<title>Node26&#45;&gt;Node27</title>
<path fill="none" stroke="midnightblue" d="M174.3,-504.65C170.78,-502.97 167.32,-501.25 164,-499.5 137.86,-485.74 109.57,-467.36 89.95,-454"/>
<polygon fill="midnightblue" stroke="midnightblue" points="173.13,-507.97 183.68,-508.99 176.07,-501.62 173.13,-507.97"/>
</g>
<!-- Node43&#45;&gt;Node13 -->
<g id="edge20" class="edge">
<title>Node43&#45;&gt;Node13</title>
<path fill="none" stroke="midnightblue" d="M471.38,-511.34C459.62,-513.45 447.84,-515.57 436.97,-517.52"/>
<polygon fill="midnightblue" stroke="midnightblue" points="472.01,-514.78 481.24,-509.57 470.78,-507.89 472.01,-514.78"/>
</g>
<!-- Node44&#45;&gt;Node43 -->
<g id="edge22" class="edge">
<title>Node44&#45;&gt;Node43</title>
<path fill="none" stroke="midnightblue" d="M678.15,-472.07C659.66,-475.77 639.67,-479.77 621.32,-483.44"/>
<polygon fill="midnightblue" stroke="midnightblue" points="678.84,-475.5 687.96,-470.11 677.47,-468.64 678.84,-475.5"/>
</g>
<!-- Node45 -->
<g id="node18" class="node">
<title>Node45</title>
<g id="a_node18"><a xlink:href="classflow_1_1net__flow_1_1Node.html#a3fd57a0d025a78cbeccfd8a15a983575" target="_top" xlink:title="async_sock_low_lvl_packet_send_paced() pacing helper: If sock_pacing_process_q() ran out of the last ...">
<polygon fill="white" stroke="black" points="486.5,-438.5 486.5,-464.5 623.5,-464.5 623.5,-438.5 486.5,-438.5"/>
<text text-anchor="start" x="494.5" y="-454.1" font-family="Helvetica,sans-Serif" font-size="8.00">flow::net_flow::Node</text>
<text text-anchor="middle" x="555" y="-445.1" font-family="Helvetica,sans-Serif" font-size="8.00">::sock_pacing_time_slice_end</text>
</a>
</g>
</g>
<!-- Node44&#45;&gt;Node45 -->
<g id="edge23" class="edge">
<title>Node44&#45;&gt;Node45</title>
<path fill="none" stroke="midnightblue" d="M677.78,-449.48C660.18,-448.5 641.25,-447.81 623.68,-447.5"/>
<polygon fill="midnightblue" stroke="midnightblue" points="677.77,-452.99 687.96,-450.09 678.19,-446 677.77,-452.99"/>
</g>
<!-- Node45&#45;&gt;Node44 -->
<g id="edge24" class="edge">
<title>Node45&#45;&gt;Node44</title>
<path fill="none" stroke="midnightblue" d="M633.91,-461.02C651.98,-461.9 670.91,-462.47 687.96,-462.64"/>
<polygon fill="midnightblue" stroke="midnightblue" points="633.85,-457.51 623.68,-460.49 633.49,-464.51 633.85,-457.51"/>
</g>
<!-- Node47 -->
<g id="node20" class="node">
<title>Node47</title>
<g id="a_node20"><a xlink:href="classflow_1_1net__flow_1_1Node.html#a9fabe79fbd1888fc7aa9eb25281e7b16" target="_top" xlink:title="Sets up a server on the given local Flow port and returns Server_socket which can be used to accept s...">
<polygon fill="white" stroke="black" points="879,-65.5 879,-91.5 980,-91.5 980,-65.5 879,-65.5"/>
<text text-anchor="start" x="887" y="-81.1" font-family="Helvetica,sans-Serif" font-size="8.00">flow::net_flow::Node</text>
<text text-anchor="middle" x="929.5" y="-72.1" font-family="Helvetica,sans-Serif" font-size="8.00">::listen</text>
</a>
</g>
</g>
<!-- Node46&#45;&gt;Node47 -->
<g id="edge27" class="edge">
<title>Node46&#45;&gt;Node47</title>
<path fill="none" stroke="midnightblue" d="M1032.3,-94.26C1015.13,-91.6 996.6,-88.73 980.11,-86.18"/>
<polygon fill="midnightblue" stroke="midnightblue" points="1031.81,-97.72 1042.23,-95.8 1032.88,-90.81 1031.81,-97.72"/>
</g>
<!-- Node47&#45;&gt;Node47 -->
<g id="edge28" class="edge">
<title>Node47&#45;&gt;Node47</title>
<path fill="none" stroke="midnightblue" d="M958.89,-101.58C955.91,-106.47 946.11,-110 929.5,-110 902.92,-110 893.79,-100.96 902.09,-91.77"/>
<polygon fill="midnightblue" stroke="midnightblue" points="962.32,-100.88 956.91,-91.77 955.46,-102.27 962.32,-100.88"/>
</g>
<!-- Node48&#45;&gt;Node5 -->
<g id="edge32" class="edge">
<title>Node48&#45;&gt;Node5</title>
<path fill="none" stroke="midnightblue" d="M340.29,-351.92C321.8,-345.38 302.49,-339.06 293,-337.5 236.42,-328.22 209.77,-302.97 164,-337.5 117.5,-372.57 148,-408.8 128,-463.5 110.52,-511.31 84.05,-565.71 71.74,-590.25"/>
<polygon fill="midnightblue" stroke="midnightblue" points="339.23,-355.26 349.82,-355.33 341.59,-348.67 339.23,-355.26"/>
</g>
<!-- Node48&#45;&gt;Node14 -->
<g id="edge31" class="edge">
<title>Node48&#45;&gt;Node14</title>
<path fill="none" stroke="midnightblue" d="M325.31,-365.05C313.12,-364.34 300.31,-363.6 288.16,-362.89"/>
<polygon fill="midnightblue" stroke="midnightblue" points="325.19,-368.54 335.37,-365.63 325.59,-361.56 325.19,-368.54"/>
</g>
<!-- Node50 -->
<g id="node24" class="node">
<title>Node50</title>
<g id="a_node24"><a xlink:href="classflow_1_1net__flow_1_1Node.html#ab611a089d1fd436a1142055d9741508b" target="_top" xlink:title="Constructs Node.">
<polygon fill="white" stroke="black" points="879,-0.5 879,-26.5 980,-26.5 980,-0.5 879,-0.5"/>
<text text-anchor="start" x="887" y="-16.1" font-family="Helvetica,sans-Serif" font-size="8.00">flow::net_flow::Node</text>
<text text-anchor="middle" x="929.5" y="-7.1" font-family="Helvetica,sans-Serif" font-size="8.00">::Node</text>
</a>
</g>
</g>
<!-- Node49&#45;&gt;Node50 -->
<g id="edge34" class="edge">
<title>Node49&#45;&gt;Node50</title>
<path fill="none" stroke="midnightblue" d="M1031.82,-13.5C1014.79,-13.5 996.44,-13.5 980.11,-13.5"/>
<polygon fill="midnightblue" stroke="midnightblue" points="1032.23,-17 1042.23,-13.5 1032.23,-10 1032.23,-17"/>
</g>
<!-- Node52 -->
<g id="node26" class="node">
<title>Node52</title>
<g id="a_node26"><a xlink:href="classflow_1_1net__flow_1_1Node.html#ade49e7bc7202a0adf33fec2d93d1b177" target="_top" xlink:title="A thread W method that handles the transition of the given socket from OPEN (any sub&#45;state) to CLOSED...">
<polygon fill="white" stroke="black" points="673,-316.5 673,-342.5 821,-342.5 821,-316.5 673,-316.5"/>
<text text-anchor="start" x="681" y="-332.1" font-family="Helvetica,sans-Serif" font-size="8.00">flow::net_flow::Node</text>
<text text-anchor="middle" x="747" y="-323.1" font-family="Helvetica,sans-Serif" font-size="8.00">::close_connection_immediately</text>
</a>
</g>
</g>
<!-- Node51&#45;&gt;Node52 -->
<g id="edge36" class="edge">
<title>Node51&#45;&gt;Node52</title>
<path fill="none" stroke="midnightblue" d="M1060.08,-266.37C1041.83,-275.83 1018.22,-286.84 996,-293.5 938.59,-310.71 871.16,-319.82 821.11,-324.57"/>
<polygon fill="midnightblue" stroke="midnightblue" points="1061.89,-269.37 1069.09,-261.59 1058.62,-263.18 1061.89,-269.37"/>
</g>
<!-- Node54 -->
<g id="node30" class="node">
<title>Node54</title>
<g id="a_node30"><a xlink:href="classflow_1_1net__flow_1_1Node.html#a07ad769737db60dd637365010b80f4f3" target="_top" xlink:title="Implementation of sock&#45;&gt;info() for socket sock in all cases except when sock&#45;&gt;state() == Peer_socket:...">
<polygon fill="white" stroke="black" points="879,-212.5 879,-238.5 980,-238.5 980,-212.5 879,-212.5"/>
<text text-anchor="start" x="887" y="-228.1" font-family="Helvetica,sans-Serif" font-size="8.00">flow::net_flow::Node</text>
<text text-anchor="middle" x="929.5" y="-219.1" font-family="Helvetica,sans-Serif" font-size="8.00">::sock_info</text>
</a>
</g>
</g>
<!-- Node51&#45;&gt;Node54 -->
<g id="edge42" class="edge">
<title>Node51&#45;&gt;Node54</title>
<path fill="none" stroke="midnightblue" d="M1027.57,-239.32C1011.81,-237.08 995.18,-234.71 980.23,-232.58"/>
<polygon fill="midnightblue" stroke="midnightblue" points="1027.38,-242.83 1037.77,-240.78 1028.37,-235.9 1027.38,-242.83"/>
</g>
<!-- Node56 -->
<g id="node32" class="node">
<title>Node56</title>
<g id="a_node32"><a xlink:href="classflow_1_1net__flow_1_1Node.html#a755c329b9e0f2b8edb2e5b900bd2a337" target="_top" xlink:title="Logs a verbose state report for the given socket.">
<polygon fill="white" stroke="black" points="879,-257.5 879,-283.5 980,-283.5 980,-257.5 879,-257.5"/>
<text text-anchor="start" x="887" y="-273.1" font-family="Helvetica,sans-Serif" font-size="8.00">flow::net_flow::Node</text>
<text text-anchor="middle" x="929.5" y="-264.1" font-family="Helvetica,sans-Serif" font-size="8.00">::sock_log_detail</text>
</a>
</g>
</g>
<!-- Node51&#45;&gt;Node56 -->
<g id="edge44" class="edge">
<title>Node51&#45;&gt;Node56</title>
<path fill="none" stroke="midnightblue" d="M1027.57,-257.28C1011.81,-259.42 995.18,-261.69 980.23,-263.73"/>
<polygon fill="midnightblue" stroke="midnightblue" points="1028.34,-260.7 1037.77,-255.89 1027.39,-253.77 1028.34,-260.7"/>
</g>
<!-- Node52&#45;&gt;Node5 -->
<g id="edge37" class="edge">
<title>Node52&#45;&gt;Node5</title>
<path fill="none" stroke="midnightblue" d="M688.79,-313.73C661.56,-306.29 634.19,-298.92 631,-298.5 528.05,-284.87 242.86,-247.93 164,-315.5 112.59,-359.55 149.98,-399.47 128,-463.5 111.47,-511.65 84.54,-565.88 71.92,-590.32"/>
<polygon fill="midnightblue" stroke="midnightblue" points="688.2,-317.2 698.77,-316.47 690.05,-310.45 688.2,-317.2"/>
</g>
<!-- Node52&#45;&gt;Node27 -->
<g id="edge40" class="edge">
<title>Node52&#45;&gt;Node27</title>
<path fill="none" stroke="midnightblue" d="M675.66,-312.37C672.67,-310.88 669.76,-309.26 667,-307.5 646.26,-294.3 653.34,-275.77 631,-265.5 536.72,-222.14 253.91,-213.66 164,-265.5 105.45,-299.25 78.39,-382.32 69.02,-418.82"/>
<polygon fill="midnightblue" stroke="midnightblue" points="674.33,-315.61 684.89,-316.48 677.17,-309.21 674.33,-315.61"/>
</g>
<!-- Node53 -->
<g id="node27" class="node">
<title>Node53</title>
<g id="a_node27"><a xlink:href="classflow_1_1net__flow_1_1Node.html#ad608f9bbe76426f4fbf4bf5af908e4e0" target="_top" xlink:title="Placed by receive() onto W during a graceful close, after the Receive buffer had been emptied by the ...">
<polygon fill="white" stroke="black" points="494.5,-308 494.5,-343 615.5,-343 615.5,-308 494.5,-308"/>
<text text-anchor="start" x="502.5" y="-332.6" font-family="Helvetica,sans-Serif" font-size="8.00">flow::net_flow::Node</text>
<text text-anchor="start" x="502.5" y="-323.6" font-family="Helvetica,sans-Serif" font-size="8.00">::receive_emptied_rcv</text>
<text text-anchor="middle" x="555" y="-314.6" font-family="Helvetica,sans-Serif" font-size="8.00">_buf_while_disconnecting</text>
</a>
</g>
</g>
<!-- Node52&#45;&gt;Node53 -->
<g id="edge38" class="edge">
<title>Node52&#45;&gt;Node53</title>
<path fill="none" stroke="midnightblue" d="M662.51,-327.74C646.72,-327.41 630.49,-327.07 615.61,-326.76"/>
<polygon fill="midnightblue" stroke="midnightblue" points="662.74,-331.25 672.81,-327.96 662.89,-324.25 662.74,-331.25"/>
</g>
<!-- Node52&#45;&gt;Node10 -->
<g id="edge41" class="edge">
<title>Node52&#45;&gt;Node10</title>
<path fill="none" stroke="midnightblue" d="M671.82,-311.23C670.15,-310.07 668.54,-308.82 667,-307.5 637.43,-282.09 657.93,-255.7 631,-227.5 620.72,-216.73 606.72,-208.51 593.61,-202.52"/>
<polygon fill="midnightblue" stroke="midnightblue" points="670.25,-314.37 680.63,-316.48 673.83,-308.36 670.25,-314.37"/>
</g>
<!-- Node18 -->
<g id="node28" class="node">
<title>Node18</title>
<g id="a_node28"><a xlink:href="classflow_1_1net__flow_1_1Node.html#addbb96858fd7b3c9ddd7c6fe8078809c" target="_top" xlink:title="Implementation of non&#45;blocking sock&#45;&gt;receive() for socket sock in all cases except when sock&#45;&gt;state()...">
<polygon fill="white" stroke="red" points="335.5,-310.5 335.5,-336.5 436.5,-336.5 436.5,-310.5 335.5,-310.5"/>
<text text-anchor="start" x="343.5" y="-326.1" font-family="Helvetica,sans-Serif" font-size="8.00">flow::net_flow::Node</text>
<text text-anchor="middle" x="386" y="-317.1" font-family="Helvetica,sans-Serif" font-size="8.00">::receive</text>
</a>
</g>
</g>
<!-- Node53&#45;&gt;Node18 -->
<g id="edge39" class="edge">
<title>Node53&#45;&gt;Node18</title>
<path fill="none" stroke="midnightblue" d="M483.84,-324.66C467.93,-324.47 451.35,-324.27 436.5,-324.09"/>
<polygon fill="midnightblue" stroke="midnightblue" points="484.14,-328.16 494.18,-324.78 484.22,-321.16 484.14,-328.16"/>
</g>
<!-- Node55 -->
<g id="node31" class="node">
<title>Node55</title>
<g id="a_node31"><a xlink:href="classflow_1_1net__flow_1_1Peer__socket.html#aad81cc16fc6f0d353fdc1379e1dd4712" target="_top" xlink:title="Returns a structure containing the most up&#45;to&#45;date stats about this connection.">
<polygon fill="white" stroke="black" points="698.5,-208.5 698.5,-234.5 795.5,-234.5 795.5,-208.5 698.5,-208.5"/>
<text text-anchor="start" x="706.5" y="-224.1" font-family="Helvetica,sans-Serif" font-size="8.00">flow::net_flow::Peer</text>
<text text-anchor="middle" x="747" y="-215.1" font-family="Helvetica,sans-Serif" font-size="8.00">_socket::info</text>
</a>
</g>
</g>
<!-- Node54&#45;&gt;Node55 -->
<g id="edge43" class="edge">
<title>Node54&#45;&gt;Node55</title>
<path fill="none" stroke="midnightblue" d="M868.44,-224.17C844.8,-223.65 818.05,-223.05 795.77,-222.56"/>
<polygon fill="midnightblue" stroke="midnightblue" points="868.62,-227.67 878.7,-224.4 868.78,-220.68 868.62,-227.67"/>
</g>
<!-- Node56&#45;&gt;Node52 -->
<g id="edge45" class="edge">
<title>Node56&#45;&gt;Node52</title>
<path fill="none" stroke="midnightblue" d="M884.87,-287.25C867.04,-293.87 846.14,-301.36 827,-307.5 817.38,-310.59 807.01,-313.66 797.06,-316.48"/>
<polygon fill="midnightblue" stroke="midnightblue" points="886.29,-290.45 894.43,-283.67 883.84,-283.9 886.29,-290.45"/>
</g>
<!-- Node57 -->
<g id="node33" class="node">
<title>Node57</title>
<g id="a_node33"><a xlink:href="classflow_1_1net__flow_1_1Node.html#aee8466d9c810da5edea443d665b24dcb" target="_top" xlink:title="Performs low&#45;priority tasks that should be run on an infrequent, regular basis, such as stat logging ...">
<polygon fill="white" stroke="black" points="667,-253.5 667,-279.5 827,-279.5 827,-253.5 667,-253.5"/>
<text text-anchor="start" x="675" y="-269.1" font-family="Helvetica,sans-Serif" font-size="8.00">flow::net_flow::Node</text>
<text text-anchor="middle" x="747" y="-260.1" font-family="Helvetica,sans-Serif" font-size="8.00">::perform_regular_infrequent_tasks</text>
</a>
</g>
</g>
<!-- Node56&#45;&gt;Node57 -->
<g id="edge46" class="edge">
<title>Node56&#45;&gt;Node57</title>
<path fill="none" stroke="midnightblue" d="M868.34,-269.17C855.13,-268.87 840.94,-268.56 827.11,-268.25"/>
<polygon fill="midnightblue" stroke="midnightblue" points="868.62,-272.67 878.7,-269.4 868.78,-265.68 868.62,-272.67"/>
</g>
<!-- Node57&#45;&gt;Node10 -->
<g id="edge48" class="edge">
<title>Node57&#45;&gt;Node10</title>
<path fill="none" stroke="midnightblue" d="M683.96,-250.43C678.18,-248.57 672.45,-246.59 667,-244.5 658.41,-241.21 611.77,-217.78 581.75,-202.58"/>
<polygon fill="midnightblue" stroke="midnightblue" points="683.11,-253.83 693.7,-253.44 685.18,-247.14 683.11,-253.83"/>
</g>
<!-- Node57&#45;&gt;Node57 -->
<g id="edge47" class="edge">
<title>Node57&#45;&gt;Node57</title>
<path fill="none" stroke="midnightblue" d="M780.02,-289.58C776.67,-294.47 765.66,-298 747,-298 717.14,-298 706.88,-288.96 716.21,-279.77"/>
<polygon fill="midnightblue" stroke="midnightblue" points="783.42,-288.75 777.79,-279.77 776.6,-290.3 783.42,-288.75"/>
</g>
<!-- Node58&#45;&gt;Node43 -->
<g id="edge50" class="edge">
<title>Node58&#45;&gt;Node43</title>
<path fill="none" stroke="midnightblue" d="M678.48,-430.44C674.5,-432.27 670.64,-434.28 667,-436.5 647.14,-448.62 650.85,-462.36 631,-474.5 625.33,-477.97 619.08,-480.92 612.68,-483.41"/>
<polygon fill="midnightblue" stroke="midnightblue" points="680.05,-433.58 687.95,-426.51 677.37,-427.11 680.05,-433.58"/>
</g>
<!-- Node58&#45;&gt;Node45 -->
<g id="edge51" class="edge">
<title>Node58&#45;&gt;Node45</title>
<path fill="none" stroke="midnightblue" d="M670.76,-428.55C654.32,-431.84 637.04,-435.29 621.04,-438.49"/>
<polygon fill="midnightblue" stroke="midnightblue" points="671.76,-431.92 680.88,-426.52 670.39,-425.05 671.76,-431.92"/>
</g>
<!-- Node59&#45;&gt;Node10 -->
<g id="edge53" class="edge">
<title>Node59&#45;&gt;Node10</title>
<path fill="none" stroke="midnightblue" d="M852.73,-146.01C800.37,-149.73 729.21,-155.96 667,-165.5 646.83,-168.59 624.83,-173.11 605.77,-177.39"/>
<polygon fill="midnightblue" stroke="midnightblue" points="853.21,-149.49 862.95,-145.3 852.73,-142.5 853.21,-149.49"/>
</g>
</g>
</svg>
