<?xml version="1.0" encoding="UTF-8" standalone="no"?>
<!DOCTYPE svg PUBLIC "-//W3C//DTD SVG 1.1//EN"
 "http://www.w3.org/Graphics/SVG/1.1/DTD/svg11.dtd">
<!-- Generated by graphviz version 2.43.0 (0)
 -->
<!-- Title: flow::net_flow::Node::listen Pages: 1 -->
<svg width="740pt" height="370pt"
 viewBox="0.00 0.00 740.00 370.00" xmlns="http://www.w3.org/2000/svg" xmlns:xlink="http://www.w3.org/1999/xlink">
<g id="graph0" class="graph" transform="scale(1 1) rotate(0) translate(4 366)">
<title>flow::net_flow::Node::listen</title>
<polygon fill="white" stroke="transparent" points="-4,4 -4,-366 736,-366 736,4 -4,4"/>
<!-- Node1 -->
<g id="node1" class="node">
<title>Node1</title>
<g id="a_node1"><a xlink:title="Sets up a server on the given local Flow port and returns Server_socket which can be used to accept s...">
<polygon fill="#bfbfbf" stroke="black" points="0,-171.5 0,-197.5 101,-197.5 101,-171.5 0,-171.5"/>
<text text-anchor="start" x="8" y="-187.1" font-family="Helvetica,sans-Serif" font-size="8.00">flow::net_flow::Node</text>
<text text-anchor="middle" x="50.5" y="-178.1" font-family="Helvetica,sans-Serif" font-size="8.00">::listen</text>
</a>
</g>
</g>
<!-- Node1&#45;&gt;Node1 -->
<g id="edge5" class="edge">
<title>Node1&#45;&gt;Node1</title>
<path fill="none" stroke="midnightblue" d="M26.81,-197.77C19.64,-206.96 27.53,-216 50.5,-216 64.5,-216 72.9,-212.64 75.7,-207.94"/>
<polygon fill="midnightblue" stroke="midnightblue" points="79.12,-207.15 74.19,-197.77 72.19,-208.18 79.12,-207.15"/>
</g>
<!-- Node2 -->
<g id="node2" class="node">
<title>Node2</title>
<g id="a_node2"><a xlink:href="namespaceflow_1_1async.html#a24567271e97a67d3cae6bd8bf8dc63c4" target="_top" xlink:title="An extension of boost.asio&#39;s post() and dispatch() free function templates, this free function templa...">
<polygon fill="white" stroke="black" points="137,-294.5 137,-320.5 246,-320.5 246,-294.5 137,-294.5"/>
<text text-anchor="start" x="145" y="-310.1" font-family="Helvetica,sans-Serif" font-size="8.00">flow::async::asio_exec</text>
<text text-anchor="middle" x="191.5" y="-301.1" font-family="Helvetica,sans-Serif" font-size="8.00">_ctx_post</text>
</a>
</g>
</g>
<!-- Node1&#45;&gt;Node2 -->
<g id="edge1" class="edge">
<title>Node1&#45;&gt;Node2</title>
<path fill="none" stroke="midnightblue" d="M66.38,-197.66C90.73,-219.21 139.24,-262.14 167.88,-287.48"/>
<polygon fill="midnightblue" stroke="midnightblue" points="165.92,-290.43 175.73,-294.43 170.56,-285.18 165.92,-290.43"/>
</g>
<!-- Node5 -->
<g id="node5" class="node">
<title>Node5</title>
<g id="a_node5"><a xlink:href="classflow_1_1log_1_1Log__context.html#af4db395042b065b00398cd59845dcb4d" target="_top" xlink:title="Returns the stored Logger pointer, particularly as many FLOW_LOG_*() macros expect.">
<polygon fill="white" stroke="black" points="138,-194.5 138,-220.5 245,-220.5 245,-194.5 138,-194.5"/>
<text text-anchor="start" x="146" y="-210.1" font-family="Helvetica,sans-Serif" font-size="8.00">flow::log::Log_context</text>
<text text-anchor="middle" x="191.5" y="-201.1" font-family="Helvetica,sans-Serif" font-size="8.00">::get_logger</text>
</a>
</g>
</g>
<!-- Node1&#45;&gt;Node5 -->
<g id="edge4" class="edge">
<title>Node1&#45;&gt;Node5</title>
<path fill="none" stroke="midnightblue" d="M101.29,-192.74C109.89,-194.16 118.93,-195.66 127.83,-197.13"/>
<polygon fill="midnightblue" stroke="midnightblue" points="127.33,-200.6 137.77,-198.77 128.48,-193.69 127.33,-200.6"/>
</g>
<!-- Node6 -->
<g id="node6" class="node">
<title>Node6</title>
<g id="a_node6"><a xlink:href="classflow_1_1net__flow_1_1Node.html#aba411df8746d5fd4db2d28df3a016f5e" target="_top" xlink:title="Thread W implementation of listen().">
<polygon fill="white" stroke="black" points="141,-149.5 141,-175.5 242,-175.5 242,-149.5 141,-149.5"/>
<text text-anchor="start" x="149" y="-165.1" font-family="Helvetica,sans-Serif" font-size="8.00">flow::net_flow::Node</text>
<text text-anchor="middle" x="191.5" y="-156.1" font-family="Helvetica,sans-Serif" font-size="8.00">::listen_worker</text>
</a>
</g>
</g>
<!-- Node1&#45;&gt;Node6 -->
<g id="edge6" class="edge">
<title>Node1&#45;&gt;Node6</title>
<path fill="none" stroke="midnightblue" d="M101.29,-176.62C110.77,-175.12 120.79,-173.53 130.55,-171.99"/>
<polygon fill="midnightblue" stroke="midnightblue" points="131.26,-175.42 140.59,-170.4 130.17,-168.51 131.26,-175.42"/>
</g>
<!-- Node20 -->
<g id="node20" class="node">
<title>Node20</title>
<g id="a_node20"><a xlink:href="classflow_1_1net__flow_1_1Node.html#aae148cec361b59237996a4b30c6624b5" target="_top" xlink:title="Returns true if and only if the Node is operating.">
<polygon fill="white" stroke="black" points="141,-104.5 141,-130.5 242,-130.5 242,-104.5 141,-104.5"/>
<text text-anchor="start" x="149" y="-120.1" font-family="Helvetica,sans-Serif" font-size="8.00">flow::net_flow::Node</text>
<text text-anchor="middle" x="191.5" y="-111.1" font-family="Helvetica,sans-Serif" font-size="8.00">::running</text>
</a>
</g>
</g>
<!-- Node1&#45;&gt;Node20 -->
<g id="edge22" class="edge">
<title>Node1&#45;&gt;Node20</title>
<path fill="none" stroke="midnightblue" d="M74.79,-171.48C91.81,-162.15 115.57,-149.52 137,-139.5 140.58,-137.83 144.33,-136.15 148.1,-134.5"/>
<polygon fill="midnightblue" stroke="midnightblue" points="149.64,-137.65 157.47,-130.51 146.9,-131.21 149.64,-137.65"/>
</g>
<!-- Node3 -->
<g id="node3" class="node">
<title>Node3</title>
<g id="a_node3"><a xlink:href="namespaceflow_1_1async.html#a4cce43f39672e80cba5512103c53ae60" target="_top" xlink:title="Returns the 0&#45;based processor logical (not hardware) core index of the core executing the calling thr...">
<polygon fill="white" stroke="black" points="292,-299 292,-316 392,-316 392,-299 292,-299"/>
<text text-anchor="middle" x="342" y="-305.6" font-family="Helvetica,sans-Serif" font-size="8.00">flow::async::cpu_idx</text>
</a>
</g>
</g>
<!-- Node2&#45;&gt;Node3 -->
<g id="edge2" class="edge">
<title>Node2&#45;&gt;Node3</title>
<path fill="none" stroke="midnightblue" d="M246.11,-307.5C257.68,-307.5 269.97,-307.5 281.74,-307.5"/>
<polygon fill="midnightblue" stroke="midnightblue" points="281.91,-311 291.91,-307.5 281.91,-304 281.91,-311"/>
</g>
<!-- Node4 -->
<g id="node4" class="node">
<title>Node4</title>
<g id="a_node4"><a xlink:href="classflow_1_1log_1_1Logger.html#ac8a2e7a33fe3fbc0c29ead62ed98c022" target="_top" xlink:title="Given attributes of a hypothetical message that would be logged, return true if that message should b...">
<polygon fill="white" stroke="black" points="296,-335.5 296,-361.5 388,-361.5 388,-335.5 296,-335.5"/>
<text text-anchor="start" x="304" y="-351.1" font-family="Helvetica,sans-Serif" font-size="8.00">flow::log::Logger::</text>
<text text-anchor="middle" x="342" y="-342.1" font-family="Helvetica,sans-Serif" font-size="8.00">should_log</text>
</a>
</g>
</g>
<!-- Node2&#45;&gt;Node4 -->
<g id="edge3" class="edge">
<title>Node2&#45;&gt;Node4</title>
<path fill="none" stroke="midnightblue" d="M239.89,-320.59C254.59,-324.64 270.9,-329.15 286.06,-333.33"/>
<polygon fill="midnightblue" stroke="midnightblue" points="285.25,-336.74 295.83,-336.03 287.12,-329.99 285.25,-336.74"/>
</g>
<!-- Node7 -->
<g id="node7" class="node">
<title>Node7</title>
<g id="a_node7"><a xlink:href="namespaceflow_1_1util.html#a03984e29450abf9cf287c501d6c8f866" target="_top" xlink:title="Returns true if and only if the given key is present at least once in the given associative container...">
<polygon fill="white" stroke="black" points="292.5,-172 292.5,-189 391.5,-189 391.5,-172 292.5,-172"/>
<text text-anchor="middle" x="342" y="-178.6" font-family="Helvetica,sans-Serif" font-size="8.00">flow::util::key_exists</text>
</a>
</g>
</g>
<!-- Node6&#45;&gt;Node7 -->
<g id="edge7" class="edge">
<title>Node6&#45;&gt;Node7</title>
<path fill="none" stroke="midnightblue" d="M242.36,-168.54C255.19,-170.1 269.1,-171.79 282.33,-173.39"/>
<polygon fill="midnightblue" stroke="midnightblue" points="281.93,-176.87 292.28,-174.59 282.77,-169.92 281.93,-176.87"/>
</g>
<!-- Node8 -->
<g id="node8" class="node">
<title>Node8</title>
<g id="a_node8"><a xlink:href="classflow_1_1net__flow_1_1Node.html#a43c42121d48a55a43a48e3a84bd10595" target="_top" xlink:title="Obtain a copy of the value of a given option in a thread&#45;safe manner.">
<polygon fill="white" stroke="black" points="282,-136 282,-153 402,-153 402,-136 282,-136"/>
<text text-anchor="middle" x="342" y="-142.6" font-family="Helvetica,sans-Serif" font-size="8.00">flow::net_flow::Node::opt</text>
</a>
</g>
</g>
<!-- Node6&#45;&gt;Node8 -->
<g id="edge8" class="edge">
<title>Node6&#45;&gt;Node8</title>
<path fill="none" stroke="midnightblue" d="M242.36,-156.46C251.74,-155.32 261.71,-154.11 271.56,-152.92"/>
<polygon fill="midnightblue" stroke="midnightblue" points="272.25,-156.36 281.75,-151.68 271.41,-149.41 272.25,-156.36"/>
</g>
<!-- Node9 -->
<g id="node9" class="node">
<title>Node9</title>
<g id="a_node9"><a xlink:href="classflow_1_1net__flow_1_1Port__space.html#a1168841ecd09d3187f9803eac2b8b703" target="_top" xlink:title="Reserve the specified service port, or reserve_ephemeral_port() if the specified port is S_PORT_ANY.">
<polygon fill="white" stroke="black" points="291,-90.5 291,-116.5 393,-116.5 393,-90.5 291,-90.5"/>
<text text-anchor="start" x="299" y="-106.1" font-family="Helvetica,sans-Serif" font-size="8.00">flow::net_flow::Port</text>
<text text-anchor="middle" x="342" y="-97.1" font-family="Helvetica,sans-Serif" font-size="8.00">_space::reserve_port</text>
</a>
</g>
</g>
<!-- Node6&#45;&gt;Node9 -->
<g id="edge9" class="edge">
<title>Node6&#45;&gt;Node9</title>
<path fill="none" stroke="midnightblue" d="M224.78,-149.42C241.79,-142.55 263,-134.02 282,-126.5 287.11,-124.48 292.48,-122.37 297.8,-120.28"/>
<polygon fill="midnightblue" stroke="midnightblue" points="299.24,-123.47 307.28,-116.57 296.69,-116.95 299.24,-123.47"/>
</g>
<!-- Node14 -->
<g id="node14" class="node">
<title>Node14</title>
<g id="a_node14"><a xlink:href="classflow_1_1net__flow_1_1Port__space.html#a9fe1be917ff7584ff587b5da5967127a" target="_top" xlink:title="Return a previously reserved port (of any type).">
<polygon fill="white" stroke="black" points="294,-45.5 294,-71.5 390,-71.5 390,-45.5 294,-45.5"/>
<text text-anchor="start" x="302" y="-61.1" font-family="Helvetica,sans-Serif" font-size="8.00">flow::net_flow::Port</text>
<text text-anchor="middle" x="342" y="-52.1" font-family="Helvetica,sans-Serif" font-size="8.00">_space::return_port</text>
</a>
</g>
</g>
<!-- Node6&#45;&gt;Node14 -->
<g id="edge14" class="edge">
<title>Node6&#45;&gt;Node14</title>
<path fill="none" stroke="midnightblue" d="M231.06,-149.4C236.4,-146.62 241.57,-143.34 246,-139.5 269.21,-119.37 258.31,-100.05 282,-80.5 283.58,-79.2 285.25,-77.96 286.98,-76.8"/>
<polygon fill="midnightblue" stroke="midnightblue" points="289.15,-79.59 296.06,-71.55 285.65,-73.52 289.15,-79.59"/>
</g>
<!-- Node15 -->
<g id="node15" class="node">
<title>Node15</title>
<g id="a_node15"><a xlink:href="classflow_1_1net__flow_1_1Node.html#a0a91542fce634cf6a749c71f225b105a" target="_top" xlink:title="Internal factory used for ALL Server_socket objects created by this Node (including subclasses).">
<polygon fill="white" stroke="black" points="291.5,-0.5 291.5,-26.5 392.5,-26.5 392.5,-0.5 291.5,-0.5"/>
<text text-anchor="start" x="299.5" y="-16.1" font-family="Helvetica,sans-Serif" font-size="8.00">flow::net_flow::Node</text>
<text text-anchor="middle" x="342" y="-7.1" font-family="Helvetica,sans-Serif" font-size="8.00">::serv_create</text>
</a>
</g>
</g>
<!-- Node6&#45;&gt;Node15 -->
<g id="edge17" class="edge">
<title>Node6&#45;&gt;Node15</title>
<path fill="none" stroke="midnightblue" d="M233.19,-149.45C237.92,-146.71 242.35,-143.42 246,-139.5 279.31,-103.68 247.82,-70.49 282,-35.5 283.07,-34.4 284.21,-33.35 285.39,-32.36"/>
<polygon fill="midnightblue" stroke="midnightblue" points="287.6,-35.09 293.83,-26.53 283.62,-29.33 287.6,-35.09"/>
</g>
<!-- Node16 -->
<g id="node16" class="node">
<title>Node16</title>
<g id="a_node16"><a xlink:href="classflow_1_1net__flow_1_1Node.html#a0bac29a091e1026e5b4f0b5d84a710c7" target="_top" xlink:title="Sets Server_socket::m_state.">
<polygon fill="white" stroke="black" points="291.5,-253.5 291.5,-279.5 392.5,-279.5 392.5,-253.5 291.5,-253.5"/>
<text text-anchor="start" x="299.5" y="-269.1" font-family="Helvetica,sans-Serif" font-size="8.00">flow::net_flow::Node</text>
<text text-anchor="middle" x="342" y="-260.1" font-family="Helvetica,sans-Serif" font-size="8.00">::serv_set_state</text>
</a>
</g>
</g>
<!-- Node6&#45;&gt;Node16 -->
<g id="edge18" class="edge">
<title>Node6&#45;&gt;Node16</title>
<path fill="none" stroke="midnightblue" d="M231.06,-175.6C236.4,-178.38 241.57,-181.66 246,-185.5 269.21,-205.63 258.31,-224.95 282,-244.5 283.58,-245.8 285.25,-247.04 286.98,-248.2"/>
<polygon fill="midnightblue" stroke="midnightblue" points="285.65,-251.48 296.06,-253.45 289.15,-245.41 285.65,-251.48"/>
</g>
<!-- Node17 -->
<g id="node17" class="node">
<title>Node17</title>
<g id="a_node17"><a xlink:href="classflow_1_1net__flow_1_1Node.html#a446ee7115c70cbcd48e3897d32fc0276" target="_top" xlink:title="Analogous to validate_options() but checks per&#45;socket options instead of per&#45;Node options.">
<polygon fill="white" stroke="black" points="285.5,-208.5 285.5,-234.5 398.5,-234.5 398.5,-208.5 285.5,-208.5"/>
<text text-anchor="start" x="293.5" y="-224.1" font-family="Helvetica,sans-Serif" font-size="8.00">flow::net_flow::Node</text>
<text text-anchor="middle" x="342" y="-215.1" font-family="Helvetica,sans-Serif" font-size="8.00">::sock_validate_options</text>
</a>
</g>
</g>
<!-- Node6&#45;&gt;Node17 -->
<g id="edge19" class="edge">
<title>Node6&#45;&gt;Node17</title>
<path fill="none" stroke="midnightblue" d="M224.78,-175.58C241.79,-182.45 263,-190.98 282,-198.5 287.11,-200.52 292.48,-202.63 297.8,-204.72"/>
<polygon fill="midnightblue" stroke="midnightblue" points="296.69,-208.05 307.28,-208.43 299.24,-201.53 296.69,-208.05"/>
</g>
<!-- Node10 -->
<g id="node10" class="node">
<title>Node10</title>
<g id="a_node10"><a xlink:href="classflow_1_1net__flow_1_1Port__space.html#ac43e4303aac2bde697b99bf03901ec85" target="_top" xlink:title="Returns true if and only if the given port is a service port (as opposed to ephemeral or S_PORT_ANY).">
<polygon fill="white" stroke="black" points="457.5,-73.5 457.5,-99.5 568.5,-99.5 568.5,-73.5 457.5,-73.5"/>
<text text-anchor="start" x="465.5" y="-89.1" font-family="Helvetica,sans-Serif" font-size="8.00">flow::net_flow::Port</text>
<text text-anchor="middle" x="513" y="-80.1" font-family="Helvetica,sans-Serif" font-size="8.00">_space::is_service_port</text>
</a>
</g>
</g>
<!-- Node9&#45;&gt;Node10 -->
<g id="edge10" class="edge">
<title>Node9&#45;&gt;Node10</title>
<path fill="none" stroke="midnightblue" d="M393.25,-98.45C410.08,-96.75 429.1,-94.84 446.91,-93.05"/>
<polygon fill="midnightblue" stroke="midnightblue" points="447.63,-96.49 457.23,-92.01 446.93,-89.53 447.63,-96.49"/>
</g>
<!-- Node12 -->
<g id="node12" class="node">
<title>Node12</title>
<g id="a_node12"><a xlink:href="classflow_1_1net__flow_1_1Port__space.html#a65dbe99c7c4433e6c090f26c92ab3f78" target="_top" xlink:title="Reserve a randomly chosen available ephemeral port.">
<polygon fill="white" stroke="black" points="438,-118.5 438,-144.5 588,-144.5 588,-118.5 438,-118.5"/>
<text text-anchor="start" x="446" y="-134.1" font-family="Helvetica,sans-Serif" font-size="8.00">flow::net_flow::Port</text>
<text text-anchor="middle" x="513" y="-125.1" font-family="Helvetica,sans-Serif" font-size="8.00">_space::reserve_ephemeral_port</text>
</a>
</g>
</g>
<!-- Node9&#45;&gt;Node12 -->
<g id="edge12" class="edge">
<title>Node9&#45;&gt;Node12</title>
<path fill="none" stroke="midnightblue" d="M393.25,-111.83C404.19,-113.64 416.06,-115.61 427.92,-117.57"/>
<polygon fill="midnightblue" stroke="midnightblue" points="427.42,-121.03 437.86,-119.22 428.57,-114.13 427.42,-121.03"/>
</g>
<!-- Node11 -->
<g id="node11" class="node">
<title>Node11</title>
<g id="a_node11"><a xlink:href="namespaceflow_1_1util.html#a024ddda9acb2b66f2a1b35cdb0c016aa" target="_top" xlink:title="Returns true if and only if the given value is within the given range, given as a [low,...">
<polygon fill="white" stroke="black" points="630,-50.5 630,-76.5 726,-76.5 726,-50.5 630,-50.5"/>
<text text-anchor="start" x="638" y="-66.1" font-family="Helvetica,sans-Serif" font-size="8.00">flow::util::in_closed</text>
<text text-anchor="middle" x="678" y="-57.1" font-family="Helvetica,sans-Serif" font-size="8.00">_open_range</text>
</a>
</g>
</g>
<!-- Node10&#45;&gt;Node11 -->
<g id="edge11" class="edge">
<title>Node10&#45;&gt;Node11</title>
<path fill="none" stroke="midnightblue" d="M568.73,-78.78C585.12,-76.46 603.14,-73.92 619.69,-71.59"/>
<polygon fill="midnightblue" stroke="midnightblue" points="620.36,-75.03 629.78,-70.16 619.39,-68.1 620.36,-75.03"/>
</g>
<!-- Node13 -->
<g id="node13" class="node">
<title>Node13</title>
<g id="a_node13"><a xlink:href="classflow_1_1net__flow_1_1Port__space.html#ad5a6a34a24c95364bb8348e5030d955b" target="_top" xlink:title="Helper method that, given a reference to a bit set representing available ports (1 available,...">
<polygon fill="white" stroke="black" points="624,-114 624,-149 732,-149 732,-114 624,-114"/>
<text text-anchor="start" x="632" y="-138.6" font-family="Helvetica,sans-Serif" font-size="8.00">flow::net_flow::Port</text>
<text text-anchor="start" x="632" y="-129.6" font-family="Helvetica,sans-Serif" font-size="8.00">_space::find_available</text>
<text text-anchor="middle" x="678" y="-120.6" font-family="Helvetica,sans-Serif" font-size="8.00">_port_bit_idx</text>
</a>
</g>
</g>
<!-- Node12&#45;&gt;Node13 -->
<g id="edge13" class="edge">
<title>Node12&#45;&gt;Node13</title>
<path fill="none" stroke="midnightblue" d="M588.35,-131.5C596.73,-131.5 605.21,-131.5 613.44,-131.5"/>
<polygon fill="midnightblue" stroke="midnightblue" points="613.7,-135 623.7,-131.5 613.7,-128 613.7,-135"/>
</g>
<!-- Node14&#45;&gt;Node10 -->
<g id="edge16" class="edge">
<title>Node14&#45;&gt;Node10</title>
<path fill="none" stroke="midnightblue" d="M390.08,-66.3C407.79,-69.23 428.26,-72.63 447.3,-75.78"/>
<polygon fill="midnightblue" stroke="midnightblue" points="446.97,-79.27 457.41,-77.46 448.12,-72.37 446.97,-79.27"/>
</g>
<!-- Node14&#45;&gt;Node11 -->
<g id="edge15" class="edge">
<title>Node14&#45;&gt;Node11</title>
<path fill="none" stroke="midnightblue" d="M390.15,-59.21C450.48,-60.11 554.94,-61.67 619.77,-62.64"/>
<polygon fill="midnightblue" stroke="midnightblue" points="619.77,-66.14 629.82,-62.79 619.88,-59.14 619.77,-66.14"/>
</g>
<!-- Node18 -->
<g id="node18" class="node">
<title>Node18</title>
<g id="a_node18"><a xlink:href="namespaceflow_1_1util.html#ab10bc9e8bef148f875aa743fe0852743" target="_top" xlink:title="Returns true if and only if the given value is within the given range, inclusive.">
<polygon fill="white" stroke="black" points="465,-177.5 465,-203.5 561,-203.5 561,-177.5 465,-177.5"/>
<text text-anchor="start" x="473" y="-193.1" font-family="Helvetica,sans-Serif" font-size="8.00">flow::util::in_closed</text>
<text text-anchor="middle" x="513" y="-184.1" font-family="Helvetica,sans-Serif" font-size="8.00">_range</text>
</a>
</g>
</g>
<!-- Node17&#45;&gt;Node18 -->
<g id="edge20" class="edge">
<title>Node17&#45;&gt;Node18</title>
<path fill="none" stroke="midnightblue" d="M398.81,-211.26C416.81,-207.96 436.8,-204.29 454.9,-200.97"/>
<polygon fill="midnightblue" stroke="midnightblue" points="455.53,-204.42 464.74,-199.17 454.27,-197.53 455.53,-204.42"/>
</g>
<!-- Node19 -->
<g id="node19" class="node">
<title>Node19</title>
<g id="a_node19"><a xlink:href="namespaceflow_1_1util.html#a8ae762ea4f743a98a73953d7f9ec2164" target="_top" xlink:title="Returns true if and only if the given value is within the given range, given as a (low,...">
<polygon fill="white" stroke="black" points="468,-222.5 468,-248.5 558,-248.5 558,-222.5 468,-222.5"/>
<text text-anchor="start" x="476" y="-238.1" font-family="Helvetica,sans-Serif" font-size="8.00">flow::util::in_open</text>
<text text-anchor="middle" x="513" y="-229.1" font-family="Helvetica,sans-Serif" font-size="8.00">_closed_range</text>
</a>
</g>
</g>
<!-- Node17&#45;&gt;Node19 -->
<g id="edge21" class="edge">
<title>Node17&#45;&gt;Node19</title>
<path fill="none" stroke="midnightblue" d="M398.81,-226.12C417.71,-227.69 438.78,-229.43 457.57,-230.99"/>
<polygon fill="midnightblue" stroke="midnightblue" points="457.5,-234.5 467.75,-231.83 458.07,-227.52 457.5,-234.5"/>
</g>
</g>
</svg>
