<?xml version="1.0" encoding="UTF-8" standalone="no"?>
<!DOCTYPE svg PUBLIC "-//W3C//DTD SVG 1.1//EN"
 "http://www.w3.org/Graphics/SVG/1.1/DTD/svg11.dtd">
<!-- Generated by graphviz version 2.43.0 (0)
 -->
<!-- Title: flow::net_flow::Port_space Pages: 1 -->
<svg width="1115pt" height="427pt"
 viewBox="0.00 0.00 1115.00 426.83" xmlns="http://www.w3.org/2000/svg" xmlns:xlink="http://www.w3.org/1999/xlink">
<g id="graph0" class="graph" transform="scale(1 1) rotate(0) translate(4 422.83)">
<title>flow::net_flow::Port_space</title>
<polygon fill="white" stroke="transparent" points="-4,4 -4,-422.83 1111,-422.83 1111,4 -4,4"/>
<!-- Node1 -->
<g id="node1" class="node">
<title>Node1</title>
<g id="a_node1"><a xlink:title="Internal net_flow class that maintains the available Flow&#45;protocol port space, somewhat similarly to ...">
<polygon fill="#bfbfbf" stroke="black" points="1012,-116.83 1012,-142.83 1107,-142.83 1107,-116.83 1012,-116.83"/>
<text text-anchor="start" x="1020" y="-132.43" font-family="Helvetica,sans-Serif" font-size="8.00">flow::net_flow::Port</text>
<text text-anchor="middle" x="1059.5" y="-123.43" font-family="Helvetica,sans-Serif" font-size="8.00">_space</text>
</a>
</g>
</g>
<!-- Node2 -->
<g id="node2" class="node">
<title>Node2</title>
<g id="a_node2"><a xlink:href="classflow_1_1log_1_1Log__context.html" target="_top" xlink:title="Convenience class that simply stores a Logger and/or Component passed into a constructor; and returns...">
<polygon fill="white" stroke="black" points="743.5,-270.33 743.5,-287.33 850.5,-287.33 850.5,-270.33 743.5,-270.33"/>
<text text-anchor="middle" x="797" y="-276.93" font-family="Helvetica,sans-Serif" font-size="8.00">flow::log::Log_context</text>
</a>
</g>
</g>
<!-- Node2&#45;&gt;Node1 -->
<g id="edge1" class="edge">
<title>Node2&#45;&gt;Node1</title>
<path fill="none" stroke="midnightblue" d="M860.44,-272.89C901.53,-266.42 954.77,-252.93 994,-224.83 1023.82,-203.47 1044.09,-163.74 1053.14,-143.08"/>
<polygon fill="midnightblue" stroke="midnightblue" points="859.93,-269.42 850.54,-274.35 860.95,-276.35 859.93,-269.42"/>
</g>
<!-- Node3 -->
<g id="node3" class="node">
<title>Node3</title>
<g id="a_node3"><a xlink:href="classflow_1_1log_1_1Logger.html" target="_top" xlink:title="Interface that the user should implement, passing the implementing Logger into logging classes (Flow&#39;...">
<polygon fill="white" stroke="black" points="542.5,-270.33 542.5,-287.33 628.5,-287.33 628.5,-270.33 542.5,-270.33"/>
<text text-anchor="middle" x="585.5" y="-276.93" font-family="Helvetica,sans-Serif" font-size="8.00">flow::log::Logger</text>
</a>
</g>
</g>
<!-- Node3&#45;&gt;Node2 -->
<g id="edge2" class="edge">
<title>Node3&#45;&gt;Node2</title>
<path fill="none" stroke="#9a32cd" stroke-dasharray="5,2" d="M638.66,-278.83C670.52,-278.83 711.14,-278.83 743.13,-278.83"/>
<polygon fill="#9a32cd" stroke="#9a32cd" points="638.64,-275.33 628.64,-278.83 638.64,-282.33 638.64,-275.33"/>
<text text-anchor="middle" x="686.5" y="-281.43" font-family="Helvetica,sans-Serif" font-size="8.00"> m_logger</text>
</g>
<!-- Node4 -->
<g id="node4" class="node">
<title>Node4</title>
<g id="a_node4"><a xlink:href="classflow_1_1util_1_1Null__interface.html" target="_top" xlink:title="An empty interface, consisting of nothing but a default virtual destructor, intended as a boiler&#45;plat...">
<polygon fill="white" stroke="black" points="268,-283.33 268,-300.33 382,-300.33 382,-283.33 268,-283.33"/>
<text text-anchor="middle" x="325" y="-289.93" font-family="Helvetica,sans-Serif" font-size="8.00">flow::util::Null_interface</text>
</a>
</g>
</g>
<!-- Node4&#45;&gt;Node3 -->
<g id="edge3" class="edge">
<title>Node4&#45;&gt;Node3</title>
<path fill="none" stroke="midnightblue" d="M392.23,-288.5C439.42,-286.12 501.46,-283 542.13,-280.96"/>
<polygon fill="midnightblue" stroke="midnightblue" points="391.9,-285.01 382.09,-289.01 392.25,-292 391.9,-285.01"/>
</g>
<!-- Node5 -->
<g id="node5" class="node">
<title>Node5</title>
<g id="a_node5"><a xlink:href="classflow_1_1util_1_1Unique__id__holder.html" target="_top" xlink:title="Each object of this class stores (at construction) and returns (on demand) a numeric ID unique from a...">
<polygon fill="white" stroke="black" points="281.5,-237.83 281.5,-263.83 368.5,-263.83 368.5,-237.83 281.5,-237.83"/>
<text text-anchor="start" x="289.5" y="-253.43" font-family="Helvetica,sans-Serif" font-size="8.00">flow::util::Unique</text>
<text text-anchor="middle" x="325" y="-244.43" font-family="Helvetica,sans-Serif" font-size="8.00">_id_holder</text>
</a>
</g>
</g>
<!-- Node5&#45;&gt;Node3 -->
<g id="edge4" class="edge">
<title>Node5&#45;&gt;Node3</title>
<path fill="none" stroke="midnightblue" d="M378.63,-256.53C426.9,-261.76 497.47,-269.4 542.18,-274.24"/>
<polygon fill="midnightblue" stroke="midnightblue" points="379,-253.05 368.69,-255.45 378.25,-260.01 379,-253.05"/>
</g>
<!-- Node6 -->
<g id="node6" class="node">
<title>Node6</title>
<g id="a_node6"><a xlink:title=" ">
<polygon fill="white" stroke="#bfbfbf" points="0,-237.33 0,-254.33 50,-254.33 50,-237.33 0,-237.33"/>
<text text-anchor="middle" x="25" y="-243.93" font-family="Helvetica,sans-Serif" font-size="8.00">uint64_t</text>
</a>
</g>
</g>
<!-- Node6&#45;&gt;Node5 -->
<g id="edge5" class="edge">
<title>Node6&#45;&gt;Node5</title>
<path fill="none" stroke="#9a32cd" stroke-dasharray="5,2" d="M60.61,-249.37C63.11,-249.55 65.59,-249.71 68,-249.83 143.01,-253.65 230.55,-252.86 281.39,-251.88"/>
<polygon fill="#9a32cd" stroke="#9a32cd" points="60.66,-245.86 50.4,-248.52 60.08,-252.84 60.66,-245.86"/>
<text text-anchor="middle" x="147.5" y="-254.43" font-family="Helvetica,sans-Serif" font-size="8.00"> m_id</text>
</g>
<!-- Node7 -->
<g id="node7" class="node">
<title>Node7</title>
<g id="a_node7"><a xlink:title=" ">
<polygon fill="white" stroke="black" points="100,-214.33 100,-231.33 195,-231.33 195,-214.33 100,-214.33"/>
<text text-anchor="middle" x="147.5" y="-220.93" font-family="Helvetica,sans-Serif" font-size="8.00">std::atomic&lt; id_t &gt;</text>
</a>
</g>
</g>
<!-- Node6&#45;&gt;Node7 -->
<g id="edge7" class="edge">
<title>Node6&#45;&gt;Node7</title>
<path fill="none" stroke="#9a32cd" stroke-dasharray="5,2" d="M60.04,-239.33C73.06,-236.85 88.11,-233.97 101.97,-231.33"/>
<polygon fill="#9a32cd" stroke="#9a32cd" points="59.26,-235.92 50.1,-241.23 60.57,-242.79 59.26,-235.92"/>
<text text-anchor="middle" x="75" y="-239.43" font-family="Helvetica,sans-Serif" font-size="8.00"> ptr</text>
</g>
<!-- Node7&#45;&gt;Node5 -->
<g id="edge6" class="edge">
<title>Node7&#45;&gt;Node5</title>
<path fill="none" stroke="#9a32cd" stroke-dasharray="5,2" d="M205.08,-231.85C229.87,-235.81 258.48,-240.38 281.43,-244.04"/>
<polygon fill="#9a32cd" stroke="#9a32cd" points="205.5,-228.38 195.07,-230.26 204.39,-235.29 205.5,-228.38"/>
<text text-anchor="middle" x="231.5" y="-240.43" font-family="Helvetica,sans-Serif" font-size="8.00"> s_last_id</text>
</g>
<!-- Node8 -->
<g id="node8" class="node">
<title>Node8</title>
<g id="a_node8"><a xlink:title=" ">
<polygon fill="white" stroke="#bfbfbf" points="275.5,-201.33 275.5,-218.33 374.5,-218.33 374.5,-201.33 275.5,-201.33"/>
<text text-anchor="middle" x="325" y="-207.93" font-family="Helvetica,sans-Serif" font-size="8.00">boost::noncopyable</text>
</a>
</g>
</g>
<!-- Node8&#45;&gt;Node1 -->
<g id="edge13" class="edge">
<title>Node8&#45;&gt;Node1</title>
<path fill="none" stroke="#8b1a1a" d="M385.23,-213.78C527.61,-222.42 885.31,-238.72 994,-192.83 1018.51,-182.48 1038.91,-158.09 1049.85,-142.88"/>
<polygon fill="#8b1a1a" stroke="#8b1a1a" points="385.15,-210.27 374.95,-213.15 384.72,-217.26 385.15,-210.27"/>
</g>
<!-- Node8&#45;&gt;Node3 -->
<g id="edge8" class="edge">
<title>Node8&#45;&gt;Node3</title>
<path fill="none" stroke="#8b1a1a" d="M376.73,-220.48C414.99,-228.86 468.62,-241.33 515,-254.83 530.69,-259.39 548.06,-265.39 561.52,-270.25"/>
<polygon fill="#8b1a1a" stroke="#8b1a1a" points="377.37,-217.04 366.86,-218.33 375.89,-223.88 377.37,-217.04"/>
</g>
<!-- Node9 -->
<g id="node9" class="node">
<title>Node9</title>
<g id="a_node9"><a xlink:title=" ">
<polygon fill="white" stroke="#bfbfbf" points="278,-319.83 278,-345.83 372,-345.83 372,-319.83 278,-319.83"/>
<text text-anchor="start" x="286" y="-335.43" font-family="Helvetica,sans-Serif" font-size="8.00">thread_specific_ptr</text>
<text text-anchor="middle" x="325" y="-326.43" font-family="Helvetica,sans-Serif" font-size="8.00">&lt; std::string &gt;</text>
</a>
</g>
</g>
<!-- Node9&#45;&gt;Node3 -->
<g id="edge9" class="edge">
<title>Node9&#45;&gt;Node3</title>
<path fill="none" stroke="#9a32cd" stroke-dasharray="5,2" d="M382.38,-324.23C420.12,-318.1 470.78,-309.14 515,-298.83 529.06,-295.55 544.51,-291.18 557.27,-287.36"/>
<polygon fill="#9a32cd" stroke="#9a32cd" points="381.42,-320.84 372.1,-325.89 382.53,-327.76 381.42,-320.84"/>
<text text-anchor="middle" x="457.5" y="-322.43" font-family="Helvetica,sans-Serif" font-size="8.00"> s_this_thread_nickname_ptr</text>
</g>
<!-- Node10 -->
<g id="node10" class="node">
<title>Node10</title>
<g id="a_node10"><a xlink:href="classflow_1_1log_1_1Component.html" target="_top" xlink:title="A light&#45;weight class, each object storing a component payload encoding an enum value from enum type o...">
<polygon fill="white" stroke="black" points="533,-365.33 533,-382.33 638,-382.33 638,-365.33 533,-365.33"/>
<text text-anchor="middle" x="585.5" y="-371.93" font-family="Helvetica,sans-Serif" font-size="8.00">flow::log::Component</text>
</a>
</g>
</g>
<!-- Node10&#45;&gt;Node2 -->
<g id="edge10" class="edge">
<title>Node10&#45;&gt;Node2</title>
<path fill="none" stroke="#9a32cd" stroke-dasharray="5,2" d="M614.61,-361.08C658.05,-341.38 740.31,-304.08 777.23,-287.34"/>
<polygon fill="#9a32cd" stroke="#9a32cd" points="613.12,-357.91 605.46,-365.23 616.01,-364.29 613.12,-357.91"/>
<text text-anchor="middle" x="686.5" y="-342.43" font-family="Helvetica,sans-Serif" font-size="8.00"> m_component</text>
</g>
<!-- Node11 -->
<g id="node11" class="node">
<title>Node11</title>
<g id="a_node11"><a xlink:title=" ">
<polygon fill="white" stroke="#bfbfbf" points="282.5,-365.33 282.5,-382.33 367.5,-382.33 367.5,-365.33 282.5,-365.33"/>
<text text-anchor="middle" x="325" y="-371.93" font-family="Helvetica,sans-Serif" font-size="8.00">type_info const *</text>
</a>
</g>
</g>
<!-- Node11&#45;&gt;Node10 -->
<g id="edge11" class="edge">
<title>Node11&#45;&gt;Node10</title>
<path fill="none" stroke="#9a32cd" stroke-dasharray="5,2" d="M377.68,-373.83C422.74,-373.83 487.76,-373.83 532.82,-373.83"/>
<polygon fill="#9a32cd" stroke="#9a32cd" points="377.53,-370.33 367.53,-373.83 377.53,-377.33 377.53,-370.33"/>
<text text-anchor="middle" x="457.5" y="-376.43" font-family="Helvetica,sans-Serif" font-size="8.00"> m_payload_type_or_null</text>
</g>
<!-- Node12 -->
<g id="node12" class="node">
<title>Node12</title>
<g id="a_node12"><a xlink:title=" ">
<polygon fill="white" stroke="#bfbfbf" points="291,-401.33 291,-418.33 359,-418.33 359,-401.33 291,-401.33"/>
<text text-anchor="middle" x="325" y="-407.93" font-family="Helvetica,sans-Serif" font-size="8.00">unsigned int</text>
</a>
</g>
</g>
<!-- Node12&#45;&gt;Node10 -->
<g id="edge12" class="edge">
<title>Node12&#45;&gt;Node10</title>
<path fill="none" stroke="#9a32cd" stroke-dasharray="5,2" d="M369.5,-405.33C407.88,-401.18 465.28,-394.5 515,-386.83 523.49,-385.52 532.54,-383.95 541.2,-382.37"/>
<polygon fill="#9a32cd" stroke="#9a32cd" points="368.78,-401.89 359.21,-406.44 369.52,-408.85 368.78,-401.89"/>
<text text-anchor="start" x="411" y="-412.43" font-family="Helvetica,sans-Serif" font-size="8.00"> m_payload_enum_raw</text>
<text text-anchor="middle" x="457.5" y="-403.43" font-family="Helvetica,sans-Serif" font-size="8.00">_value</text>
</g>
<!-- Node13 -->
<g id="node13" class="node">
<title>Node13</title>
<g id="a_node13"><a xlink:title=" ">
<polygon fill="white" stroke="#bfbfbf" points="752.5,-142.33 752.5,-159.33 841.5,-159.33 841.5,-142.33 752.5,-142.33"/>
<text text-anchor="middle" x="797" y="-148.93" font-family="Helvetica,sans-Serif" font-size="8.00">static const size_t</text>
</a>
</g>
</g>
<!-- Node13&#45;&gt;Node1 -->
<g id="edge14" class="edge">
<title>Node13&#45;&gt;Node1</title>
<path fill="none" stroke="#9a32cd" stroke-dasharray="5,2" d="M851.63,-146.51C898.77,-142.71 966.68,-137.23 1011.67,-133.6"/>
<polygon fill="#9a32cd" stroke="#9a32cd" points="851.29,-143.02 841.6,-147.31 851.85,-150 851.29,-143.02"/>
<text text-anchor="start" x="877" y="-182.43" font-family="Helvetica,sans-Serif" font-size="8.00"> S_MAX_RECENT_EPHEMERAL</text>
<text text-anchor="middle" x="935.5" y="-173.43" font-family="Helvetica,sans-Serif" font-size="8.00">_PORTS</text>
<text text-anchor="middle" x="935.5" y="-164.43" font-family="Helvetica,sans-Serif" font-size="8.00">S_NUM_EPHEMERAL_PORTS</text>
<text text-anchor="middle" x="935.5" y="-155.43" font-family="Helvetica,sans-Serif" font-size="8.00">S_NUM_PORTS</text>
<text text-anchor="middle" x="935.5" y="-146.43" font-family="Helvetica,sans-Serif" font-size="8.00">S_NUM_SERVICE_PORTS</text>
</g>
<!-- Node14 -->
<g id="node14" class="node">
<title>Node14</title>
<g id="a_node14"><a xlink:title=" ">
<polygon fill="white" stroke="#bfbfbf" points="560.5,-78.33 560.5,-95.33 610.5,-95.33 610.5,-78.33 560.5,-78.33"/>
<text text-anchor="middle" x="585.5" y="-84.93" font-family="Helvetica,sans-Serif" font-size="8.00">uint16_t</text>
</a>
</g>
</g>
<!-- Node14&#45;&gt;Node1 -->
<g id="edge15" class="edge">
<title>Node14&#45;&gt;Node1</title>
<path fill="none" stroke="#9a32cd" stroke-dasharray="5,2" d="M620.79,-82.44C692.07,-74.54 860.72,-62.18 994,-101.83 1006.99,-105.69 1020.84,-111.47 1032.36,-116.77"/>
<polygon fill="#9a32cd" stroke="#9a32cd" points="620.13,-79 610.6,-83.62 620.93,-85.95 620.13,-79"/>
<text text-anchor="middle" x="797" y="-89.43" font-family="Helvetica,sans-Serif" font-size="8.00"> S_FIRST_EPHEMERAL_PORT</text>
<text text-anchor="middle" x="797" y="-80.43" font-family="Helvetica,sans-Serif" font-size="8.00">S_FIRST_SERVICE_PORT</text>
</g>
<!-- Node16 -->
<g id="node16" class="node">
<title>Node16</title>
<g id="a_node16"><a xlink:title=" ">
<polygon fill="white" stroke="black" points="735,-106.33 735,-123.33 859,-123.33 859,-106.33 735,-106.33"/>
<text text-anchor="middle" x="797" y="-112.93" font-family="Helvetica,sans-Serif" font-size="8.00">std::queue&lt; flow_port_t &gt;</text>
</a>
</g>
</g>
<!-- Node14&#45;&gt;Node16 -->
<g id="edge18" class="edge">
<title>Node14&#45;&gt;Node16</title>
<path fill="none" stroke="#9a32cd" stroke-dasharray="5,2" d="M620.77,-91.41C651.61,-95.53 697.65,-101.68 734.81,-106.65"/>
<polygon fill="#9a32cd" stroke="#9a32cd" points="620.91,-87.9 610.53,-90.04 619.98,-94.83 620.91,-87.9"/>
<text text-anchor="middle" x="686.5" y="-106.43" font-family="Helvetica,sans-Serif" font-size="8.00"> elements</text>
</g>
<!-- Node15 -->
<g id="node15" class="node">
<title>Node15</title>
<g id="a_node15"><a xlink:title=" ">
<polygon fill="white" stroke="#bfbfbf" points="751,-10.33 751,-27.33 843,-27.33 843,-10.33 751,-10.33"/>
<text text-anchor="middle" x="797" y="-16.93" font-family="Helvetica,sans-Serif" font-size="8.00">dynamic_bitset&lt;&gt;</text>
</a>
</g>
</g>
<!-- Node15&#45;&gt;Node1 -->
<g id="edge16" class="edge">
<title>Node15&#45;&gt;Node1</title>
<path fill="none" stroke="#9a32cd" stroke-dasharray="5,2" d="M838.09,-8.1C879.95,0.73 946.06,7.8 994,-19.83 1030.83,-41.05 1048.7,-92.31 1055.33,-116.62"/>
<polygon fill="#9a32cd" stroke="#9a32cd" points="837.25,-4.7 828.26,-10.3 838.78,-11.53 837.25,-4.7"/>
<text text-anchor="start" x="881.5" y="-49.43" font-family="Helvetica,sans-Serif" font-size="8.00"> m_ephemeral_and_recent</text>
<text text-anchor="middle" x="935.5" y="-40.43" font-family="Helvetica,sans-Serif" font-size="8.00">_ephemeral_ports</text>
<text text-anchor="middle" x="935.5" y="-31.43" font-family="Helvetica,sans-Serif" font-size="8.00">m_ephemeral_ports</text>
<text text-anchor="middle" x="935.5" y="-22.43" font-family="Helvetica,sans-Serif" font-size="8.00">m_service_ports</text>
</g>
<!-- Node16&#45;&gt;Node1 -->
<g id="edge17" class="edge">
<title>Node16&#45;&gt;Node1</title>
<path fill="none" stroke="#9a32cd" stroke-dasharray="5,2" d="M869.5,-107.79C906.79,-105.53 953.05,-104.92 994,-110.83 1002.78,-112.09 1012.03,-114.28 1020.7,-116.74"/>
<polygon fill="#9a32cd" stroke="#9a32cd" points="868.98,-104.32 859.23,-108.47 869.44,-111.3 868.98,-104.32"/>
<text text-anchor="start" x="891.5" y="-122.43" font-family="Helvetica,sans-Serif" font-size="8.00"> m_recent_ephemeral</text>
<text text-anchor="middle" x="935.5" y="-113.43" font-family="Helvetica,sans-Serif" font-size="8.00">_ports</text>
</g>
</g>
</svg>
