<?xml version="1.0" encoding="UTF-8" standalone="no"?>
<!DOCTYPE svg PUBLIC "-//W3C//DTD SVG 1.1//EN"
 "http://www.w3.org/Graphics/SVG/1.1/DTD/svg11.dtd">
<!-- Generated by graphviz version 2.43.0 (0)
 -->
<!-- Title: flow::net_flow::Peer_socket_info Pages: 1 -->
<svg width="1051pt" height="1391pt"
 viewBox="0.00 0.00 1051.00 1390.70" xmlns="http://www.w3.org/2000/svg" xmlns:xlink="http://www.w3.org/1999/xlink">
<g id="graph0" class="graph" transform="scale(1 1) rotate(0) translate(4 1386.7)">
<title>flow::net_flow::Peer_socket_info</title>
<polygon fill="white" stroke="transparent" points="-4,4 -4,-1386.7 1047,-1386.7 1047,4 -4,4"/>
<!-- Node1 -->
<g id="node1" class="node">
<title>Node1</title>
<g id="a_node1"><a xlink:title="A data store that keeps stats about the a Peer_socket connection.">
<polygon fill="#bfbfbf" stroke="black" points="946,-349.7 946,-375.7 1043,-375.7 1043,-349.7 946,-349.7"/>
<text text-anchor="start" x="954" y="-365.3" font-family="Helvetica,sans-Serif" font-size="8.00">flow::net_flow::Peer</text>
<text text-anchor="middle" x="994.5" y="-356.3" font-family="Helvetica,sans-Serif" font-size="8.00">_socket_info</text>
</a>
</g>
</g>
<!-- Node2 -->
<g id="node2" class="node">
<title>Node2</title>
<g id="a_node2"><a xlink:href="structflow_1_1net__flow_1_1Peer__socket__receive__stats.html" target="_top" xlink:title="A data store that keeps stats about the incoming direction of a Peer_socket connection to another Flo...">
<polygon fill="white" stroke="black" points="460.5,-1089.7 460.5,-1115.7 565.5,-1115.7 565.5,-1089.7 460.5,-1089.7"/>
<text text-anchor="start" x="468.5" y="-1105.3" font-family="Helvetica,sans-Serif" font-size="8.00">flow::net_flow::Peer</text>
<text text-anchor="middle" x="513" y="-1096.3" font-family="Helvetica,sans-Serif" font-size="8.00">_socket_receive_stats</text>
</a>
</g>
</g>
<!-- Node2&#45;&gt;Node1 -->
<g id="edge1" class="edge">
<title>Node2&#45;&gt;Node1</title>
<path fill="none" stroke="#9a32cd" stroke-dasharray="5,2" d="M575.41,-1088.11C670.45,-1061.87 850.32,-996.79 928,-865.7 979.29,-779.14 991.2,-446.37 993.17,-375.87"/>
<polygon fill="#9a32cd" stroke="#9a32cd" points="574.38,-1084.76 565.64,-1090.75 576.21,-1091.52 574.38,-1084.76"/>
<text text-anchor="middle" x="766.5" y="-1039.3" font-family="Helvetica,sans-Serif" font-size="8.00"> m_rcv</text>
</g>
<!-- Node3 -->
<g id="node3" class="node">
<title>Node3</title>
<g id="a_node3"><a xlink:title=" ">
<polygon fill="white" stroke="#bfbfbf" points="208,-1105.2 208,-1122.2 267,-1122.2 267,-1105.2 208,-1105.2"/>
<text text-anchor="middle" x="237.5" y="-1111.8" font-family="Helvetica,sans-Serif" font-size="8.00">time_point</text>
</a>
</g>
</g>
<!-- Node3&#45;&gt;Node2 -->
<g id="edge2" class="edge">
<title>Node3&#45;&gt;Node2</title>
<path fill="none" stroke="#9a32cd" stroke-dasharray="5,2" d="M277,-1107.5C288.25,-1105.95 300.59,-1104.5 312,-1103.7 362.22,-1100.17 419.72,-1100.32 460.13,-1101.11"/>
<polygon fill="#9a32cd" stroke="#9a32cd" points="276.43,-1104.05 267.03,-1108.94 277.43,-1110.97 276.43,-1104.05"/>
<text text-anchor="middle" x="375.5" y="-1106.3" font-family="Helvetica,sans-Serif" font-size="8.00"> m_init_time</text>
</g>
<!-- Node8 -->
<g id="node8" class="node">
<title>Node8</title>
<g id="a_node8"><a xlink:href="classflow_1_1net__flow_1_1Peer__socket__send__stats.html" target="_top" xlink:title="A data store that keeps stats about the outgoing direction of a Peer_socket connection to another Flo...">
<polygon fill="white" stroke="black" points="464.5,-931.7 464.5,-957.7 561.5,-957.7 561.5,-931.7 464.5,-931.7"/>
<text text-anchor="start" x="472.5" y="-947.3" font-family="Helvetica,sans-Serif" font-size="8.00">flow::net_flow::Peer</text>
<text text-anchor="middle" x="513" y="-938.3" font-family="Helvetica,sans-Serif" font-size="8.00">_socket_send_stats</text>
</a>
</g>
</g>
<!-- Node3&#45;&gt;Node8 -->
<g id="edge9" class="edge">
<title>Node3&#45;&gt;Node8</title>
<path fill="none" stroke="#9a32cd" stroke-dasharray="5,2" d="M276.64,-1103.43C283.15,-1100.24 289.31,-1096.09 294,-1090.7 314.82,-1066.8 288.75,-1043.24 312,-1021.7 354.07,-982.71 386.35,-1021.46 439,-998.7 462.01,-988.75 484.6,-970.33 498.41,-957.8"/>
<polygon fill="#9a32cd" stroke="#9a32cd" points="274.89,-1100.37 267,-1107.45 277.58,-1106.84 274.89,-1100.37"/>
<text text-anchor="middle" x="375.5" y="-1024.3" font-family="Helvetica,sans-Serif" font-size="8.00"> m_init_time</text>
</g>
<!-- Node4 -->
<g id="node4" class="node">
<title>Node4</title>
<g id="a_node4"><a xlink:title=" ">
<polygon fill="white" stroke="#bfbfbf" points="27,-1146.2 27,-1163.2 77,-1163.2 77,-1146.2 27,-1146.2"/>
<text text-anchor="middle" x="52" y="-1152.8" font-family="Helvetica,sans-Serif" font-size="8.00">uint64_t</text>
</a>
</g>
</g>
<!-- Node4&#45;&gt;Node2 -->
<g id="edge3" class="edge">
<title>Node4&#45;&gt;Node2</title>
<path fill="none" stroke="#9a32cd" stroke-dasharray="5,2" d="M78.67,-1167.77C143.27,-1198.69 316.2,-1269.18 439,-1205.7 475.99,-1186.58 498.29,-1139.1 507.32,-1115.89"/>
<polygon fill="#9a32cd" stroke="#9a32cd" points="80.12,-1164.58 69.6,-1163.34 77.05,-1170.87 80.12,-1164.58"/>
<text text-anchor="middle" x="237.5" y="-1376.3" font-family="Helvetica,sans-Serif" font-size="8.00"> m_delayed_acks_count</text>
<text text-anchor="middle" x="237.5" y="-1367.3" font-family="Helvetica,sans-Serif" font-size="8.00">m_error_data_count</text>
<text text-anchor="middle" x="237.5" y="-1358.3" font-family="Helvetica,sans-Serif" font-size="8.00">m_error_data_size</text>
<text text-anchor="start" x="189" y="-1349.3" font-family="Helvetica,sans-Serif" font-size="8.00">m_good_data_accepted</text>
<text text-anchor="middle" x="237.5" y="-1340.3" font-family="Helvetica,sans-Serif" font-size="8.00">_count</text>
<text text-anchor="start" x="189" y="-1331.3" font-family="Helvetica,sans-Serif" font-size="8.00">m_good_data_accepted</text>
<text text-anchor="middle" x="237.5" y="-1322.3" font-family="Helvetica,sans-Serif" font-size="8.00">_size</text>
<text text-anchor="middle" x="237.5" y="-1313.3" font-family="Helvetica,sans-Serif" font-size="8.00">m_good_data_count</text>
<text text-anchor="start" x="189" y="-1304.3" font-family="Helvetica,sans-Serif" font-size="8.00">m_good_data_delivered</text>
<text text-anchor="middle" x="237.5" y="-1295.3" font-family="Helvetica,sans-Serif" font-size="8.00">_count</text>
<text text-anchor="start" x="189" y="-1286.3" font-family="Helvetica,sans-Serif" font-size="8.00">m_good_data_delivered</text>
<text text-anchor="middle" x="237.5" y="-1277.3" font-family="Helvetica,sans-Serif" font-size="8.00">_size</text>
<text text-anchor="start" x="189" y="-1268.3" font-family="Helvetica,sans-Serif" font-size="8.00">m_good_data_dropped</text>
<text text-anchor="middle" x="237.5" y="-1259.3" font-family="Helvetica,sans-Serif" font-size="8.00">_buf_overflow_count</text>
<text text-anchor="start" x="189" y="-1250.3" font-family="Helvetica,sans-Serif" font-size="8.00">m_good_data_dropped</text>
<text text-anchor="middle" x="237.5" y="-1241.3" font-family="Helvetica,sans-Serif" font-size="8.00">_buf_overflow_size</text>
<text text-anchor="middle" x="237.5" y="-1232.3" font-family="Helvetica,sans-Serif" font-size="8.00">...</text>
</g>
<!-- Node6 -->
<g id="node6" class="node">
<title>Node6</title>
<g id="a_node6"><a xlink:title=" ">
<polygon fill="white" stroke="black" points="188,-1141.7 188,-1167.7 287,-1167.7 287,-1141.7 188,-1141.7"/>
<text text-anchor="start" x="196" y="-1157.3" font-family="Helvetica,sans-Serif" font-size="8.00">std::map&lt; std::type</text>
<text text-anchor="middle" x="237.5" y="-1148.3" font-family="Helvetica,sans-Serif" font-size="8.00">_index, uint64_t &gt;</text>
</a>
</g>
</g>
<!-- Node4&#45;&gt;Node6 -->
<g id="edge7" class="edge">
<title>Node4&#45;&gt;Node6</title>
<path fill="none" stroke="#9a32cd" stroke-dasharray="5,2" d="M87.59,-1154.7C115.91,-1154.7 156.32,-1154.7 187.9,-1154.7"/>
<polygon fill="#9a32cd" stroke="#9a32cd" points="87.37,-1151.2 77.37,-1154.7 87.37,-1158.2 87.37,-1151.2"/>
<text text-anchor="middle" x="142.5" y="-1157.3" font-family="Helvetica,sans-Serif" font-size="8.00"> elements</text>
</g>
<!-- Node4&#45;&gt;Node8 -->
<g id="edge10" class="edge">
<title>Node4&#45;&gt;Node8</title>
<path fill="none" stroke="#9a32cd" stroke-dasharray="5,2" d="M61.51,-1136.54C78.64,-1102.29 120.85,-1028.73 181,-996.7 282.61,-942.58 327,-1000.34 439,-973.7 454.52,-970.01 471.1,-963.63 484.54,-957.8"/>
<polygon fill="#9a32cd" stroke="#9a32cd" points="58.22,-1135.29 57,-1145.82 64.52,-1138.35 58.22,-1135.29"/>
<text text-anchor="middle" x="237.5" y="-1089.3" font-family="Helvetica,sans-Serif" font-size="8.00"> m_drop_timeouts</text>
<text text-anchor="middle" x="237.5" y="-1080.3" font-family="Helvetica,sans-Serif" font-size="8.00">m_dropped_data_count</text>
<text text-anchor="middle" x="237.5" y="-1071.3" font-family="Helvetica,sans-Serif" font-size="8.00">m_dropped_data_size</text>
<text text-anchor="middle" x="237.5" y="-1062.3" font-family="Helvetica,sans-Serif" font-size="8.00">m_error_acks_data_count</text>
<text text-anchor="middle" x="237.5" y="-1053.3" font-family="Helvetica,sans-Serif" font-size="8.00">m_good_ack_count</text>
<text text-anchor="middle" x="237.5" y="-1044.3" font-family="Helvetica,sans-Serif" font-size="8.00">m_good_ack_data_size</text>
<text text-anchor="middle" x="237.5" y="-1035.3" font-family="Helvetica,sans-Serif" font-size="8.00">m_idle_timeouts</text>
<text text-anchor="middle" x="237.5" y="-1026.3" font-family="Helvetica,sans-Serif" font-size="8.00">m_late_or_dupe_ack_count</text>
<text text-anchor="middle" x="237.5" y="-1017.3" font-family="Helvetica,sans-Serif" font-size="8.00">m_loss_events</text>
<text text-anchor="middle" x="237.5" y="-1008.3" font-family="Helvetica,sans-Serif" font-size="8.00">m_received_ack_count</text>
<text text-anchor="middle" x="237.5" y="-999.3" font-family="Helvetica,sans-Serif" font-size="8.00">...</text>
</g>
<!-- Node5 -->
<g id="node5" class="node">
<title>Node5</title>
<g id="a_node5"><a xlink:title=" ">
<polygon fill="white" stroke="#bfbfbf" points="217.5,-786.2 217.5,-803.2 257.5,-803.2 257.5,-786.2 217.5,-786.2"/>
<text text-anchor="middle" x="237.5" y="-792.8" font-family="Helvetica,sans-Serif" font-size="8.00">size_t</text>
</a>
</g>
</g>
<!-- Node5&#45;&gt;Node1 -->
<g id="edge20" class="edge">
<title>Node5&#45;&gt;Node1</title>
<path fill="none" stroke="#9a32cd" stroke-dasharray="5,2" d="M267.91,-798.79C345.25,-807.97 558.02,-822.96 698,-733.7 851.79,-635.64 960.67,-429.53 987.23,-375.75"/>
<polygon fill="#9a32cd" stroke="#9a32cd" points="268.27,-795.31 257.91,-797.54 267.4,-802.25 268.27,-795.31"/>
<text text-anchor="middle" x="642.5" y="-918.3" font-family="Helvetica,sans-Serif" font-size="8.00"> m_low_lvl_max_buf_size</text>
<text text-anchor="middle" x="642.5" y="-909.3" font-family="Helvetica,sans-Serif" font-size="8.00">m_rcv_buf_size</text>
<text text-anchor="start" x="587" y="-900.3" font-family="Helvetica,sans-Serif" font-size="8.00">m_rcv_packets_with</text>
<text text-anchor="middle" x="642.5" y="-891.3" font-family="Helvetica,sans-Serif" font-size="8.00">_gaps</text>
<text text-anchor="start" x="587" y="-882.3" font-family="Helvetica,sans-Serif" font-size="8.00">m_rcv_reassembly</text>
<text text-anchor="middle" x="642.5" y="-873.3" font-family="Helvetica,sans-Serif" font-size="8.00">_q_data_size</text>
<text text-anchor="start" x="587" y="-864.3" font-family="Helvetica,sans-Serif" font-size="8.00">m_rcv_syn_rcvd_data</text>
<text text-anchor="middle" x="642.5" y="-855.3" font-family="Helvetica,sans-Serif" font-size="8.00">_cumulative_size</text>
<text text-anchor="start" x="587" y="-846.3" font-family="Helvetica,sans-Serif" font-size="8.00">m_rcv_syn_rcvd_data</text>
<text text-anchor="middle" x="642.5" y="-837.3" font-family="Helvetica,sans-Serif" font-size="8.00">_q_size</text>
<text text-anchor="middle" x="642.5" y="-828.3" font-family="Helvetica,sans-Serif" font-size="8.00">m_rcv_wnd</text>
<text text-anchor="middle" x="642.5" y="-819.3" font-family="Helvetica,sans-Serif" font-size="8.00">m_rcv_wnd_last_advertised</text>
<text text-anchor="middle" x="642.5" y="-810.3" font-family="Helvetica,sans-Serif" font-size="8.00">m_snd_buf_size</text>
<text text-anchor="start" x="587" y="-801.3" font-family="Helvetica,sans-Serif" font-size="8.00">m_snd_cong_ctl_in</text>
<text text-anchor="middle" x="642.5" y="-792.3" font-family="Helvetica,sans-Serif" font-size="8.00">_flight_bytes</text>
<text text-anchor="middle" x="642.5" y="-783.3" font-family="Helvetica,sans-Serif" font-size="8.00">...</text>
</g>
<!-- Node5&#45;&gt;Node2 -->
<g id="edge4" class="edge">
<title>Node5&#45;&gt;Node2</title>
<path fill="none" stroke="#9a32cd" stroke-dasharray="5,2" d="M266.45,-807.29C276.84,-813.44 287.65,-821.87 294,-832.7 316.36,-870.81 284.04,-996.49 312,-1030.7 349.29,-1076.31 383.93,-1047.76 439,-1068.7 455.07,-1074.81 472.55,-1082.9 486.38,-1089.65"/>
<polygon fill="#9a32cd" stroke="#9a32cd" points="268,-804.15 257.53,-802.48 264.67,-810.31 268,-804.15"/>
<text text-anchor="start" x="324" y="-1089.3" font-family="Helvetica,sans-Serif" font-size="8.00"> m_current_pending_acks</text>
<text text-anchor="middle" x="375.5" y="-1080.3" font-family="Helvetica,sans-Serif" font-size="8.00">_count</text>
<text text-anchor="middle" x="375.5" y="-1071.3" font-family="Helvetica,sans-Serif" font-size="8.00">m_max_buf_data_size</text>
</g>
<!-- Node5&#45;&gt;Node8 -->
<g id="edge12" class="edge">
<title>Node5&#45;&gt;Node8</title>
<path fill="none" stroke="#9a32cd" stroke-dasharray="5,2" d="M267.72,-800.04C319.86,-809.75 424.84,-830.18 439,-839.7 473.64,-862.99 496.77,-908.7 506.62,-931.34"/>
<polygon fill="#9a32cd" stroke="#9a32cd" points="268.21,-796.57 257.74,-798.19 266.94,-803.46 268.21,-796.57"/>
<text text-anchor="middle" x="375.5" y="-842.3" font-family="Helvetica,sans-Serif" font-size="8.00"> m_max_buf_data_size</text>
</g>
<!-- Node20 -->
<g id="node20" class="node">
<title>Node20</title>
<g id="a_node20"><a xlink:href="structflow_1_1net__flow_1_1Peer__socket__options.html" target="_top" xlink:title="A set of low&#45;level options affecting a single Peer_socket.">
<polygon fill="white" stroke="black" points="464.5,-361.7 464.5,-387.7 561.5,-387.7 561.5,-361.7 464.5,-361.7"/>
<text text-anchor="start" x="472.5" y="-377.3" font-family="Helvetica,sans-Serif" font-size="8.00">flow::net_flow::Peer</text>
<text text-anchor="middle" x="513" y="-368.3" font-family="Helvetica,sans-Serif" font-size="8.00">_socket_options</text>
</a>
</g>
</g>
<!-- Node5&#45;&gt;Node20 -->
<g id="edge29" class="edge">
<title>Node5&#45;&gt;Node20</title>
<path fill="none" stroke="#9a32cd" stroke-dasharray="5,2" d="M245.17,-776.56C262.99,-728.16 310.45,-599.49 312,-597.7 354.12,-549.2 402.12,-581.29 439,-528.7 469.71,-484.91 427.82,-454.53 457,-409.7 462.99,-400.5 472.34,-393.25 481.64,-387.78"/>
<polygon fill="#9a32cd" stroke="#9a32cd" points="241.84,-775.48 241.67,-786.07 248.41,-777.9 241.84,-775.48"/>
<text text-anchor="start" x="324.5" y="-717.3" font-family="Helvetica,sans-Serif" font-size="8.00"> m_st_cong_ctl_cong</text>
<text text-anchor="start" x="324.5" y="-708.3" font-family="Helvetica,sans-Serif" font-size="8.00">_wnd_on_drop_timeout</text>
<text text-anchor="middle" x="375.5" y="-699.3" font-family="Helvetica,sans-Serif" font-size="8.00">_blocks</text>
<text text-anchor="start" x="324.5" y="-690.3" font-family="Helvetica,sans-Serif" font-size="8.00">m_st_cong_ctl_init</text>
<text text-anchor="middle" x="375.5" y="-681.3" font-family="Helvetica,sans-Serif" font-size="8.00">_cong_wnd_blocks</text>
<text text-anchor="start" x="324.5" y="-672.3" font-family="Helvetica,sans-Serif" font-size="8.00">m_st_cong_ctl_max_cong</text>
<text text-anchor="middle" x="375.5" y="-663.3" font-family="Helvetica,sans-Serif" font-size="8.00">_wnd_blocks</text>
<text text-anchor="middle" x="375.5" y="-654.3" font-family="Helvetica,sans-Serif" font-size="8.00">m_st_max_block_size</text>
<text text-anchor="start" x="324.5" y="-645.3" font-family="Helvetica,sans-Serif" font-size="8.00">m_st_max_full_blocks</text>
<text text-anchor="middle" x="375.5" y="-636.3" font-family="Helvetica,sans-Serif" font-size="8.00">_before_ack_send</text>
<text text-anchor="middle" x="375.5" y="-627.3" font-family="Helvetica,sans-Serif" font-size="8.00">m_st_rcv_buf_max_size</text>
<text text-anchor="start" x="324.5" y="-618.3" font-family="Helvetica,sans-Serif" font-size="8.00">m_st_rcv_sync_rcvd_data</text>
<text text-anchor="middle" x="375.5" y="-609.3" font-family="Helvetica,sans-Serif" font-size="8.00">_q_cumulative_max_size</text>
<text text-anchor="middle" x="375.5" y="-600.3" font-family="Helvetica,sans-Serif" font-size="8.00">m_st_snd_buf_max_size</text>
</g>
<!-- Node23 -->
<g id="node23" class="node">
<title>Node23</title>
<g id="a_node23"><a xlink:href="structflow_1_1net__flow_1_1Node__options.html" target="_top" xlink:title="A set of low&#45;level options affecting a single Flow Node, including Peer_socket objects and other obje...">
<polygon fill="white" stroke="black" points="716,-402.7 716,-428.7 817,-428.7 817,-402.7 716,-402.7"/>
<text text-anchor="start" x="724" y="-418.3" font-family="Helvetica,sans-Serif" font-size="8.00">flow::net_flow::Node</text>
<text text-anchor="middle" x="766.5" y="-409.3" font-family="Helvetica,sans-Serif" font-size="8.00">_options</text>
</a>
</g>
</g>
<!-- Node5&#45;&gt;Node23 -->
<g id="edge36" class="edge">
<title>Node5&#45;&gt;Node23</title>
<path fill="none" stroke="#9a32cd" stroke-dasharray="5,2" d="M258.18,-780.17C272.4,-770.46 292.46,-758.29 312,-751.7 393.88,-724.09 633.68,-762.41 698,-704.7 740.19,-666.85 759.72,-480.62 764.37,-428.99"/>
<polygon fill="#9a32cd" stroke="#9a32cd" points="255.9,-777.5 249.75,-786.12 259.94,-783.22 255.9,-777.5"/>
<text text-anchor="start" x="457" y="-760.3" font-family="Helvetica,sans-Serif" font-size="8.00"> m_dyn_low_lvl_max_packet</text>
<text text-anchor="middle" x="513" y="-751.3" font-family="Helvetica,sans-Serif" font-size="8.00">_size</text>
<text text-anchor="middle" x="513" y="-742.3" font-family="Helvetica,sans-Serif" font-size="8.00">m_st_low_lvl_max_buf_size</text>
</g>
<!-- Node6&#45;&gt;Node2 -->
<g id="edge5" class="edge">
<title>Node6&#45;&gt;Node2</title>
<path fill="none" stroke="#9a32cd" stroke-dasharray="5,2" d="M297.19,-1163.46C337.94,-1167.38 392.97,-1168.31 439,-1153.7 462.43,-1146.26 484.92,-1128.39 498.59,-1115.91"/>
<polygon fill="#9a32cd" stroke="#9a32cd" points="297.46,-1159.97 287.15,-1162.41 296.73,-1166.93 297.46,-1159.97"/>
<text text-anchor="start" x="325.5" y="-1195.3" font-family="Helvetica,sans-Serif" font-size="8.00"> m_low_lvl_packet_count</text>
<text text-anchor="middle" x="375.5" y="-1186.3" font-family="Helvetica,sans-Serif" font-size="8.00">_by_type</text>
<text text-anchor="start" x="325.5" y="-1177.3" font-family="Helvetica,sans-Serif" font-size="8.00">m_low_lvl_packet_size</text>
<text text-anchor="middle" x="375.5" y="-1168.3" font-family="Helvetica,sans-Serif" font-size="8.00">_by_type</text>
</g>
<!-- Node6&#45;&gt;Node8 -->
<g id="edge13" class="edge">
<title>Node6&#45;&gt;Node8</title>
<path fill="none" stroke="#9a32cd" stroke-dasharray="5,2" d="M286.17,-1138.61C294.71,-1136.06 303.57,-1133.64 312,-1131.7 367.62,-1118.92 393.73,-1147.45 439,-1112.7 445.67,-1107.58 491.15,-996.25 506.75,-957.7"/>
<polygon fill="#9a32cd" stroke="#9a32cd" points="284.87,-1135.35 276.34,-1141.63 286.93,-1142.04 284.87,-1135.35"/>
<text text-anchor="start" x="321" y="-1143.3" font-family="Helvetica,sans-Serif" font-size="8.00"> m_low_lvl_packet_xfer</text>
<text text-anchor="middle" x="375.5" y="-1134.3" font-family="Helvetica,sans-Serif" font-size="8.00">_requested_count_by_type</text>
</g>
<!-- Node7 -->
<g id="node7" class="node">
<title>Node7</title>
<g id="a_node7"><a xlink:title=" ">
<polygon fill="white" stroke="#bfbfbf" points="22,-923.2 22,-940.2 82,-940.2 82,-923.2 22,-923.2"/>
<text text-anchor="middle" x="52" y="-929.8" font-family="Helvetica,sans-Serif" font-size="8.00">type_index</text>
</a>
</g>
</g>
<!-- Node7&#45;&gt;Node6 -->
<g id="edge6" class="edge">
<title>Node7&#45;&gt;Node6</title>
<path fill="none" stroke="#9a32cd" stroke-dasharray="5,2" d="M60.01,-949.57C75.92,-987.99 118.31,-1079.2 181,-1131.7 185.64,-1135.58 191.02,-1138.89 196.58,-1141.68"/>
<polygon fill="#9a32cd" stroke="#9a32cd" points="63.22,-948.17 56.23,-940.21 56.73,-950.79 63.22,-948.17"/>
<text text-anchor="middle" x="142.5" y="-1116.3" font-family="Helvetica,sans-Serif" font-size="8.00"> keys</text>
</g>
<!-- Node10 -->
<g id="node10" class="node">
<title>Node10</title>
<g id="a_node10"><a xlink:title=" ">
<polygon fill="white" stroke="black" points="188,-914.2 188,-949.2 287,-949.2 287,-914.2 188,-914.2"/>
<text text-anchor="start" x="196" y="-938.8" font-family="Helvetica,sans-Serif" font-size="8.00">std::map&lt; std::type</text>
<text text-anchor="start" x="196" y="-929.8" font-family="Helvetica,sans-Serif" font-size="8.00">_index, boost::array</text>
<text text-anchor="middle" x="237.5" y="-920.8" font-family="Helvetica,sans-Serif" font-size="8.00">&lt; uint64_t, 2 &gt; &gt;</text>
</a>
</g>
</g>
<!-- Node7&#45;&gt;Node10 -->
<g id="edge15" class="edge">
<title>Node7&#45;&gt;Node10</title>
<path fill="none" stroke="#9a32cd" stroke-dasharray="5,2" d="M92.28,-931.7C120.25,-931.7 158.03,-931.7 187.9,-931.7"/>
<polygon fill="#9a32cd" stroke="#9a32cd" points="92.08,-928.2 82.08,-931.7 92.08,-935.2 92.08,-928.2"/>
<text text-anchor="middle" x="142.5" y="-934.3" font-family="Helvetica,sans-Serif" font-size="8.00"> keys</text>
</g>
<!-- Node12 -->
<g id="node12" class="node">
<title>Node12</title>
<g id="a_node12"><a xlink:title=" ">
<polygon fill="white" stroke="black" points="181,-842.2 181,-877.2 294,-877.2 294,-842.2 181,-842.2"/>
<text text-anchor="start" x="189" y="-866.8" font-family="Helvetica,sans-Serif" font-size="8.00">std::map&lt; std::type</text>
<text text-anchor="start" x="189" y="-857.8" font-family="Helvetica,sans-Serif" font-size="8.00">_index, std::map&lt; Xfer</text>
<text text-anchor="middle" x="237.5" y="-848.8" font-family="Helvetica,sans-Serif" font-size="8.00">_op_result, uint64_t &gt; &gt;</text>
</a>
</g>
</g>
<!-- Node7&#45;&gt;Node12 -->
<g id="edge18" class="edge">
<title>Node7&#45;&gt;Node12</title>
<path fill="none" stroke="#9a32cd" stroke-dasharray="5,2" d="M84.16,-919.47C113.68,-907.89 158.33,-890.37 191.67,-877.29"/>
<polygon fill="#9a32cd" stroke="#9a32cd" points="82.8,-916.25 74.77,-923.16 85.36,-922.76 82.8,-916.25"/>
<text text-anchor="middle" x="142.5" y="-906.3" font-family="Helvetica,sans-Serif" font-size="8.00"> keys</text>
</g>
<!-- Node8&#45;&gt;Node1 -->
<g id="edge8" class="edge">
<title>Node8&#45;&gt;Node1</title>
<path fill="none" stroke="#9a32cd" stroke-dasharray="5,2" d="M571.89,-950.25C608.67,-952.05 656.93,-951.18 698,-939.7 811.3,-908.04 861.63,-905.83 928,-808.7 978.11,-735.36 990.85,-441.41 993.1,-375.75"/>
<polygon fill="#9a32cd" stroke="#9a32cd" points="572.01,-946.75 561.83,-949.68 571.62,-953.74 572.01,-946.75"/>
<text text-anchor="middle" x="766.5" y="-936.3" font-family="Helvetica,sans-Serif" font-size="8.00"> m_snd</text>
</g>
<!-- Node9 -->
<g id="node9" class="node">
<title>Node9</title>
<g id="a_node9"><a xlink:href="classbool.html" target="_top" xlink:title=" ">
<polygon fill="white" stroke="#bfbfbf" points="220,-617.2 220,-634.2 255,-634.2 255,-617.2 220,-617.2"/>
<text text-anchor="middle" x="237.5" y="-623.8" font-family="Helvetica,sans-Serif" font-size="8.00">bool</text>
</a>
</g>
</g>
<!-- Node9&#45;&gt;Node1 -->
<g id="edge23" class="edge">
<title>Node9&#45;&gt;Node1</title>
<path fill="none" stroke="#9a32cd" stroke-dasharray="5,2" d="M249.71,-643.01C262.37,-660.82 284.81,-687.49 312,-698.7 364.18,-720.21 384.54,-713.54 439,-698.7 679.55,-633.13 918.95,-429.49 979.11,-375.79"/>
<polygon fill="#9a32cd" stroke="#9a32cd" points="252.52,-640.93 244,-634.64 246.74,-644.87 252.52,-640.93"/>
<text text-anchor="middle" x="642.5" y="-642.3" font-family="Helvetica,sans-Serif" font-size="8.00"> m_is_active_connect</text>
</g>
<!-- Node9&#45;&gt;Node8 -->
<g id="edge11" class="edge">
<title>Node9&#45;&gt;Node8</title>
<path fill="none" stroke="#9a32cd" stroke-dasharray="5,2" d="M247.86,-643.03C260.26,-664.72 283.86,-702.03 312,-726.7 360.31,-769.04 394.54,-749.33 439,-795.7 478.47,-836.87 500.55,-903.49 508.53,-931.56"/>
<polygon fill="#9a32cd" stroke="#9a32cd" points="250.9,-641.29 242.98,-634.26 244.79,-644.7 250.9,-641.29"/>
<text text-anchor="middle" x="375.5" y="-798.3" font-family="Helvetica,sans-Serif" font-size="8.00"> m_rcv_wnd_exhausted</text>
</g>
<!-- Node9&#45;&gt;Node20 -->
<g id="edge31" class="edge">
<title>Node9&#45;&gt;Node20</title>
<path fill="none" stroke="#9a32cd" stroke-dasharray="5,2" d="M238.76,-606.79C240.45,-564.02 250.95,-459.6 312,-407.7 317.8,-402.77 407.1,-389.43 464.39,-381.3"/>
<polygon fill="#9a32cd" stroke="#9a32cd" points="235.26,-606.81 238.49,-616.9 242.26,-607 235.26,-606.81"/>
<text text-anchor="start" x="328.5" y="-518.3" font-family="Helvetica,sans-Serif" font-size="8.00"> m_st_drop_all_on_drop</text>
<text text-anchor="middle" x="375.5" y="-509.3" font-family="Helvetica,sans-Serif" font-size="8.00">_timeout</text>
<text text-anchor="start" x="328.5" y="-500.3" font-family="Helvetica,sans-Serif" font-size="8.00">m_st_drop_packet</text>
<text text-anchor="start" x="328.5" y="-491.3" font-family="Helvetica,sans-Serif" font-size="8.00">_exactly_after_drop</text>
<text text-anchor="middle" x="375.5" y="-482.3" font-family="Helvetica,sans-Serif" font-size="8.00">_timeout</text>
<text text-anchor="start" x="328.5" y="-473.3" font-family="Helvetica,sans-Serif" font-size="8.00">m_st_out_of_order</text>
<text text-anchor="start" x="328.5" y="-464.3" font-family="Helvetica,sans-Serif" font-size="8.00">_ack_restarts_drop</text>
<text text-anchor="middle" x="375.5" y="-455.3" font-family="Helvetica,sans-Serif" font-size="8.00">_timer</text>
<text text-anchor="start" x="328.5" y="-446.3" font-family="Helvetica,sans-Serif" font-size="8.00">m_st_rcv_flow_control</text>
<text text-anchor="middle" x="375.5" y="-437.3" font-family="Helvetica,sans-Serif" font-size="8.00">_on</text>
<text text-anchor="middle" x="375.5" y="-428.3" font-family="Helvetica,sans-Serif" font-size="8.00">m_st_rexmit_on</text>
<text text-anchor="start" x="328.5" y="-419.3" font-family="Helvetica,sans-Serif" font-size="8.00">m_st_snd_pacing</text>
<text text-anchor="middle" x="375.5" y="-410.3" font-family="Helvetica,sans-Serif" font-size="8.00">_enabled</text>
</g>
<!-- Node9&#45;&gt;Node23 -->
<g id="edge35" class="edge">
<title>Node9&#45;&gt;Node23</title>
<path fill="none" stroke="#9a32cd" stroke-dasharray="5,2" d="M251.02,-608.51C264.26,-591.65 286.69,-566.51 312,-552.7 362.74,-525.01 383.29,-540.09 439,-524.7 546.71,-494.93 671.28,-450.49 730.6,-428.7"/>
<polygon fill="#9a32cd" stroke="#9a32cd" points="247.91,-606.83 244.66,-616.91 253.49,-611.06 247.91,-606.83"/>
<text text-anchor="start" x="465.5" y="-557.3" font-family="Helvetica,sans-Serif" font-size="8.00"> m_dyn_guarantee_one</text>
<text text-anchor="start" x="465.5" y="-548.3" font-family="Helvetica,sans-Serif" font-size="8.00">_low_lvl_in_buf_per</text>
<text text-anchor="middle" x="513" y="-539.3" font-family="Helvetica,sans-Serif" font-size="8.00">_socket</text>
<text text-anchor="start" x="465.5" y="-530.3" font-family="Helvetica,sans-Serif" font-size="8.00">m_st_capture_interrupt</text>
<text text-anchor="middle" x="513" y="-521.3" font-family="Helvetica,sans-Serif" font-size="8.00">_signals_internally</text>
</g>
<!-- Node10&#45;&gt;Node8 -->
<g id="edge14" class="edge">
<title>Node10&#45;&gt;Node8</title>
<path fill="none" stroke="#9a32cd" stroke-dasharray="5,2" d="M297.27,-932.44C337.26,-933.2 391.36,-934.71 439,-937.7 447.13,-938.21 455.76,-938.9 464.13,-939.66"/>
<polygon fill="#9a32cd" stroke="#9a32cd" points="297.22,-928.94 287.16,-932.26 297.1,-935.94 297.22,-928.94"/>
<text text-anchor="start" x="329.5" y="-967.3" font-family="Helvetica,sans-Serif" font-size="8.00"> m_low_lvl_packet_xfer</text>
<text text-anchor="middle" x="375.5" y="-958.3" font-family="Helvetica,sans-Serif" font-size="8.00">_called_count_by_type</text>
<text text-anchor="start" x="329.5" y="-949.3" font-family="Helvetica,sans-Serif" font-size="8.00">m_low_lvl_packet_xfer</text>
<text text-anchor="middle" x="375.5" y="-940.3" font-family="Helvetica,sans-Serif" font-size="8.00">_called_size_by_type</text>
</g>
<!-- Node11 -->
<g id="node11" class="node">
<title>Node11</title>
<g id="a_node11"><a xlink:title=" ">
<polygon fill="white" stroke="#bfbfbf" points="3,-859.2 3,-876.2 101,-876.2 101,-859.2 3,-859.2"/>
<text text-anchor="middle" x="52" y="-865.8" font-family="Helvetica,sans-Serif" font-size="8.00">array&lt; uint64_t, 2 &gt;</text>
</a>
</g>
</g>
<!-- Node11&#45;&gt;Node10 -->
<g id="edge16" class="edge">
<title>Node11&#45;&gt;Node10</title>
<path fill="none" stroke="#9a32cd" stroke-dasharray="5,2" d="M111.63,-860.03C128.74,-859.94 147.1,-862.03 163,-868.7 173.43,-873.08 172.59,-879.13 181,-886.7 191.41,-896.08 203.45,-905.95 213.64,-914.05"/>
<polygon fill="#9a32cd" stroke="#9a32cd" points="111.06,-856.54 101.17,-860.34 111.27,-863.54 111.06,-856.54"/>
<text text-anchor="middle" x="142.5" y="-871.3" font-family="Helvetica,sans-Serif" font-size="8.00"> elements</text>
</g>
<!-- Node12&#45;&gt;Node8 -->
<g id="edge17" class="edge">
<title>Node12&#45;&gt;Node8</title>
<path fill="none" stroke="#9a32cd" stroke-dasharray="5,2" d="M304.17,-853.64C344.7,-852.51 396.83,-855.89 439,-874.7 466.9,-887.14 490.6,-915.01 502.92,-931.58"/>
<polygon fill="#9a32cd" stroke="#9a32cd" points="303.99,-850.15 294.13,-854.02 304.25,-857.14 303.99,-850.15"/>
<text text-anchor="start" x="320.5" y="-922.3" font-family="Helvetica,sans-Serif" font-size="8.00"> m_low_lvl_packet_xfer</text>
<text text-anchor="start" x="320.5" y="-913.3" font-family="Helvetica,sans-Serif" font-size="8.00">_completed_count_by_type</text>
<text text-anchor="middle" x="375.5" y="-904.3" font-family="Helvetica,sans-Serif" font-size="8.00">_and_result</text>
<text text-anchor="start" x="320.5" y="-895.3" font-family="Helvetica,sans-Serif" font-size="8.00">m_low_lvl_packet_xfer</text>
<text text-anchor="start" x="320.5" y="-886.3" font-family="Helvetica,sans-Serif" font-size="8.00">_completed_size_by_type</text>
<text text-anchor="middle" x="375.5" y="-877.3" font-family="Helvetica,sans-Serif" font-size="8.00">_and_result</text>
</g>
<!-- Node13 -->
<g id="node13" class="node">
<title>Node13</title>
<g id="a_node13"><a xlink:title=" ">
<polygon fill="white" stroke="#bfbfbf" points="0,-813.7 0,-839.7 104,-839.7 104,-813.7 0,-813.7"/>
<text text-anchor="start" x="8" y="-829.3" font-family="Helvetica,sans-Serif" font-size="8.00">map&lt; Xfer_op_result,</text>
<text text-anchor="middle" x="52" y="-820.3" font-family="Helvetica,sans-Serif" font-size="8.00"> uint64_t &gt;</text>
</a>
</g>
</g>
<!-- Node13&#45;&gt;Node12 -->
<g id="edge19" class="edge">
<title>Node13&#45;&gt;Node12</title>
<path fill="none" stroke="#9a32cd" stroke-dasharray="5,2" d="M114.51,-829.97C130.4,-831.45 147.42,-833.59 163,-836.7 170.21,-838.14 177.72,-840.02 185.06,-842.09"/>
<polygon fill="#9a32cd" stroke="#9a32cd" points="114.52,-826.46 104.26,-829.09 113.92,-833.43 114.52,-826.46"/>
<text text-anchor="middle" x="142.5" y="-839.3" font-family="Helvetica,sans-Serif" font-size="8.00"> elements</text>
</g>
<!-- Node14 -->
<g id="node14" class="node">
<title>Node14</title>
<g id="a_node14"><a xlink:title=" ">
<polygon fill="white" stroke="black" points="737,-164.2 737,-181.2 796,-181.2 796,-164.2 737,-164.2"/>
<text text-anchor="middle" x="766.5" y="-170.8" font-family="Helvetica,sans-Serif" font-size="8.00">std::string</text>
</a>
</g>
</g>
<!-- Node14&#45;&gt;Node1 -->
<g id="edge21" class="edge">
<title>Node14&#45;&gt;Node1</title>
<path fill="none" stroke="#9a32cd" stroke-dasharray="5,2" d="M806.19,-165.31C841.52,-160.85 893.36,-160.33 928,-186.7 981.18,-227.19 991.19,-315.69 993.07,-349.35"/>
<polygon fill="#9a32cd" stroke="#9a32cd" points="805.65,-161.85 796.25,-166.72 806.64,-168.78 805.65,-161.85"/>
<text text-anchor="middle" x="881.5" y="-189.3" font-family="Helvetica,sans-Serif" font-size="8.00"> m_int_state_str</text>
</g>
<!-- Node15 -->
<g id="node15" class="node">
<title>Node15</title>
<g id="a_node15"><a xlink:title=" ">
<polygon fill="white" stroke="black" points="467.5,-59.7 467.5,-85.7 558.5,-85.7 558.5,-59.7 467.5,-59.7"/>
<text text-anchor="start" x="475.5" y="-75.3" font-family="Helvetica,sans-Serif" font-size="8.00">std::basic_string&lt;</text>
<text text-anchor="middle" x="513" y="-66.3" font-family="Helvetica,sans-Serif" font-size="8.00"> Char &gt;</text>
</a>
</g>
</g>
<!-- Node15&#45;&gt;Node14 -->
<g id="edge22" class="edge">
<title>Node15&#45;&gt;Node14</title>
<path fill="none" stroke="midnightblue" d="M568.9,-63.72C609.14,-60.36 662.68,-63.05 698,-92.7 719.98,-111.15 696.39,-133.75 716,-154.7 721.56,-160.64 729.24,-164.63 736.89,-167.3"/>
<polygon fill="midnightblue" stroke="midnightblue" points="568.33,-60.26 558.72,-64.72 569.01,-67.22 568.33,-60.26"/>
</g>
<!-- Node16 -->
<g id="node16" class="node">
<title>Node16</title>
<g id="a_node16"><a xlink:title=" ">
<polygon fill="white" stroke="#bfbfbf" points="736.5,-128.2 736.5,-145.2 796.5,-145.2 796.5,-128.2 736.5,-128.2"/>
<text text-anchor="middle" x="766.5" y="-134.8" font-family="Helvetica,sans-Serif" font-size="8.00">error_code</text>
</a>
</g>
</g>
<!-- Node16&#45;&gt;Node1 -->
<g id="edge24" class="edge">
<title>Node16&#45;&gt;Node1</title>
<path fill="none" stroke="#9a32cd" stroke-dasharray="5,2" d="M806.54,-128.86C842.12,-124.09 894.13,-123.36 928,-150.7 990.95,-201.51 994.7,-311.62 994.01,-349.55"/>
<polygon fill="#9a32cd" stroke="#9a32cd" points="805.89,-125.42 796.52,-130.37 806.93,-132.34 805.89,-125.42"/>
<text text-anchor="middle" x="881.5" y="-153.3" font-family="Helvetica,sans-Serif" font-size="8.00"> m_disconnect_cause</text>
</g>
<!-- Node17 -->
<g id="node17" class="node">
<title>Node17</title>
<g id="a_node17"><a xlink:title=" ">
<polygon fill="white" stroke="#bfbfbf" points="202,-18.2 202,-35.2 273,-35.2 273,-18.2 202,-18.2"/>
<text text-anchor="middle" x="237.5" y="-24.8" font-family="Helvetica,sans-Serif" font-size="8.00">Fine_duration</text>
</a>
</g>
</g>
<!-- Node17&#45;&gt;Node1 -->
<g id="edge25" class="edge">
<title>Node17&#45;&gt;Node1</title>
<path fill="none" stroke="#9a32cd" stroke-dasharray="5,2" d="M270.91,-14.96C314.1,-1.58 390.67,13.91 439,-23.7 464.69,-43.69 436.58,-69.34 457,-94.7 474.96,-117 858.27,-298.9 965.72,-349.61"/>
<polygon fill="#9a32cd" stroke="#9a32cd" points="269.63,-11.69 261.2,-18.1 271.79,-18.35 269.63,-11.69"/>
<text text-anchor="middle" x="642.5" y="-277.3" font-family="Helvetica,sans-Serif" font-size="8.00"> m_snd_drop_timeout</text>
<text text-anchor="start" x="592.5" y="-268.3" font-family="Helvetica,sans-Serif" font-size="8.00">m_snd_pacing_slice</text>
<text text-anchor="middle" x="642.5" y="-259.3" font-family="Helvetica,sans-Serif" font-size="8.00">_period</text>
<text text-anchor="start" x="592.5" y="-250.3" font-family="Helvetica,sans-Serif" font-size="8.00">m_snd_round_trip</text>
<text text-anchor="middle" x="642.5" y="-241.3" font-family="Helvetica,sans-Serif" font-size="8.00">_time_variance</text>
<text text-anchor="start" x="592.5" y="-232.3" font-family="Helvetica,sans-Serif" font-size="8.00">m_snd_smoothed_round</text>
<text text-anchor="middle" x="642.5" y="-223.3" font-family="Helvetica,sans-Serif" font-size="8.00">_trip_time</text>
</g>
<!-- Node17&#45;&gt;Node20 -->
<g id="edge30" class="edge">
<title>Node17&#45;&gt;Node20</title>
<path fill="none" stroke="#9a32cd" stroke-dasharray="5,2" d="M283.08,-22.06C329.24,-19.96 399.96,-24.85 439,-67.7 463.84,-94.97 448.26,-196.86 457,-232.7 468.96,-281.76 493.69,-336.66 505.48,-361.37"/>
<polygon fill="#9a32cd" stroke="#9a32cd" points="282.83,-18.57 273.05,-22.64 283.24,-25.55 282.83,-18.57"/>
<text text-anchor="start" x="324" y="-196.3" font-family="Helvetica,sans-Serif" font-size="8.00"> m_dyn_drop_timeout</text>
<text text-anchor="middle" x="375.5" y="-187.3" font-family="Helvetica,sans-Serif" font-size="8.00">_ceiling</text>
<text text-anchor="start" x="324" y="-178.3" font-family="Helvetica,sans-Serif" font-size="8.00">m_dyn_rcv_wnd_recovery</text>
<text text-anchor="middle" x="375.5" y="-169.3" font-family="Helvetica,sans-Serif" font-size="8.00">_max_period</text>
<text text-anchor="start" x="324" y="-160.3" font-family="Helvetica,sans-Serif" font-size="8.00">m_dyn_rcv_wnd_recovery</text>
<text text-anchor="middle" x="375.5" y="-151.3" font-family="Helvetica,sans-Serif" font-size="8.00">_timer_period</text>
<text text-anchor="start" x="324" y="-142.3" font-family="Helvetica,sans-Serif" font-size="8.00">m_st_connect_retransmit</text>
<text text-anchor="middle" x="375.5" y="-133.3" font-family="Helvetica,sans-Serif" font-size="8.00">_period</text>
<text text-anchor="start" x="324" y="-124.3" font-family="Helvetica,sans-Serif" font-size="8.00">m_st_connect_retransmit</text>
<text text-anchor="middle" x="375.5" y="-115.3" font-family="Helvetica,sans-Serif" font-size="8.00">_timeout</text>
<text text-anchor="start" x="324" y="-106.3" font-family="Helvetica,sans-Serif" font-size="8.00">m_st_delayed_ack_timer</text>
<text text-anchor="middle" x="375.5" y="-97.3" font-family="Helvetica,sans-Serif" font-size="8.00">_period</text>
<text text-anchor="middle" x="375.5" y="-88.3" font-family="Helvetica,sans-Serif" font-size="8.00">m_st_init_drop_timeout</text>
<text text-anchor="start" x="324" y="-79.3" font-family="Helvetica,sans-Serif" font-size="8.00">m_st_snd_bandwidth_est</text>
<text text-anchor="middle" x="375.5" y="-70.3" font-family="Helvetica,sans-Serif" font-size="8.00">_sample_period_floor</text>
</g>
<!-- Node18 -->
<g id="node18" class="node">
<title>Node18</title>
<g id="a_node18"><a xlink:title=" ">
<polygon fill="white" stroke="#bfbfbf" points="733,-92.2 733,-109.2 800,-109.2 800,-92.2 733,-92.2"/>
<text text-anchor="middle" x="766.5" y="-98.8" font-family="Helvetica,sans-Serif" font-size="8.00">Fine_time_pt</text>
</a>
</g>
</g>
<!-- Node18&#45;&gt;Node1 -->
<g id="edge26" class="edge">
<title>Node18&#45;&gt;Node1</title>
<path fill="none" stroke="#9a32cd" stroke-dasharray="5,2" d="M805.6,-89.78C841.18,-82.08 893.8,-77.4 928,-104.7 967.37,-136.12 987.19,-301.12 992.2,-349.41"/>
<polygon fill="#9a32cd" stroke="#9a32cd" points="804.53,-86.44 795.59,-92.13 806.13,-93.26 804.53,-86.44"/>
<text text-anchor="start" x="840" y="-116.3" font-family="Helvetica,sans-Serif" font-size="8.00"> m_snd_pacing_slice</text>
<text text-anchor="middle" x="881.5" y="-107.3" font-family="Helvetica,sans-Serif" font-size="8.00">_start</text>
</g>
<!-- Node19 -->
<g id="node19" class="node">
<title>Node19</title>
<g id="a_node19"><a xlink:title=" ">
<polygon fill="white" stroke="#bfbfbf" points="744,-51.2 744,-68.2 789,-68.2 789,-51.2 744,-51.2"/>
<text text-anchor="middle" x="766.5" y="-57.8" font-family="Helvetica,sans-Serif" font-size="8.00">double</text>
</a>
</g>
</g>
<!-- Node19&#45;&gt;Node1 -->
<g id="edge27" class="edge">
<title>Node19&#45;&gt;Node1</title>
<path fill="none" stroke="#9a32cd" stroke-dasharray="5,2" d="M798.86,-49.9C834.36,-40.94 891.92,-33.09 928,-62.7 973.53,-100.07 989.27,-296.49 992.72,-349.51"/>
<polygon fill="#9a32cd" stroke="#9a32cd" points="797.78,-46.57 789.04,-52.56 799.61,-53.33 797.78,-46.57"/>
<text text-anchor="start" x="835" y="-74.3" font-family="Helvetica,sans-Serif" font-size="8.00"> m_snd_est_bandwidth</text>
<text text-anchor="middle" x="881.5" y="-65.3" font-family="Helvetica,sans-Serif" font-size="8.00">_mbit_per_sec</text>
</g>
<!-- Node20&#45;&gt;Node1 -->
<g id="edge28" class="edge">
<title>Node20&#45;&gt;Node1</title>
<path fill="none" stroke="#9a32cd" stroke-dasharray="5,2" d="M571.82,-373.25C667.61,-370.86 857.43,-366.1 945.96,-363.89"/>
<polygon fill="#9a32cd" stroke="#9a32cd" points="571.64,-369.76 561.73,-373.5 571.81,-376.75 571.64,-369.76"/>
<text text-anchor="middle" x="766.5" y="-371.3" font-family="Helvetica,sans-Serif" font-size="8.00"> m_sock_opts</text>
</g>
<!-- Node20&#45;&gt;Node23 -->
<g id="edge39" class="edge">
<title>Node20&#45;&gt;Node23</title>
<path fill="none" stroke="#9a32cd" stroke-dasharray="5,2" d="M571.49,-384.07C615.1,-391.18 674.42,-400.85 715.94,-407.62"/>
<polygon fill="#9a32cd" stroke="#9a32cd" points="572.03,-380.61 561.6,-382.46 570.91,-387.52 572.03,-380.61"/>
<text text-anchor="middle" x="642.5" y="-405.3" font-family="Helvetica,sans-Serif" font-size="8.00"> m_dyn_sock_opts</text>
</g>
<!-- Node21 -->
<g id="node21" class="node">
<title>Node21</title>
<g id="a_node21"><a xlink:title=" ">
<polygon fill="white" stroke="#bfbfbf" points="203.5,-200.2 203.5,-217.2 271.5,-217.2 271.5,-200.2 203.5,-200.2"/>
<text text-anchor="middle" x="237.5" y="-206.8" font-family="Helvetica,sans-Serif" font-size="8.00">unsigned int</text>
</a>
</g>
</g>
<!-- Node21&#45;&gt;Node20 -->
<g id="edge32" class="edge">
<title>Node21&#45;&gt;Node20</title>
<path fill="none" stroke="#9a32cd" stroke-dasharray="5,2" d="M281.6,-206.26C325.19,-205.96 392.58,-211.67 439,-244.7 480.34,-274.11 501.17,-334.69 508.66,-361.47"/>
<polygon fill="#9a32cd" stroke="#9a32cd" points="281.54,-202.76 271.6,-206.43 281.66,-209.76 281.54,-202.76"/>
<text text-anchor="start" x="312" y="-364.3" font-family="Helvetica,sans-Serif" font-size="8.00"> m_dyn_drop_timeout</text>
<text text-anchor="middle" x="375.5" y="-355.3" font-family="Helvetica,sans-Serif" font-size="8.00">_backoff_factor</text>
<text text-anchor="start" x="312" y="-346.3" font-family="Helvetica,sans-Serif" font-size="8.00">m_st_cong_ctl_classic</text>
<text text-anchor="middle" x="375.5" y="-337.3" font-family="Helvetica,sans-Serif" font-size="8.00">_wnd_decay_percent</text>
<text text-anchor="start" x="312" y="-328.3" font-family="Helvetica,sans-Serif" font-size="8.00">m_st_cong_ctl_cong_avoidance</text>
<text text-anchor="middle" x="375.5" y="-319.3" font-family="Helvetica,sans-Serif" font-size="8.00">_increment_blocks</text>
<text text-anchor="start" x="312" y="-310.3" font-family="Helvetica,sans-Serif" font-size="8.00">m_st_max_rexmissions_per</text>
<text text-anchor="middle" x="375.5" y="-301.3" font-family="Helvetica,sans-Serif" font-size="8.00">_packet</text>
<text text-anchor="start" x="312" y="-292.3" font-family="Helvetica,sans-Serif" font-size="8.00">m_st_rcv_buf_max_size</text>
<text text-anchor="middle" x="375.5" y="-283.3" font-family="Helvetica,sans-Serif" font-size="8.00">_slack_percent</text>
<text text-anchor="start" x="312" y="-274.3" font-family="Helvetica,sans-Serif" font-size="8.00">m_st_rcv_buf_max_size</text>
<text text-anchor="middle" x="375.5" y="-265.3" font-family="Helvetica,sans-Serif" font-size="8.00">_to_advertise_percent</text>
<text text-anchor="start" x="312" y="-256.3" font-family="Helvetica,sans-Serif" font-size="8.00">m_st_rcv_max_packets_after</text>
<text text-anchor="middle" x="375.5" y="-247.3" font-family="Helvetica,sans-Serif" font-size="8.00">_unrecvd_packet_ratio_percent</text>
</g>
<!-- Node21&#45;&gt;Node23 -->
<g id="edge38" class="edge">
<title>Node21&#45;&gt;Node23</title>
<path fill="none" stroke="#9a32cd" stroke-dasharray="5,2" d="M281.59,-201.17C322.87,-195.59 386.49,-191.33 439,-206.7 473.8,-216.88 681.38,-358.02 746.18,-402.43"/>
<polygon fill="#9a32cd" stroke="#9a32cd" points="280.99,-197.71 271.59,-202.6 281.99,-204.64 280.99,-197.71"/>
<text text-anchor="start" x="462" y="-311.3" font-family="Helvetica,sans-Serif" font-size="8.00"> m_dyn_accept_backlog</text>
<text text-anchor="middle" x="513" y="-302.3" font-family="Helvetica,sans-Serif" font-size="8.00">_limit</text>
<text text-anchor="start" x="462" y="-293.3" font-family="Helvetica,sans-Serif" font-size="8.00">m_dyn_max_packets</text>
<text text-anchor="middle" x="513" y="-284.3" font-family="Helvetica,sans-Serif" font-size="8.00">_per_main_loop_iteration</text>
</g>
<!-- Node22 -->
<g id="node22" class="node">
<title>Node22</title>
<g id="a_node22"><a xlink:title=" ">
<polygon fill="white" stroke="#bfbfbf" points="190,-361.7 190,-387.7 285,-387.7 285,-361.7 190,-361.7"/>
<text text-anchor="start" x="198" y="-377.3" font-family="Helvetica,sans-Serif" font-size="8.00">Congestion_control</text>
<text text-anchor="middle" x="237.5" y="-368.3" font-family="Helvetica,sans-Serif" font-size="8.00">_strategy_choice</text>
</a>
</g>
</g>
<!-- Node22&#45;&gt;Node20 -->
<g id="edge33" class="edge">
<title>Node22&#45;&gt;Node20</title>
<path fill="none" stroke="#9a32cd" stroke-dasharray="5,2" d="M295.51,-374.7C345.42,-374.7 417.11,-374.7 464.11,-374.7"/>
<polygon fill="#9a32cd" stroke="#9a32cd" points="295.21,-371.2 285.21,-374.7 295.21,-378.2 295.21,-371.2"/>
<text text-anchor="middle" x="375.5" y="-377.3" font-family="Helvetica,sans-Serif" font-size="8.00"> m_st_cong_ctl_strategy</text>
</g>
<!-- Node23&#45;&gt;Node1 -->
<g id="edge34" class="edge">
<title>Node23&#45;&gt;Node1</title>
<path fill="none" stroke="#9a32cd" stroke-dasharray="5,2" d="M827.28,-401.68C864.38,-392.98 911.4,-381.95 945.95,-373.85"/>
<polygon fill="#9a32cd" stroke="#9a32cd" points="826.03,-398.38 817.1,-404.07 827.63,-405.19 826.03,-398.38"/>
<text text-anchor="middle" x="881.5" y="-400.3" font-family="Helvetica,sans-Serif" font-size="8.00"> m_node_opts</text>
</g>
<!-- Node24 -->
<g id="node24" class="node">
<title>Node24</title>
<g id="a_node24"><a xlink:title=" ">
<polygon fill="white" stroke="#bfbfbf" points="477.5,-419.2 477.5,-436.2 548.5,-436.2 548.5,-419.2 477.5,-419.2"/>
<text text-anchor="middle" x="513" y="-425.8" font-family="Helvetica,sans-Serif" font-size="8.00">Fine_duration</text>
</a>
</g>
</g>
<!-- Node24&#45;&gt;Node23 -->
<g id="edge37" class="edge">
<title>Node24&#45;&gt;Node23</title>
<path fill="none" stroke="#9a32cd" stroke-dasharray="5,2" d="M558.83,-425.56C602.84,-423.46 669.86,-420.26 715.56,-418.08"/>
<polygon fill="#9a32cd" stroke="#9a32cd" points="558.53,-422.07 548.71,-426.04 558.86,-429.06 558.53,-422.07"/>
<text text-anchor="middle" x="642.5" y="-426.3" font-family="Helvetica,sans-Serif" font-size="8.00"> m_st_timer_min_period</text>
</g>
</g>
</svg>
