<?xml version="1.0" encoding="UTF-8" standalone="no"?>
<!DOCTYPE svg PUBLIC "-//W3C//DTD SVG 1.1//EN"
 "http://www.w3.org/Graphics/SVG/1.1/DTD/svg11.dtd">
<!-- Generated by graphviz version 2.43.0 (0)
 -->
<!-- Title: Graphical Class Hierarchy Pages: 1 -->
<svg width="455pt" height="80pt"
 viewBox="0.00 0.00 455.00 80.00" xmlns="http://www.w3.org/2000/svg" xmlns:xlink="http://www.w3.org/1999/xlink">
<g id="graph0" class="graph" transform="scale(1 1) rotate(0) translate(4 76)">
<title>Graphical Class Hierarchy</title>
<polygon fill="white" stroke="transparent" points="-4,4 -4,-76 451,-76 451,4 -4,4"/>
<!-- Node0 -->
<g id="node1" class="node">
<title>Node0</title>
<g id="a_node1"><a xlink:href="classflow_1_1util_1_1Rnd__gen__uniform__range__base.html" target="_top" xlink:title="Base class for Rnd_gen_uniform_range and Rnd_gen_uniform_range_mt for various aliases and similar,...">
<polygon fill="white" stroke="black" points="0,-22.5 0,-48.5 104,-48.5 104,-22.5 0,-22.5"/>
<text text-anchor="start" x="8" y="-38.1" font-family="Helvetica,sans-Serif" font-size="8.00">flow::util::Rnd_gen</text>
<text text-anchor="middle" x="52" y="-29.1" font-family="Helvetica,sans-Serif" font-size="8.00">_uniform_range_base</text>
</a>
</g>
</g>
<!-- Node1 -->
<g id="node2" class="node">
<title>Node1</title>
<g id="a_node2"><a xlink:href="classflow_1_1util_1_1Rnd__gen__uniform__range.html" target="_top" xlink:title=" ">
<polygon fill="white" stroke="black" points="143.5,-45.5 143.5,-71.5 264.5,-71.5 264.5,-45.5 143.5,-45.5"/>
<text text-anchor="start" x="151.5" y="-61.1" font-family="Helvetica,sans-Serif" font-size="8.00">flow::util::Rnd_gen</text>
<text text-anchor="middle" x="204" y="-52.1" font-family="Helvetica,sans-Serif" font-size="8.00">_uniform_range&lt; size_t &gt;</text>
</a>
</g>
</g>
<!-- Node0&#45;&gt;Node1 -->
<g id="edge1" class="edge">
<title>Node0&#45;&gt;Node1</title>
<path fill="none" stroke="midnightblue" d="M114.09,-44.87C123.71,-46.34 133.65,-47.87 143.24,-49.34"/>
<polygon fill="midnightblue" stroke="midnightblue" points="114.62,-41.41 104.2,-43.35 113.56,-48.33 114.62,-41.41"/>
</g>
<!-- Node3 -->
<g id="node4" class="node">
<title>Node3</title>
<g id="a_node4"><a xlink:href="classflow_1_1util_1_1Rnd__gen__uniform__range.html" target="_top" xlink:title="Simple, non&#45;thread&#45;safe uniform&#45;range random number generator.">
<polygon fill="white" stroke="black" points="140,-0.5 140,-26.5 268,-26.5 268,-0.5 140,-0.5"/>
<text text-anchor="start" x="148" y="-16.1" font-family="Helvetica,sans-Serif" font-size="8.00">flow::util::Rnd_gen</text>
<text text-anchor="middle" x="204" y="-7.1" font-family="Helvetica,sans-Serif" font-size="8.00">_uniform_range&lt; range_t &gt;</text>
</a>
</g>
</g>
<!-- Node0&#45;&gt;Node3 -->
<g id="edge3" class="edge">
<title>Node0&#45;&gt;Node3</title>
<path fill="none" stroke="midnightblue" d="M114.32,-26.51C122.73,-25.27 131.38,-24 139.82,-22.77"/>
<polygon fill="midnightblue" stroke="midnightblue" points="113.59,-23.08 104.2,-27.99 114.6,-30 113.59,-23.08"/>
</g>
<!-- Node2 -->
<g id="node3" class="node">
<title>Node2</title>
<g id="a_node3"><a xlink:href="classflow_1_1util_1_1Rnd__gen__uniform__range__mt.html" target="_top" xlink:title=" ">
<polygon fill="white" stroke="black" points="308,-45.5 308,-71.5 443,-71.5 443,-45.5 308,-45.5"/>
<text text-anchor="start" x="316" y="-61.1" font-family="Helvetica,sans-Serif" font-size="8.00">flow::util::Rnd_gen</text>
<text text-anchor="middle" x="375.5" y="-52.1" font-family="Helvetica,sans-Serif" font-size="8.00">_uniform_range_mt&lt; size_t &gt;</text>
</a>
</g>
</g>
<!-- Node1&#45;&gt;Node2 -->
<g id="edge2" class="edge">
<title>Node1&#45;&gt;Node2</title>
<path fill="none" stroke="#8b1a1a" d="M275.02,-58.5C285.85,-58.5 297.02,-58.5 307.77,-58.5"/>
<polygon fill="#8b1a1a" stroke="#8b1a1a" points="274.76,-55 264.76,-58.5 274.76,-62 274.76,-55"/>
</g>
<!-- Node4 -->
<g id="node5" class="node">
<title>Node4</title>
<g id="a_node5"><a xlink:href="classflow_1_1util_1_1Rnd__gen__uniform__range__mt.html" target="_top" xlink:title="Identical to Rnd_gen_uniform_range but safe for concurrent RNG given a single object.">
<polygon fill="white" stroke="black" points="304,-0.5 304,-26.5 447,-26.5 447,-0.5 304,-0.5"/>
<text text-anchor="start" x="312" y="-16.1" font-family="Helvetica,sans-Serif" font-size="8.00">flow::util::Rnd_gen</text>
<text text-anchor="middle" x="375.5" y="-7.1" font-family="Helvetica,sans-Serif" font-size="8.00">_uniform_range_mt&lt; range_t &gt;</text>
</a>
</g>
</g>
<!-- Node3&#45;&gt;Node4 -->
<g id="edge4" class="edge">
<title>Node3&#45;&gt;Node4</title>
<path fill="none" stroke="#8b1a1a" d="M278.36,-13.5C286.84,-13.5 295.48,-13.5 303.92,-13.5"/>
<polygon fill="#8b1a1a" stroke="#8b1a1a" points="278.12,-10 268.12,-13.5 278.12,-17 278.12,-10"/>
</g>
</g>
</svg>
